<svg width="200" height="200" viewBox="0 0 200 200" fill="none" xmlns="http://www.w3.org/2000/svg">
<circle cx="100" cy="100" r="75" fill="#FAFAFA"/>
<path d="M108.935 94.4008C105.824 91.29 101.671 89.5635 97.2509 89.5635C92.8303 89.5635 88.6776 91.2752 85.5668 94.4008C82.4561 97.5265 80.7295 101.664 80.7295 106.085C80.7295 110.505 82.4412 114.658 85.5668 117.769C88.6776 120.88 92.8303 122.606 97.2509 122.606C101.671 122.606 105.824 120.895 108.935 117.769C115.365 111.324 115.365 100.846 108.935 94.4008ZM107.357 116.191C104.663 118.885 101.076 120.374 97.2509 120.374C93.4257 120.374 89.8386 118.885 87.1446 116.191C84.4505 113.497 82.9621 109.91 82.9621 106.085C82.9621 102.26 84.4505 98.6726 87.1446 95.9785C89.8386 93.2845 93.4257 91.7961 97.2509 91.7961C101.076 91.7961 104.663 93.2845 107.357 95.9785C112.924 101.545 112.924 110.61 107.357 116.191Z" fill="#A7A7A7"/>
<path d="M136.203 136.716L122.45 122.963C121.17 121.683 119.399 121.073 117.612 121.281L115.633 119.302C122.003 110.446 121.229 98.0175 113.281 90.0545C104.44 81.2133 90.0619 81.2133 81.2207 90.0545C72.3796 98.8956 72.3796 113.274 81.2207 122.115C85.6413 126.535 91.4461 128.738 97.2509 128.738C101.895 128.738 106.539 127.295 110.468 124.467L112.448 126.446C112.239 128.232 112.85 130.003 114.13 131.269L127.882 145.036C129.029 146.183 130.532 146.763 132.05 146.763C133.553 146.763 135.072 146.183 136.218 145.036C137.334 143.92 137.944 142.447 137.944 140.869C137.929 139.306 137.304 137.818 136.203 136.716ZM82.7836 120.537C74.8205 112.574 74.8205 99.5952 82.7836 91.6322C86.7725 87.6432 91.9968 85.6488 97.236 85.6488C102.475 85.6488 107.7 87.6432 111.689 91.6322C119.652 99.5952 119.652 112.574 111.689 120.537C103.726 128.5 90.7615 128.5 82.7836 120.537ZM134.625 143.459C133.196 144.888 130.874 144.888 129.46 143.459L115.707 129.706C114.829 128.828 114.457 127.548 114.74 126.312C114.829 125.94 114.71 125.553 114.442 125.285L112.254 123.097C112.269 123.082 112.284 123.053 112.299 123.023C112.626 122.725 112.983 122.442 113.296 122.115C113.623 121.787 113.906 121.445 114.204 121.103C114.219 121.088 114.249 121.088 114.263 121.073L116.451 123.261C116.719 123.529 117.106 123.648 117.478 123.559C118.714 123.276 119.979 123.648 120.872 124.526L134.625 138.294C135.31 138.979 135.697 139.901 135.697 140.884C135.697 141.851 135.31 142.774 134.625 143.459Z" fill="#A7A7A7"/>
<path d="M103.725 99.5952C103.294 99.1636 102.579 99.1636 102.148 99.5952L97.2507 104.492L92.3538 99.5952C91.9222 99.1636 91.2078 99.1636 90.7761 99.5952C90.3445 100.027 90.3445 100.741 90.7761 101.173L95.673 106.085L90.7761 110.982C90.3445 111.413 90.3445 112.128 90.7761 112.559C90.9994 112.783 91.2822 112.887 91.565 112.887C91.8478 112.887 92.1306 112.783 92.3538 112.559L97.2507 107.662L102.148 112.559C102.371 112.783 102.654 112.887 102.936 112.887C103.219 112.887 103.502 112.783 103.725 112.559C104.157 112.128 104.157 111.413 103.725 110.982L98.8284 106.085L103.725 101.173C104.157 100.741 104.157 100.042 103.725 99.5952Z" fill="#A7A7A7"/>
<path d="M86.162 61.1047H114.367C114.978 61.1047 115.484 60.5986 115.484 59.9884C115.484 59.3781 114.978 58.8721 114.367 58.8721H86.162C85.5517 58.8721 85.0457 59.3781 85.0457 59.9884C85.0457 60.5986 85.5517 61.1047 86.162 61.1047Z" fill="#A7A7A7"/>
<path d="M114.382 64.781H86.1471C85.5368 64.781 85.0308 65.2871 85.0308 65.8973C85.0308 66.5076 85.5368 67.0136 86.1471 67.0136H114.382C114.993 67.0136 115.499 66.5076 115.499 65.8973C115.499 65.2871 114.993 64.781 114.382 64.781Z" fill="#A7A7A7"/>
<path d="M114.382 70.7498H99.5577C98.9475 70.7498 98.4414 71.2558 98.4414 71.8661C98.4414 72.4763 98.9475 72.9824 99.5577 72.9824H114.382C114.993 72.9824 115.499 72.4763 115.499 71.8661C115.499 71.2558 114.993 70.7498 114.382 70.7498Z" fill="#A7A7A7"/>
<path d="M114.382 76.7034H99.5577C98.9475 76.7034 98.4414 77.2094 98.4414 77.8197C98.4414 78.4299 98.9475 78.936 99.5577 78.936H114.382C114.993 78.936 115.499 78.4299 115.499 77.8197C115.499 77.2094 114.993 76.7034 114.382 76.7034Z" fill="#A7A7A7"/>
<path d="M117.925 138.711H69.5962V135.019H112.001C112.611 135.019 113.117 134.513 113.117 133.903C113.117 133.293 112.611 132.787 112.001 132.787H63.6574V69.7079H77.7676C78.3778 69.7079 78.8839 69.2018 78.8839 68.5916V54.4814H121.631V119.079C121.631 119.689 122.137 120.195 122.747 120.195C123.358 120.195 123.864 119.689 123.864 119.079V60.4053H127.555V124.452C127.555 125.062 128.061 125.568 128.671 125.568C129.282 125.568 129.788 125.062 129.788 124.452V59.289C129.788 58.6787 129.282 58.1727 128.671 58.1727H123.864V53.3651C123.864 52.7548 123.358 52.2488 122.747 52.2488H77.7825C77.4848 52.2488 77.202 52.3679 76.9936 52.5762L61.7523 67.8027C61.5439 68.0111 61.4248 68.2939 61.4248 68.5916V133.888C61.4248 134.498 61.9309 135.005 62.5411 135.005H67.3487V139.812C67.3487 140.422 67.8547 140.928 68.465 140.928H117.91C118.52 140.928 119.026 140.422 119.026 139.812C119.026 139.202 118.535 138.711 117.925 138.711ZM65.2351 67.4752L76.6513 56.0591V67.4752H65.2351Z" fill="#A7A7A7"/>
</svg>
