<svg width="200" height="200" viewBox="0 0 200 200" fill="none" xmlns="http://www.w3.org/2000/svg">
<circle cx="100" cy="100" r="75" fill="#FAFAFA"/>
<path d="M126.23 135.652C125.62 135.652 125.114 136.158 125.114 136.768V137.229C125.114 137.84 125.62 138.346 126.23 138.346C126.84 138.346 127.346 137.84 127.346 137.229V136.768C127.346 136.143 126.84 135.652 126.23 135.652Z" fill="#A7A7A7"/>
<path d="M132.451 134.803C132.139 134.267 131.454 134.089 130.933 134.401C130.397 134.714 130.219 135.399 130.531 135.92L130.769 136.321C130.978 136.679 131.35 136.887 131.737 136.887C131.93 136.887 132.124 136.842 132.288 136.738C132.823 136.426 133.002 135.741 132.689 135.22L132.451 134.803Z" fill="#A7A7A7"/>
<path d="M136.306 130.77L135.905 130.531C135.369 130.219 134.684 130.412 134.386 130.933C134.074 131.469 134.267 132.154 134.788 132.451L135.19 132.69C135.369 132.794 135.562 132.838 135.756 132.838C136.143 132.838 136.515 132.645 136.723 132.288C137.021 131.767 136.827 131.082 136.306 130.77Z" fill="#A7A7A7"/>
<path d="M116.823 126.245C116.823 125.634 116.317 125.128 115.707 125.128H115.245C114.635 125.128 114.129 125.634 114.129 126.245C114.129 126.855 114.635 127.361 115.245 127.361H115.707C116.317 127.361 116.823 126.855 116.823 126.245Z" fill="#A7A7A7"/>
<path d="M137.214 125.128H136.753C136.143 125.128 135.637 125.634 135.637 126.245C135.637 126.855 136.143 127.361 136.753 127.361H137.214C137.825 127.361 138.331 126.855 138.331 126.245C138.331 125.634 137.825 125.128 137.214 125.128Z" fill="#A7A7A7"/>
<path d="M116.555 130.532L116.153 130.77C115.618 131.082 115.439 131.767 115.751 132.288C115.96 132.645 116.332 132.839 116.719 132.839C116.912 132.839 117.106 132.794 117.285 132.69L117.686 132.452C118.222 132.139 118.401 131.454 118.088 130.933C117.776 130.413 117.091 130.234 116.555 130.532Z" fill="#A7A7A7"/>
<path d="M121.526 134.386C120.991 134.074 120.306 134.267 120.008 134.788L119.77 135.19C119.458 135.726 119.651 136.411 120.172 136.708C120.351 136.812 120.544 136.857 120.723 136.857C121.11 136.857 121.482 136.664 121.69 136.292L121.928 135.89C122.241 135.384 122.062 134.699 121.526 134.386Z" fill="#A7A7A7"/>
<path d="M116.302 77.0825C116.913 77.0825 117.419 76.5764 117.419 75.9662C117.419 75.3559 116.913 74.8499 116.302 74.8499H84.7479C84.1377 74.8499 83.6316 75.3559 83.6316 75.9662C83.6316 76.5764 84.1377 77.0825 84.7479 77.0825H116.302Z" fill="#A7A7A7"/>
<path d="M83.2741 88.9303C83.2741 88.32 82.7681 87.814 82.1578 87.814H72.6766C72.0664 87.814 71.5603 88.32 71.5603 88.9303V97.4142C71.5603 98.0245 72.0664 98.5305 72.6766 98.5305H82.1578C82.7681 98.5305 83.2741 98.0245 83.2741 97.4142V88.9303ZM81.0415 96.2979H73.7929V90.0466H81.0415V96.2979Z" fill="#A7A7A7"/>
<path d="M98.6794 88.9303C98.6794 88.32 98.1733 87.814 97.5631 87.814H88.0819C87.4716 87.814 86.9656 88.32 86.9656 88.9303V97.4142C86.9656 98.0245 87.4716 98.5305 88.0819 98.5305H97.5631C98.1733 98.5305 98.6794 98.0245 98.6794 97.4142V88.9303ZM96.4468 96.2979H89.1982V90.0466H96.4468V96.2979Z" fill="#A7A7A7"/>
<path d="M103.487 87.814C102.876 87.814 102.37 88.32 102.37 88.9303V97.4142C102.37 98.0245 102.876 98.5305 103.487 98.5305H112.968C113.578 98.5305 114.084 98.0245 114.084 97.4142V88.9303C114.084 88.32 113.578 87.814 112.968 87.814H103.487ZM111.852 96.2979H104.603V90.0466H111.852V96.2979Z" fill="#A7A7A7"/>
<path d="M118.877 87.814C118.267 87.814 117.761 88.32 117.761 88.9303V97.4142C117.761 98.0245 118.267 98.5305 118.877 98.5305H128.358C128.968 98.5305 129.475 98.0245 129.475 97.4142V88.9303C129.475 88.32 128.968 87.814 128.358 87.814H118.877ZM127.257 96.2979H120.008V90.0466H127.257V96.2979Z" fill="#A7A7A7"/>
<path d="M83.2741 103.323C83.2741 102.713 82.7681 102.207 82.1578 102.207H72.6766C72.0664 102.207 71.5603 102.713 71.5603 103.323V111.807C71.5603 112.418 72.0664 112.924 72.6766 112.924H82.1578C82.7681 112.924 83.2741 112.418 83.2741 111.807V103.323ZM81.0415 110.691H73.7929V104.44H81.0415V110.691Z" fill="#A7A7A7"/>
<path d="M98.6794 103.323C98.6794 102.713 98.1733 102.207 97.5631 102.207H88.0819C87.4716 102.207 86.9656 102.713 86.9656 103.323V111.807C86.9656 112.418 87.4716 112.924 88.0819 112.924H97.5631C98.1733 112.924 98.6794 112.418 98.6794 111.807V103.323ZM96.4468 110.691H89.1982V104.44H96.4468V110.691Z" fill="#A7A7A7"/>
<path d="M82.1578 116.615H72.6766C72.0664 116.615 71.5603 117.121 71.5603 117.731V126.215C71.5603 126.825 72.0664 127.331 72.6766 127.331H82.1578C82.7681 127.331 83.2741 126.825 83.2741 126.215V117.731C83.2741 117.121 82.7681 116.615 82.1578 116.615ZM81.0415 125.099H73.7929V118.847H81.0415V125.099Z" fill="#A7A7A7"/>
<path d="M97.5631 116.615H88.0819C87.4716 116.615 86.9656 117.121 86.9656 117.731V126.215C86.9656 126.825 87.4716 127.331 88.0819 127.331H97.5631C98.1733 127.331 98.6794 126.825 98.6794 126.215V117.731C98.6794 117.121 98.1733 116.615 97.5631 116.615ZM96.4468 125.099H89.1982V118.847H96.4468V125.099Z" fill="#A7A7A7"/>
<path d="M79.9998 66.4999C79.9998 59.0578 73.942 53 66.4999 53C59.0578 53 53 59.0578 53 66.4999C53 73.942 59.0578 79.9998 66.4999 79.9998C73.942 79.9998 79.9998 73.9569 79.9998 66.4999ZM55.2177 66.4999C55.2177 60.2783 60.2783 55.2326 66.485 55.2326C72.6917 55.2326 77.7523 60.2932 77.7523 66.4999C77.7523 72.7066 72.6917 77.7672 66.485 77.7672C60.2783 77.7672 55.2177 72.7215 55.2177 66.4999Z" fill="#A7A7A7"/>
<path d="M126.23 104.975C114.501 104.975 104.96 114.516 104.96 126.245C104.96 137.973 114.501 147.514 126.23 147.514C137.958 147.514 147.499 137.973 147.499 126.245C147.499 114.516 137.958 104.975 126.23 104.975ZM126.23 145.282C115.736 145.282 107.193 136.738 107.193 126.245C107.193 115.751 115.736 107.208 126.23 107.208C136.723 107.208 145.266 115.751 145.266 126.245C145.266 136.738 136.723 145.282 126.23 145.282Z" fill="#A7A7A7"/>
<path d="M126.23 110.244C117.403 110.244 110.229 117.419 110.229 126.245C110.229 135.071 117.403 142.245 126.23 142.245C135.056 142.245 142.23 135.071 142.23 126.245C142.23 117.419 135.056 110.244 126.23 110.244ZM126.23 140.013C118.639 140.013 112.462 133.836 112.462 126.245C112.462 118.654 118.639 112.477 126.23 112.477C133.821 112.477 139.998 118.654 139.998 126.245C139.998 133.836 133.821 140.013 126.23 140.013Z" fill="#A7A7A7"/>
<path d="M126.23 114.144C125.62 114.144 125.114 114.65 125.114 115.26V115.722C125.114 116.332 125.62 116.838 126.23 116.838C126.84 116.838 127.346 116.332 127.346 115.722V115.26C127.346 114.65 126.84 114.144 126.23 114.144Z" fill="#A7A7A7"/>
<path d="M120.008 117.686C120.217 118.044 120.589 118.252 120.976 118.252C121.169 118.252 121.363 118.207 121.526 118.103C122.062 117.791 122.241 117.106 121.928 116.585L121.69 116.183C121.378 115.647 120.693 115.469 120.172 115.781C119.636 116.094 119.457 116.778 119.77 117.299L120.008 117.686Z" fill="#A7A7A7"/>
<path d="M117.671 120.023L117.27 119.785C116.734 119.472 116.049 119.666 115.751 120.187C115.439 120.723 115.632 121.407 116.153 121.705L116.555 121.943C116.734 122.047 116.927 122.092 117.121 122.092C117.508 122.092 117.88 121.899 118.088 121.541C118.386 121.006 118.207 120.321 117.671 120.023Z" fill="#A7A7A7"/>
<path d="M135.339 122.092C135.532 122.092 135.726 122.048 135.904 121.943L136.306 121.705C136.842 121.393 137.021 120.708 136.708 120.187C136.396 119.651 135.711 119.473 135.19 119.785L134.788 120.023C134.252 120.336 134.074 121.021 134.386 121.541C134.58 121.899 134.952 122.092 135.339 122.092Z" fill="#A7A7A7"/>
<path d="M132.273 115.767C131.737 115.454 131.052 115.647 130.754 116.168L130.516 116.57C130.204 117.106 130.397 117.791 130.918 118.088C131.097 118.193 131.29 118.237 131.469 118.237C131.856 118.237 132.228 118.044 132.436 117.672L132.674 117.27C133.002 116.749 132.808 116.079 132.273 115.767Z" fill="#A7A7A7"/>
<path d="M126.23 118.386C125.619 118.386 125.113 118.892 125.113 119.502V125.128H122.166C121.556 125.128 121.05 125.635 121.05 126.245C121.05 126.855 121.556 127.361 122.166 127.361H126.23C126.84 127.361 127.346 126.855 127.346 126.245V119.502C127.346 118.877 126.84 118.386 126.23 118.386Z" fill="#A7A7A7"/>
<path d="M102.356 131.022H72.6767C70.0273 131.022 67.8691 128.864 67.8691 126.215V84.1226H133.166V103.011C133.166 103.621 133.672 104.127 134.282 104.127C134.892 104.127 135.398 103.621 135.398 103.011V74.8647C135.398 70.9799 132.243 67.8245 128.358 67.8245H83.1551C82.5448 67.8245 82.0388 68.3305 82.0388 68.9408C82.0388 69.551 82.5448 70.0571 83.1551 70.0571H128.373C131.022 70.0571 133.181 72.2153 133.181 74.8647V81.9049H66.7528C66.1425 81.9049 65.6365 82.4109 65.6365 83.0212V126.23C65.6365 130.115 68.7919 133.27 72.6767 133.27H102.356C102.966 133.27 103.472 132.764 103.472 132.154C103.472 131.543 102.966 131.022 102.356 131.022Z" fill="#A7A7A7"/>
<path d="M107.446 111.807C107.446 111.197 106.94 110.691 106.33 110.691H104.603V104.44H111.852V105.526C111.852 106.136 112.358 106.643 112.968 106.643C113.578 106.643 114.084 106.136 114.084 105.526V103.323C114.084 102.713 113.578 102.207 112.968 102.207H103.487C102.876 102.207 102.37 102.713 102.37 103.323V111.807C102.37 112.418 102.876 112.924 103.487 112.924H106.33C106.94 112.924 107.446 112.432 107.446 111.807Z" fill="#A7A7A7"/>
<path d="M72.0776 60.3938C71.6459 59.9622 70.9315 59.9622 70.4999 60.3938L66.2281 64.6655L61.9564 60.3938C61.5247 59.9622 60.8103 59.9622 60.3787 60.3938C59.947 60.8254 59.947 61.5399 60.3787 61.9715L64.6504 66.2433L60.3787 70.515C59.947 70.9466 59.947 71.6611 60.3787 72.0927C60.6019 72.316 60.8847 72.4202 61.1675 72.4202C61.4503 72.4202 61.7331 72.316 61.9564 72.0927L66.2281 67.821L70.4999 72.0927C70.7231 72.316 71.0059 72.4202 71.2887 72.4202C71.5715 72.4202 71.8543 72.316 72.0776 72.0927C72.5092 71.6611 72.5092 70.9466 72.0776 70.515L67.8058 66.2433L72.0776 61.9715C72.5092 61.5399 72.5092 60.8254 72.0776 60.3938Z" fill="#A7A7A7"/>
</svg>
