<svg width="200" height="200" viewBox="0 0 200 200" fill="none" xmlns="http://www.w3.org/2000/svg">
<circle cx="100" cy="100" r="75" fill="#FAFAFA"/>
<path d="M119.41 67.657C116.374 64.6206 112.355 62.9536 108.053 62.9536C103.752 62.9536 99.7332 64.6206 96.7117 67.657C90.4604 73.9083 90.4604 84.104 96.7117 90.3553C99.7481 93.3917 103.767 95.0587 108.053 95.0587C112.34 95.0587 116.374 93.3917 119.41 90.3553C125.661 84.0891 125.661 73.9083 119.41 67.657ZM117.832 88.7776C115.228 91.3823 111.76 92.8261 108.068 92.8261C104.377 92.8261 100.909 91.3823 98.3043 88.7776C92.9162 83.3895 92.9162 74.6228 98.3043 69.2347C100.909 66.63 104.377 65.1862 108.068 65.1862C111.76 65.1862 115.228 66.63 117.832 69.2347C123.22 74.6228 123.22 83.3895 117.832 88.7776Z" fill="#A7A7A7"/>
<path d="M145.829 108.663L132.493 95.3266C131.258 94.0913 129.531 93.4959 127.805 93.6894L125.929 91.814C132.091 83.2258 131.332 71.1697 123.622 63.4448C119.47 59.2922 113.948 57 108.068 57C102.189 57 96.6671 59.2922 92.5144 63.4448C83.9412 72.0181 83.9412 85.9794 92.5144 94.5675C96.801 98.8542 102.442 100.997 108.068 100.997C112.563 100.997 117.058 99.5984 120.869 96.8746L122.744 98.75C122.551 100.477 123.131 102.203 124.381 103.438L137.718 116.775C138.804 117.861 140.248 118.457 141.781 118.457C143.314 118.457 144.758 117.861 145.844 116.775C148.062 114.542 148.062 110.895 145.829 108.663ZM94.0773 92.9749C90.3413 89.239 88.2873 84.2826 88.2873 78.9987C88.2873 73.7149 90.3413 68.7585 94.0773 65.0225C97.8132 61.2866 102.784 59.2326 108.053 59.2326C113.322 59.2326 118.294 61.2866 122.03 65.0225C125.766 68.7585 127.82 73.7149 127.82 78.9987C127.82 84.2826 125.766 89.239 122.03 92.9749C114.335 100.685 101.787 100.685 94.0773 92.9749ZM144.252 115.197C142.882 116.566 140.665 116.566 139.295 115.197L125.959 101.861C125.111 101.012 124.768 99.7919 125.021 98.6011C125.111 98.229 124.992 97.8421 124.724 97.5741L122.61 95.4606C122.952 95.1629 123.295 94.8801 123.607 94.5527C123.92 94.2252 124.218 93.8829 124.515 93.5554L126.629 95.669C126.897 95.9369 127.284 96.056 127.656 95.9667C128.847 95.6987 130.052 96.0411 130.915 96.9044L144.252 110.241C144.921 110.91 145.279 111.788 145.279 112.726C145.279 113.664 144.921 114.527 144.252 115.197Z" fill="#A7A7A7"/>
<path d="M77.2731 110.881L87.171 99.1075L97.069 110.881C97.2774 111.134 97.5899 111.283 97.9174 111.283H126.361C126.971 111.283 127.477 110.777 127.477 110.166C127.477 109.556 126.971 109.05 126.361 109.05H98.4383L89.5674 98.4973H90.6242C91.2344 98.4973 91.7405 97.9912 91.7405 97.381C91.7405 96.7707 91.2344 96.2646 90.6242 96.2646H87.1859H64.8597C64.5323 96.2646 64.2197 96.4135 64.0113 96.6665L53.265 109.452C52.9822 109.779 52.9227 110.241 53.1013 110.643C53.2799 111.03 53.6817 111.283 54.1134 111.283H76.4247C76.7521 111.283 77.0647 111.134 77.2731 110.881ZM56.5097 109.05L65.3807 98.4973H84.7747L75.9038 109.05H56.5097Z" fill="#A7A7A7"/>
<path d="M104.094 130.319H92.4251C91.8149 130.319 91.3088 130.825 91.3088 131.436C91.3088 132.046 91.8149 132.552 92.4251 132.552H104.094C104.705 132.552 105.211 132.046 105.211 131.436C105.211 130.825 104.705 130.319 104.094 130.319Z" fill="#A7A7A7"/>
<path d="M104.094 134.651H92.4251C91.8149 134.651 91.3088 135.157 91.3088 135.767C91.3088 136.377 91.8149 136.883 92.4251 136.883H104.094C104.705 136.883 105.211 136.377 105.211 135.767C105.211 135.157 104.705 134.651 104.094 134.651Z" fill="#A7A7A7"/>
<path d="M113.308 73.7449C112.876 73.3132 112.161 73.3132 111.73 73.7449L108.053 77.4213L104.377 73.7449C103.945 73.3132 103.231 73.3132 102.799 73.7449C102.368 74.1765 102.368 74.8909 102.799 75.3226L106.476 78.999L102.799 82.6754C102.368 83.107 102.368 83.8214 102.799 84.2531C103.023 84.4763 103.305 84.5805 103.588 84.5805C103.871 84.5805 104.154 84.4763 104.377 84.2531L108.053 80.5767L111.73 84.2531C111.953 84.4763 112.236 84.5805 112.519 84.5805C112.801 84.5805 113.084 84.4763 113.308 84.2531C113.739 83.8214 113.739 83.107 113.308 82.6754L109.631 78.999L113.308 75.3226C113.754 74.8909 113.754 74.1765 113.308 73.7449Z" fill="#A7A7A7"/>
<path d="M126.793 113.515C126.182 113.515 125.676 114.021 125.676 114.631V139.905H88.2873V104.302C88.2873 103.692 87.7813 103.186 87.171 103.186C86.5608 103.186 86.0547 103.692 86.0547 104.302V139.905H65.976V114.631C65.976 114.021 65.47 113.515 64.8597 113.515C64.2495 113.515 63.7434 114.021 63.7434 114.631V141.036C63.7434 141.646 64.2495 142.152 64.8597 142.152H126.778C127.388 142.152 127.894 141.646 127.894 141.036V114.631C127.909 114.006 127.403 113.515 126.793 113.515Z" fill="#A7A7A7"/>
</svg>
