<svg width="200" height="200" viewBox="0 0 200 200" fill="none" xmlns="http://www.w3.org/2000/svg">
<circle cx="100" cy="100" r="75" fill="#FAFAFA"/>
<path d="M117.176 90.2551C114.095 87.1592 109.987 85.4624 105.611 85.4624C101.235 85.4624 97.1418 87.1592 94.0459 90.2551C87.6755 96.6255 87.6755 107 94.0459 113.385C97.1418 116.481 101.235 118.178 105.611 118.178C109.987 118.178 114.08 116.481 117.176 113.385C120.272 110.289 121.969 106.196 121.969 101.82C121.954 97.459 120.257 93.351 117.176 90.2551ZM115.598 111.807C112.934 114.472 109.391 115.945 105.611 115.945C101.83 115.945 98.2879 114.472 95.6236 111.807C90.1165 106.3 90.1165 97.3399 95.6236 91.8328C98.2879 89.1686 101.83 87.695 105.611 87.695C109.377 87.695 112.934 89.1686 115.598 91.8328C118.262 94.4971 119.736 98.0395 119.736 101.82C119.736 105.601 118.262 109.143 115.598 111.807Z" fill="#A7A7A7"/>
<path d="M75.4852 126.022C73.1038 123.64 69.9483 122.33 66.5845 122.33C63.2207 122.33 60.0653 123.64 57.6838 126.022C52.7721 130.933 52.7721 138.911 57.6838 143.823C60.0653 146.204 63.2207 147.514 66.5845 147.514C69.9483 147.514 73.1038 146.204 75.4852 143.823C77.8667 141.442 79.1765 138.286 79.1765 134.922C79.1616 131.558 77.8518 128.403 75.4852 126.022ZM73.9075 142.245C71.9577 144.195 69.353 145.282 66.5845 145.282C63.8161 145.282 61.2114 144.21 59.2615 142.245C55.2279 138.212 55.2279 131.633 59.2615 127.599C61.2114 125.649 63.8161 124.563 66.5845 124.563C69.353 124.563 71.9577 125.635 73.9075 127.599C75.8573 129.549 76.9439 132.154 76.9439 134.922C76.929 137.691 75.8573 140.295 73.9075 142.245Z" fill="#A7A7A7"/>
<path d="M144.905 131.767L133.057 119.919C131.584 118.446 129.589 117.85 127.654 118.059L124.008 114.412C129.946 105.735 129.083 93.7529 121.373 86.0578C112.681 77.3655 98.526 77.3655 89.8337 86.0578C81.1414 94.7502 81.1414 108.905 89.8337 117.597C94.1799 121.943 99.8954 124.117 105.611 124.117C110.017 124.117 114.407 122.807 118.188 120.217L121.82 123.849C121.79 124.087 121.745 124.325 121.745 124.578C121.745 126.349 122.43 128.001 123.68 129.252L135.528 141.099C136.823 142.394 138.505 143.034 140.202 143.034C141.898 143.034 143.595 142.394 144.875 141.099C146.125 139.849 146.81 138.182 146.81 136.426C146.84 134.669 146.155 133.002 144.905 131.767ZM91.4114 116.02C87.616 112.224 85.5322 107.178 85.5322 101.82C85.5322 96.4618 87.616 91.4161 91.4114 87.6207C95.2069 83.8252 100.238 81.7414 105.611 81.7414C110.969 81.7414 116.015 83.8252 119.81 87.6207C123.606 91.4161 125.69 96.4469 125.69 101.82C125.69 107.178 123.606 112.224 119.81 116.02C116.015 119.815 110.984 121.899 105.611 121.899C100.253 121.899 95.2069 119.8 91.4114 116.02ZM119.989 118.862C120.465 118.461 120.942 118.044 121.388 117.597C121.835 117.151 122.251 116.674 122.653 116.198L125.258 118.803C124.707 119.101 124.171 119.458 123.71 119.919C123.249 120.381 122.891 120.902 122.594 121.467L119.989 118.862ZM143.327 139.537C141.616 141.248 138.832 141.248 137.135 139.537L125.288 127.689C124.454 126.855 124.008 125.769 124.008 124.593C124.008 123.417 124.469 122.316 125.288 121.497C126.136 120.649 127.267 120.217 128.384 120.217C129.5 120.217 130.631 120.649 131.48 121.497L143.327 133.345C144.161 134.178 144.607 135.265 144.607 136.441C144.607 137.616 144.146 138.703 143.327 139.537Z" fill="#A7A7A7"/>
<path d="M124.752 61.6328H94.5072C93.8969 61.6328 93.3909 62.1389 93.3909 62.7491C93.3909 63.3594 93.8969 63.8654 94.5072 63.8654H124.752C125.362 63.8654 125.868 63.3594 125.868 62.7491C125.868 62.1389 125.362 61.6328 124.752 61.6328Z" fill="#A7A7A7"/>
<path d="M124.752 67.4375H94.5072C93.8969 67.4375 93.3909 67.9436 93.3909 68.5538C93.3909 69.1641 93.8969 69.6701 94.5072 69.6701H124.752C125.362 69.6701 125.868 69.1641 125.868 68.5538C125.868 67.9436 125.362 67.4375 124.752 67.4375Z" fill="#A7A7A7"/>
<path d="M124.752 73.2427H109.391C108.781 73.2427 108.275 73.7487 108.275 74.359C108.275 74.9692 108.781 75.4753 109.391 75.4753H124.752C125.362 75.4753 125.868 74.9692 125.868 74.359C125.868 73.7487 125.362 73.2427 124.752 73.2427Z" fill="#A7A7A7"/>
<path d="M99.5826 142.007H120.837C121.447 142.007 121.953 141.501 121.953 140.891C121.953 140.281 121.447 139.775 120.837 139.775H99.5826C98.9724 139.775 98.4663 140.281 98.4663 140.891C98.4663 141.501 98.9724 142.007 99.5826 142.007Z" fill="#A7A7A7"/>
<path d="M99.5826 136.202H120.837C121.447 136.202 121.953 135.696 121.953 135.086C121.953 134.476 121.447 133.969 120.837 133.969H99.5826C98.9724 133.969 98.4663 134.476 98.4663 135.086C98.4663 135.696 98.9724 136.202 99.5826 136.202Z" fill="#A7A7A7"/>
<path d="M72.4343 129.073C72.0026 128.641 71.2882 128.641 70.8566 129.073L66.5848 133.345L62.3131 129.073C61.8814 128.641 61.167 128.641 60.7354 129.073C60.3037 129.505 60.3037 130.219 60.7354 130.651L65.0071 134.922L60.7354 139.194C60.3037 139.626 60.3037 140.34 60.7354 140.772C60.9586 140.995 61.2414 141.099 61.5242 141.099C61.807 141.099 62.0898 140.995 62.3131 140.772L66.5848 136.5L70.8566 140.772C71.0798 140.995 71.3626 141.099 71.6454 141.099C71.9282 141.099 72.211 140.995 72.4343 140.772C72.8659 140.34 72.8659 139.626 72.4343 139.194L68.1625 134.922L72.4343 130.651C72.8659 130.219 72.8659 129.505 72.4343 129.073Z" fill="#A7A7A7"/>
<path d="M106.787 91.2225C105.12 90.8802 103.408 91.282 102.098 92.3388C100.788 93.3956 100.044 94.9733 100.044 96.6552C100.044 97.2654 100.55 97.7715 101.16 97.7715C101.771 97.7715 102.277 97.2654 102.277 96.6552C102.277 95.6431 102.723 94.7054 103.512 94.0802C104.301 93.4402 105.298 93.2021 106.34 93.4105C107.59 93.6635 108.603 94.6756 108.856 95.9259C109.124 97.191 108.692 98.4115 107.724 99.2153C105.67 100.912 104.495 103.532 104.495 106.375C104.495 106.985 105.001 107.491 105.611 107.491C106.221 107.491 106.727 106.985 106.727 106.375C106.727 104.187 107.605 102.207 109.153 100.927C110.746 99.6023 111.475 97.5185 111.044 95.4645C110.612 93.3658 108.9 91.669 106.787 91.2225Z" fill="#A7A7A7"/>
<path d="M105.611 111.42C106.227 111.42 106.727 110.92 106.727 110.304C106.727 109.687 106.227 109.188 105.611 109.188C104.994 109.188 104.494 109.687 104.494 110.304C104.494 110.92 104.994 111.42 105.611 111.42Z" fill="#A7A7A7"/>
<path d="M132.462 141.65C131.851 141.65 131.345 142.156 131.345 142.766V145.282H77.6136C77.0034 145.282 76.4973 145.788 76.4973 146.398C76.4973 147.008 77.0034 147.514 77.6136 147.514H132.462C133.072 147.514 133.578 147.008 133.578 146.398V142.766C133.578 142.156 133.087 141.65 132.462 141.65Z" fill="#A7A7A7"/>
<path d="M67.1947 120.127C67.8049 120.127 68.311 119.621 68.311 119.011V72.4982H84.4603C85.0705 72.4982 85.5766 71.9922 85.5766 71.3819V55.2326H131.345V115.513C131.345 116.124 131.851 116.63 132.462 116.63C133.072 116.63 133.578 116.124 133.578 115.513V54.1163C133.578 53.5061 133.072 53 132.462 53H84.4603C84.1626 53 83.8798 53.1191 83.6714 53.3275L66.4058 70.593C66.1826 70.8163 66.0784 71.0991 66.0784 71.3819V119.011C66.0784 119.636 66.5695 120.127 67.1947 120.127ZM69.8887 70.2656L83.344 56.8103V70.2656H69.8887Z" fill="#A7A7A7"/>
</svg>
