<svg width="200" height="200" viewBox="0 0 200 200" fill="none" xmlns="http://www.w3.org/2000/svg">
<circle cx="100" cy="100" r="75" fill="#FAFAFA"/>
<path d="M144.153 136.336L131.814 125.977C131.368 125.605 130.713 125.635 130.311 126.037L130.177 126.171L129.909 125.903C135.282 118.505 134.657 108.086 128.004 101.418C120.621 94.0357 108.625 94.0357 101.257 101.418C93.8746 108.801 93.8746 120.797 101.257 128.165C104.948 131.856 109.786 133.702 114.638 133.702C118.329 133.702 122.006 132.63 125.191 130.487L125.533 130.829L125.399 130.963C124.997 131.365 124.968 132.02 125.34 132.467L135.684 144.805C136.771 146.1 138.363 146.889 140.045 146.949C140.134 146.949 140.224 146.949 140.298 146.949C141.891 146.949 143.439 146.309 144.57 145.178C145.761 143.987 146.401 142.335 146.326 140.653C146.222 139.001 145.448 137.408 144.153 136.336ZM102.82 126.617C96.3156 120.113 96.3156 109.53 102.82 103.026C106.08 99.7661 110.351 98.1437 114.623 98.1437C118.895 98.1437 123.167 99.7661 126.426 103.026C132.931 109.53 132.931 120.113 126.426 126.617C119.907 133.121 109.324 133.121 102.82 126.617ZM142.962 143.645C142.203 144.404 141.191 144.805 140.12 144.761C139.033 144.716 138.066 144.24 137.366 143.406L127.676 131.841L127.87 131.648C128.302 131.216 128.302 130.502 127.87 130.07L126.947 129.132C127.304 128.82 127.662 128.522 127.989 128.18C128.168 128.001 128.316 127.823 128.48 127.644L129.373 128.537C129.805 128.969 130.519 128.969 130.951 128.537L131.144 128.344L142.709 138.033C143.528 138.718 144.019 139.7 144.064 140.772C144.123 141.858 143.722 142.885 142.962 143.645Z" fill="#A7A7A7"/>
<path d="M124.893 104.529C122.139 101.775 118.493 100.272 114.608 100.272C110.723 100.272 107.077 101.79 104.323 104.529C98.6521 110.2 98.6521 119.428 104.323 125.099C107.077 127.852 110.723 129.356 114.608 129.356C118.493 129.356 122.139 127.837 124.893 125.099C127.646 122.36 129.15 118.699 129.15 114.814C129.15 110.929 127.646 107.282 124.893 104.529ZM123.315 123.521C120.993 125.843 117.897 127.123 114.608 127.123C111.319 127.123 108.223 125.843 105.901 123.521C101.108 118.713 101.108 110.914 105.901 106.107C108.223 103.785 111.319 102.505 114.608 102.505C117.897 102.505 120.993 103.785 123.315 106.107C125.637 108.428 126.917 111.524 126.917 114.814C126.917 118.103 125.652 121.199 123.315 123.521Z" fill="#A7A7A7"/>
<path d="M119.505 135.413C118.895 135.413 118.389 135.919 118.389 136.53V140.444C118.389 143.109 116.216 145.282 113.551 145.282H61.07C58.4057 145.282 56.2326 143.109 56.2326 140.444V60.07C56.2326 57.4057 58.4057 55.2326 61.07 55.2326H113.551C116.216 55.2326 118.389 57.4057 118.389 60.07V93.0978C118.389 93.7081 118.895 94.2142 119.505 94.2142C120.115 94.2142 120.621 93.7081 120.621 93.0978V60.07C120.621 56.1703 117.451 53 113.551 53H61.07C57.1703 53 54 56.1703 54 60.07V140.444C54 144.344 57.1703 147.514 61.07 147.514H113.551C117.451 147.514 120.621 144.344 120.621 140.444V136.53C120.621 135.919 120.13 135.413 119.505 135.413Z" fill="#A7A7A7"/>
<path d="M103.758 97.3101V94.1993C103.758 89.0643 99.5902 84.8968 94.4551 84.8968H91.7165V83.2595C93.7556 81.9199 95.1696 79.7022 95.3631 77.1272C96.911 76.6658 98.0273 75.2221 98.0273 73.5402C98.0273 72.2452 97.3575 71.0992 96.3454 70.4294C97.2087 69.4619 98.1613 68.0479 98.3548 66.4404C98.5036 65.1455 98.1315 63.9399 97.2682 62.8682C95.3333 60.4719 93.0858 59.1621 90.5853 58.9686C87.5935 58.7304 85.1228 60.2189 83.9767 61.0524C83.1283 60.6207 82.2055 60.5314 81.3273 60.8142C79.8687 61.2607 78.8417 62.5854 78.4993 63.6124C78.2314 64.4311 78.1124 66.2023 78.2165 67.8247C78.2761 68.8219 78.41 69.6107 78.6184 70.2508C77.4426 70.8908 76.6239 72.1113 76.6239 73.555C76.6239 75.2518 77.7403 76.6807 79.2882 77.1421C79.4817 79.7022 80.8957 81.9348 82.9348 83.2744V84.9116H80.1961C75.0611 84.9116 70.8936 89.0792 70.8936 94.2142V97.325C70.8936 97.9353 71.3996 98.4413 72.0099 98.4413H102.656C103.252 98.4264 103.758 97.9352 103.758 97.3101ZM80.6278 64.2971C80.7617 63.8804 81.2827 63.1659 81.9822 62.9427C82.1013 62.9129 82.2204 62.8831 82.3543 62.8831C82.6818 62.8831 83.0241 63.0171 83.3665 63.285C83.7981 63.6273 84.4083 63.5976 84.8102 63.2403C84.84 63.2106 87.3703 60.9482 90.4513 61.2012C92.2969 61.3501 94.0086 62.3771 95.5566 64.2673C96.0329 64.8627 96.2412 65.4878 96.1519 66.1725C96.018 67.3484 95.0952 68.554 94.3509 69.3131C94.2616 69.2386 94.1723 69.1493 94.0681 69.06C94.0235 69.0303 93.9937 68.9856 93.9491 68.9558C93.7705 68.807 93.577 68.6582 93.3686 68.4944C93.3388 68.4647 93.2942 68.4498 93.2644 68.42C93.0858 68.3009 92.8923 68.167 92.6839 68.0479C92.6095 68.0033 92.5202 67.9586 92.4309 67.914C92.2523 67.8247 92.0886 67.7205 91.8951 67.646C91.7909 67.6014 91.6867 67.5567 91.5825 67.5121C91.389 67.4377 91.1955 67.3632 91.002 67.3037C90.8829 67.2591 90.7788 67.2293 90.6448 67.1995C90.4215 67.14 90.1983 67.0953 89.9601 67.0507C89.8411 67.0358 89.7369 67.006 89.6178 66.9911C89.2606 66.9465 88.9034 66.9018 88.5164 66.9018C88.0996 66.9018 87.7275 66.8423 87.3852 66.7679C87.2214 66.7232 87.0726 66.6637 86.9089 66.6042C86.7303 66.5446 86.5517 66.4851 86.3879 66.4107C86.2391 66.3362 86.0903 66.232 85.9414 66.1427C85.8075 66.0534 85.6586 65.9641 85.5395 65.8748C85.3312 65.7111 85.1526 65.5325 84.9739 65.339C84.9591 65.3241 84.9293 65.2943 84.9144 65.2795C84.8995 65.2646 84.8698 65.2497 84.8549 65.2199C84.6018 64.9222 84.2297 64.7883 83.8427 64.8329C83.5748 64.8627 83.3665 65.0264 83.1878 65.2199C83.1283 65.2795 83.0837 65.339 83.039 65.3985C83.0241 65.4283 82.9944 65.4432 82.9795 65.473C82.9497 65.5474 82.905 65.6218 82.8753 65.6962C82.7413 65.9939 82.6074 66.2618 82.4883 66.5148C82.4288 66.6339 82.3841 66.7381 82.3246 66.8423C82.2353 67.0209 82.146 67.1995 82.0567 67.3632C82.012 67.4674 81.9525 67.5567 81.9078 67.646C81.8185 67.8098 81.7292 67.9735 81.6399 68.1223C81.6101 68.167 81.5804 68.2414 81.5506 68.2861C81.4464 68.4647 81.3571 68.6135 81.2529 68.7624C81.2083 68.8219 81.1785 68.8665 81.1487 68.9261C81.0892 69.0005 81.0445 69.0898 80.9999 69.1493C80.9701 69.194 80.9403 69.2386 80.9106 69.2833C80.8659 69.3428 80.8213 69.4024 80.7915 69.447C80.7617 69.4768 80.7468 69.5066 80.7171 69.5363C80.7171 69.5363 80.7171 69.5363 80.7022 69.5512C80.345 68.3158 80.3003 65.2943 80.6278 64.2971ZM81.4911 76.517V76.1895C81.4911 75.5793 80.985 75.0732 80.3747 75.0732C79.5412 75.0732 78.8566 74.3886 78.8566 73.555C78.8566 72.7513 79.4817 72.0964 80.2706 72.0369C80.3301 72.0517 80.3896 72.0369 80.4492 72.0517C80.4938 72.0517 80.5385 72.0666 80.5831 72.0666C80.6129 72.0666 80.6427 72.0517 80.6724 72.0517C80.7468 72.0517 80.8064 72.0369 80.8808 72.022C80.9701 72.0071 81.0445 71.9922 81.1338 71.9624C81.2083 71.9327 81.2827 71.9029 81.3422 71.8731C81.4315 71.8285 81.5059 71.7838 81.5952 71.7243C81.6697 71.6796 81.7441 71.635 81.8185 71.5755C81.9078 71.5159 81.9822 71.4266 82.0715 71.3522C82.146 71.2778 82.2204 71.2182 82.2948 71.1289C82.3841 71.0396 82.4734 70.9206 82.5627 70.8164C82.6371 70.7271 82.7116 70.6378 82.786 70.5336C82.8753 70.4145 82.9646 70.2656 83.0539 70.1317C83.1283 70.0126 83.2027 69.9084 83.292 69.7745C83.3813 69.6256 83.4855 69.447 83.5897 69.2833C83.6641 69.1493 83.7534 69.0154 83.8279 68.8665C83.9469 68.6433 84.0809 68.3902 84.2149 68.1372C84.2744 68.0181 84.3339 67.9288 84.3786 67.8098C85.5693 68.6879 86.9982 69.1493 88.5313 69.1493C88.9034 69.1493 89.2606 69.194 89.588 69.2535C89.7071 69.2833 89.8262 69.3279 89.9304 69.3577C90.1387 69.4173 90.3471 69.4619 90.5257 69.5363C90.6597 69.5959 90.7936 69.6554 90.9127 69.7149C91.0616 69.7894 91.2104 69.8489 91.3444 69.9233C91.4783 69.9977 91.5974 70.087 91.7313 70.1615C91.8355 70.2359 91.9546 70.2954 92.0439 70.355C92.1779 70.4591 92.2969 70.5484 92.4011 70.6378C92.4607 70.6824 92.5351 70.7419 92.5946 70.7866C92.7137 70.8908 92.8179 70.995 92.9072 71.0843C92.937 71.114 92.9816 71.1438 92.9965 71.1736C93.1007 71.2778 93.19 71.3671 93.2495 71.4415L93.2644 71.4564C93.3239 71.5308 93.3537 71.5755 93.3686 71.5755C93.3686 71.5755 93.3835 71.5755 93.3835 71.5903C93.4728 71.7094 93.6067 71.8136 93.7407 71.888C93.7853 71.9178 93.8449 71.9178 93.8895 71.9327C93.964 71.9624 94.0384 72.0071 94.1128 72.0071C94.1426 72.0071 94.1723 72.0071 94.2021 72.0071C94.2319 72.0071 94.2468 72.022 94.2616 72.022C95.0952 72.022 95.7798 72.7066 95.7798 73.5402C95.7798 74.3737 95.0952 75.0583 94.2616 75.0583C93.6514 75.0583 93.1453 75.5644 93.1453 76.1746V76.5021C93.1453 78.7198 91.8951 80.625 90.0792 81.6074H90.0643C89.6624 81.8306 89.2457 81.9795 88.8289 82.0985C88.7843 82.1134 88.7396 82.1283 88.6801 82.1432C88.5313 82.1878 88.3824 82.2027 88.2485 82.2325C87.9805 82.2771 87.6977 82.3069 87.4149 82.3218C87.3554 82.3218 87.2959 82.3218 87.2363 82.3218C86.9535 82.3218 86.6707 82.2771 86.4028 82.2325C86.254 82.2027 86.1051 82.1878 85.9712 82.1432C85.9265 82.1283 85.867 82.1134 85.8223 82.0985C85.4056 81.9795 85.0037 81.8157 84.6018 81.6074H84.587C82.7413 80.625 81.4911 78.7198 81.4911 76.517ZM86.0158 84.4502C86.4475 84.5246 86.8791 84.5693 87.3108 84.5693H87.3256H87.3405C87.7722 84.5693 88.2038 84.5246 88.6354 84.4502C88.8438 84.4205 89.0373 84.3758 89.2308 84.3163C89.3201 84.3014 89.3945 84.2865 89.4838 84.2567V85.9982V86.2363C89.4838 87.4271 88.5164 88.3945 87.3256 88.3945C86.1349 88.3945 85.1674 87.4271 85.1674 86.2363V85.9982V84.2567C85.2419 84.2865 85.3312 84.2865 85.4205 84.3163C85.5991 84.3609 85.8075 84.4205 86.0158 84.4502ZM101.525 96.1938H73.1113V94.1993C73.1113 90.2997 76.2816 87.1294 80.1813 87.1294H83.0092C83.0092 87.1443 83.0092 87.1443 83.0241 87.1591C83.0837 87.4271 83.1581 87.6652 83.2623 87.9182C83.292 88.0075 83.3367 88.082 83.3813 88.1564C83.4558 88.3201 83.5451 88.4838 83.6344 88.6327C83.6939 88.722 83.7534 88.7964 83.813 88.8857C83.9172 89.0197 84.0065 89.1387 84.1255 89.2578C84.2 89.3322 84.2744 89.4066 84.3488 89.4811C84.4679 89.5853 84.587 89.6894 84.7209 89.7787C84.8102 89.8383 84.8995 89.8978 84.9888 89.9574C85.1228 90.0467 85.2716 90.1211 85.4205 90.1955C85.5098 90.2402 85.5991 90.2848 85.7033 90.3295C85.867 90.389 86.0456 90.4485 86.2242 90.4932C86.3135 90.523 86.3879 90.5527 86.4772 90.5676C86.7452 90.6271 87.028 90.6569 87.3108 90.6569C87.5936 90.6569 87.8763 90.6271 88.1443 90.5676C88.2336 90.5527 88.3229 90.523 88.3973 90.4932C88.5759 90.4485 88.7545 90.4039 88.9182 90.3295C89.0224 90.2848 89.1117 90.2402 89.201 90.1955C89.3499 90.1211 89.4987 90.0467 89.6327 89.9574C89.722 89.8978 89.8113 89.8383 89.9006 89.7787C90.0345 89.6894 90.1536 89.5853 90.2727 89.4811C90.3471 89.4066 90.4364 89.3322 90.496 89.2578C90.6001 89.1387 90.7043 89.0197 90.8085 88.8857C90.8681 88.7964 90.9276 88.722 90.9871 88.6327C91.0913 88.4838 91.1657 88.3201 91.2402 88.1564C91.2848 88.082 91.3295 88.0075 91.3592 87.9182C91.4634 87.6801 91.5378 87.4271 91.5974 87.1591C91.5974 87.1443 91.5974 87.1443 91.6123 87.1294H94.4402C98.3399 87.1294 101.51 90.2997 101.51 94.1993V96.1938H101.525Z" fill="#A7A7A7"/>
<path d="M84.8697 74.7309C85.4862 74.7309 85.986 74.2311 85.986 73.6146C85.986 72.9981 85.4862 72.4983 84.8697 72.4983C84.2532 72.4983 83.7534 72.9981 83.7534 73.6146C83.7534 74.2311 84.2532 74.7309 84.8697 74.7309Z" fill="#A7A7A7"/>
<path d="M89.7667 74.7309C90.3832 74.7309 90.883 74.2311 90.883 73.6146C90.883 72.9981 90.3832 72.4983 89.7667 72.4983C89.1502 72.4983 88.6504 72.9981 88.6504 73.6146C88.6504 74.2311 89.1502 74.7309 89.7667 74.7309Z" fill="#A7A7A7"/>
<path d="M94.1871 104.842H61.0848C60.4597 104.842 59.9685 105.333 59.9685 105.958C59.9685 106.583 60.4746 107.074 61.0848 107.074H94.202C94.8123 107.074 95.3183 106.568 95.3183 105.958C95.3183 105.348 94.8123 104.842 94.1871 104.842Z" fill="#A7A7A7"/>
<path d="M61.0848 113.102H92.3713C92.9815 113.102 93.4876 112.596 93.4876 111.986C93.4876 111.375 92.9815 110.869 92.3713 110.869H61.0848C60.4597 110.869 59.9685 111.375 59.9685 111.986C59.9685 112.596 60.4597 113.102 61.0848 113.102Z" fill="#A7A7A7"/>
<path d="M61.0848 119.145H92.5945C93.2048 119.145 93.7108 118.639 93.7108 118.029C93.7108 117.418 93.2048 116.912 92.5945 116.912H61.0848C60.4597 116.912 59.9685 117.404 59.9685 118.029C59.9685 118.654 60.4597 119.145 61.0848 119.145Z" fill="#A7A7A7"/>
<path d="M95.3034 124.072C95.3034 123.461 94.7974 122.955 94.1871 122.955H61.0848C60.4597 122.955 59.9685 123.446 59.9685 124.072C59.9685 124.697 60.4746 125.188 61.0848 125.188H94.202C94.8123 125.188 95.3034 124.682 95.3034 124.072Z" fill="#A7A7A7"/>
<path d="M79.2881 128.984H61.0848C60.4597 128.984 59.9685 129.49 59.9685 130.1C59.9685 130.71 60.4746 131.216 61.0848 131.216H79.303C79.9132 131.216 80.4193 130.71 80.4193 130.1C80.4193 129.49 79.9132 128.984 79.2881 128.984Z" fill="#A7A7A7"/>
<path d="M79.2881 135.027H61.0848C60.4597 135.027 59.9685 135.518 59.9685 136.143C59.9685 136.768 60.4746 137.259 61.0848 137.259H79.303C79.9132 137.259 80.4193 136.753 80.4193 136.143C80.4193 135.533 79.9132 135.027 79.2881 135.027Z" fill="#A7A7A7"/>
<path d="M120.871 108.023C120.439 107.591 119.725 107.591 119.293 108.023L114.396 112.92L109.499 108.023C109.067 107.591 108.353 107.591 107.921 108.023C107.49 108.455 107.49 109.169 107.921 109.601L112.818 114.512L107.921 119.409C107.49 119.841 107.49 120.555 107.921 120.987C108.145 121.21 108.427 121.314 108.71 121.314C108.993 121.314 109.276 121.21 109.499 120.987L114.396 116.09L119.293 120.987C119.516 121.21 119.799 121.314 120.082 121.314C120.365 121.314 120.647 121.21 120.871 120.987C121.302 120.555 121.302 119.841 120.871 119.409L115.974 114.512L120.871 109.601C121.302 109.169 121.302 108.469 120.871 108.023Z" fill="#A7A7A7"/>
</svg>
