<svg xmlns="http://www.w3.org/2000/svg" width="983.092" height="495.822" viewBox="0 0 983.092 495.822">
  <g id="host-party" transform="translate(-129.724 -267.572)">
    <path id="Path_316" data-name="Path 316" d="M347.423,895.317c.041.029,793.9-.094,793.9-.094s2.295-4.7,5.169-10.855c2.131-4.561,4.77-10.615,7.511-17.9v0q.767-2.031,1.54-4.191,1.081-3.03,2.162-6.293.4-1.207.8-2.447c1.587-4.956,3.131-10.275,4.555-15.9q.148-.589.3-1.183.8-3.231,1.543-6.6.411-1.866.8-3.77l.052-.262c.1-.471.189-.942.281-1.415a232.929,232.929,0,0,0,3.872-28.744q.187-2.655.308-5.354.126-2.721.177-5.482a191.636,191.636,0,0,0-2.509-35.325q-1.181-7.076-2.982-14.225-1.325-5.219-3.014-10.449c-.209-.648-.418-1.3-.642-1.951a166.76,166.76,0,0,0-9.828-23.248c-.355-.692-.718-1.39-1.09-2.084A171.029,171.029,0,0,0,1140.2,680.9q-.58-.846-1.177-1.686-3.314-4.692-7.055-9.322-5.446-6.749-11.856-13.327-8.877-9.1-17.6-16.554-3.588-3.086-7.153-5.9-3.052-2.424-6.087-4.651c-.113-.084-.232-.169-.346-.253q-7.02-5.158-13.912-9.365c-.939-.573-1.871-1.137-2.811-1.689q-6.762-3.985-13.4-7.142-1.447-.693-2.889-1.349c-30.247-13.766-58.284-15.559-83.087-13.278-19.175,1.764-36.421,5.967-51.254,8.964q-1.461.3-2.889.575c-9.656,1.875-18.231,3.11-25.588,2.631-11.743-.768-21.317-7.9-31.607-18.426q-1.125-1.151-2.261-2.352c-6-6.337-12.3-13.726-19.463-21.594q-1.958-2.154-4.011-4.351c-2.706-2.9-5.537-5.842-8.516-8.81-.459-.459-.922-.916-1.39-1.375q-1.508-1.483-3.075-2.971-.689-.659-1.389-1.314-5.08-4.766-10.758-9.513a215.085,215.085,0,0,0-63.985-36.767c-.014-.006-.026-.009-.038-.014a268.384,268.384,0,0,0-38.1-10.859,401.576,401.576,0,0,0-48.887-7.049q-6.135-.51-12.333-.843-6.649-.353-13.339-.5-4.011-.083-8.028-.087c-6.621-.011-13.246.148-19.829.486q-3.506.174-6.991.419c-28.485,2-55.93,7.389-79.088,17.027-16.242,6.755-77.437,36.982-95.391,88.113-5.671,16.138-7.031,34.357-1.314,54.578,20.236,71.557-10.575,80.463-49.126,114.564C322.723,802.428,306.154,863.837,347.423,895.317Z" transform="translate(-129.133 -142.227)" fill="#e7f3fe"/>
    <path id="Path_317" data-name="Path 317" d="M1174.793,1658.065h-23.545c-1.261-1.07.873-3.5,3.1-3.664a13.759,13.759,0,0,1,3.594.425c.324-4.3,2.174-23.649,9.148-22.872,7.84.871,0,8.52-2.217,13.048a107.772,107.772,0,0,0-4.165,10.434c.636.138,1.3.273,1.968.4,1.039-3.191,4.906-13.924,9.824-13.3,5.773.732,3.453,5.036-.639,7.59-3,1.878-6.689,4.548-8.441,5.838a25.017,25.017,0,0,0,4.6.369C1172.062,1656.238,1174.03,1657.426,1174.793,1658.065Z" transform="translate(-678.163 -906.096)" fill="#a8d29f"/>
    <g id="Group_3420" data-name="Group 3420" transform="translate(240.875 726.416)">
      <path id="Path_318" data-name="Path 318" d="M504.939,1659.212s-10.115-27.778-17.216-25.41S504.939,1659.212,504.939,1659.212Z" transform="translate(-477.766 -1633.659)" fill="#a8d29f"/>
      <path id="Path_319" data-name="Path 319" d="M494.187,1683.843c-.861,0-17-16.75-18.077-12.364S494.187,1683.843,494.187,1683.843Z" transform="translate(-470.888 -1658.289)" fill="#a8d29f"/>
      <path id="Path_320" data-name="Path 320" d="M501.164,1700.263s-6.675-6.12-15.126-4.527-12.061,3.338-17.369,2.131a7.858,7.858,0,0,0-8.02,2.4Z" transform="translate(-460.648 -1674.71)" fill="#a8d29f"/>
    </g>
    <path id="Path_321" data-name="Path 321" d="M2640.622,851.418l.036-.048A.136.136,0,0,0,2640.622,851.418Z" transform="translate(-1667.533 -387.711)" fill="#7f2722"/>
    <g id="Group_3421" data-name="Group 3421" transform="translate(633.239 439.69)">
      <path id="Path_322" data-name="Path 322" d="M1801.2,813.877s9.959-11.168-7.069-13.3-19.922-15.611-31.615-19.593c-10.82-3.685-29.894,4-31.647,7.258,0,0,4.586,13.54,1.31,24.46s15.288,22.495,21.839,21.184c0,0-11.356.941-16.761-2.259,0,0,9.172,8.736,19.819,4.815s20.238-6.05,21.912-.973S1801.2,813.877,1801.2,813.877Z" transform="translate(-1696.588 -780.008)" fill="#aa443e"/>
      <path id="Path_323" data-name="Path 323" d="M1881.8,1258.2c-2.437,9.753-4.095,17.343-2.414,21.208,4.013,9.235-5.4,43.193-10.99,61.5-2.179,7.131-3.777,11.888-3.777,11.888H1856.1s.2-4.77.462-11.888c.645-17.12,1.7-47.825,1.412-58.331-.4-14.872-9.074-91.574-9.074-91.574s1.311-.131,3.447-.321c9.218-.816,33.823-2.719,34.656.173C1893.695,1214.083,1886.373,1239.94,1881.8,1258.2Z" transform="translate(-1774.975 -1051.836)" fill="#ffb27d"/>
      <path id="Path_324" data-name="Path 324" d="M1888.386,1258.2c-10.66-5.241-26.9-24.071-26.9-24.071s-3.322-23.878-2.552-43.445c9.218-.816,33.823-2.719,34.656.173C1900.281,1214.083,1892.959,1239.94,1888.386,1258.2Z" transform="translate(-1781.561 -1051.836)" fill="#ed975d"/>
      <path id="Path_325" data-name="Path 325" d="M1862.927,941.583c.8-.221,1.65-3.184,2.332-6.355.822-3.811,1.412-7.913,1.412-7.913l3.646.071,9.743.188.8.016a45.562,45.562,0,0,0-.931,5.9,29.324,29.324,0,0,0,.231,7.944c.386,2.012,1.014,3.269,1.644,3.594C1882.344,945.267,1861.987,941.465,1862.927,941.583Z" transform="translate(-1784.269 -877.837)" fill="#ffb27d"/>
      <path id="Path_326" data-name="Path 326" d="M1887.621,941.037c-6.051-1.492-13.489-14.116-13.489-14.116a7.331,7.331,0,0,1,3.648.072c3.333.81,6.98,3.374,9.608,6.1A29.267,29.267,0,0,0,1887.621,941.037Z" transform="translate(-1791.732 -877.444)" fill="#ed975d"/>
      <path id="Path_327" data-name="Path 327" d="M1889.146,893.053s-17.392-.314-17.029-11.142-1.638-18.161,9.481-18.418,13.138,3.947,13.9,7.59S1893.68,892.856,1889.146,893.053Z" transform="translate(-1790.39 -835.444)" fill="#ffb27d"/>
      <path id="Path_328" data-name="Path 328" d="M1828.985,966.122s19.492.819,35.871,5.815c0,0,6.115,18.372,1.311,32.568s9.706,41.532,9.706,41.532-41.6,4.3-42.748-1.266S1818.667,992.166,1828.985,966.122Z" transform="translate(-1759.162 -903.61)" fill="#ffb27d"/>
      <path id="Path_329" data-name="Path 329" d="M1988.814,1295.247l-7.266,7.368-12.985-10.791c-15.767-13.107-40.313-33.536-40.555-33.87-15.511-15.639-43.1-89.628-43.1-89.628s4.016-8.223,25.09-9.025c8.606-.328,15.371,12.661,20.6,28.664,5.988,18.312,9.965,40.572,12.409,51.336a11.3,11.3,0,0,0,1.723,3.925,11.445,11.445,0,0,0,4.16,3.659c11.545,5.975,23.469,21.932,31.242,33.892C1985.443,1288.944,1988.814,1295.247,1988.814,1295.247Z" transform="translate(-1798.889 -1031.899)" fill="#ffb27d"/>
      <path id="Path_330" data-name="Path 330" d="M1931.52,870.735s27.439-12.749,29.134-15.441,2.074-35.27,1.419-39.857h4.259s8.3,35.8,5.9,44.536-36.707,26.882-36.707,26.882Z" transform="translate(-1829.844 -803.537)" fill="#ffb27d"/>
      <path id="Path_331" data-name="Path 331" d="M2005.414,1299.913c-4.9-.416-27.7-46.613-29.129-47.579a99.522,99.522,0,0,1,15-7.682c5.988,18.312,9.965,40.572,12.409,51.337A11.3,11.3,0,0,0,2005.414,1299.913Z" transform="translate(-1859.574 -1088.586)" fill="#ed975d"/>
      <path id="Path_332" data-name="Path 332" d="M1714.145,980.29s1.392-5.458-28.049,28.333l-26.905-13.254-2.586,2.885s27.551,24.936,31.132,23.807,26.408-21.358,26.408-21.358Z" transform="translate(-1647.268 -912.802)" fill="#ffb27d"/>
      <path id="Path_333" data-name="Path 333" d="M1851.162,1025.034c-8.871-11.482-14.07-26.973-17.136-39.134l-.08-.319c13.313-9.388,6.352-28.45,6.352-28.45-5.791,1.184-19.524,6.815-19.546,6.824h0s-4.9,6.624-11.9,5.641-8.523-8.825-8.527-8.847h0c-.021,0-6.983-1.413-11.154,0-2.535.859-18.864,14.417-18.973,15.728-.106,1.281,5.53,15.923,16.7,18.309-1.238,37.265,9.729,90.341,9.729,90.341,30.279,2.611,54.141-14.381,65.5-24.536a81.114,81.114,0,0,0,7.256-7.223A214.854,214.854,0,0,0,1851.162,1025.034Z" transform="translate(-1722.71 -897.639)" fill="#6bb7bf"/>
      <path id="Path_334" data-name="Path 334" d="M1908.537,929.966s.437,1.693,1.583,1.966,4.149.655,4.423.437a14.755,14.755,0,0,0,1.2-1.693S1910.939,929.474,1908.537,929.966Z" transform="translate(-1814.581 -879.519)" fill="#fff"/>
      <path id="Path_335" data-name="Path 335" d="M2016.773,793.841s-1.829-.464-2.1-3.521c-.182-2.044-1.092-3.419-.683-3.521.437-.109,1.663,2.174,2.129,2.675.395.424,1.31-6.715,2.293-6.552s3.331,1.365,2.621,10.92Z" transform="translate(-1884.544 -781.941)" fill="#ffb27d"/>
      <path id="Path_336" data-name="Path 336" d="M1640.73,1007.112s-3.5-5.813-4.55-6.963c-2.083-2.277-7.211-3.152-7.368-1.989s3.54,2.311,4.06,4.861c.144.708-1.518-.468-2.5-.877-.591-.246-.877.07-.535.441,1.741,1.89,2.835,3.929,4.327,4.526a19.428,19.428,0,0,1,3.979,2.885Z" transform="translate(-1628.808 -924.546)" fill="#ffb27d"/>
      <path id="Path_337" data-name="Path 337" d="M1844.345,1690.946c-4.151,1.169-7.427,3.865-9.719,5.611s-16.052,3.276-17.8,1.31,5.677-5.752,8.078-6.967,9.72-14.85,9.72-14.85h8.517S1848.492,1689.779,1844.345,1690.946Z" transform="translate(-1753.5 -1375.086)" fill="#ffb27d"/>
      <path id="Path_338" data-name="Path 338" d="M2188.04,1593.126c-3.275.268-3.6-6.5-8.15-10.1s-7.266-11.6-7.266-11.6l7.266-7.368s9.3,3.083,9.133,8.16,4.422,9.5,5.242,13.267S2191.316,1592.854,2188.04,1593.126Z" transform="translate(-1989.966 -1300.708)" fill="#ffb27d"/>
      <path id="Path_339" data-name="Path 339" d="M1871.079,856.457s-2.574,1.992-10.655,0-6.77,13.9-13.813,11.931-18.311-23.914-2.522-24.242S1868.685,846.983,1871.079,856.457Z" transform="translate(-1766.468 -822.588)" fill="#aa443e"/>
      <path id="Path_340" data-name="Path 340" d="M1994.146,1110.182a81.084,81.084,0,0,1-7.256,7.224c-33.433-12.566-28.6-74.723-28.6-74.723a2.334,2.334,0,0,1,.489.032c3.066,12.16,8.265,27.652,17.135,39.134A214.9,214.9,0,0,1,1994.146,1110.182Z" transform="translate(-1847.461 -954.453)" fill="#5ea7aa"/>
      <path id="Path_341" data-name="Path 341" d="M1843.966,1650.041a7.8,7.8,0,0,0,.013,4.866c1.317,3.98,3.424,11.674.365,12.534-4.151,1.169-7.427,3.865-9.719,5.612s-16.052,3.276-17.8,1.31,5.677-5.752,8.078-6.968c1.814-.915,6.422-8.9,8.577-12.767a9.841,9.841,0,0,0,1.236-4.4c.083-2.074.214-5.423.369-9.569,0,0,7.636,3.921,11.833,0C1845.689,1644.686,1844.643,1647.957,1843.966,1650.041Z" transform="translate(-1753.5 -1351.58)" fill="#c65447"/>
      <path id="Path_342" data-name="Path 342" d="M2162.366,1564.516c-3.276.268-3.6-6.5-8.15-10.1-3.281-2.6-5.61-7.489-6.653-10.01a7.269,7.269,0,0,0-2.076-2.809l-11.522-9.574s2.765-9.434,11.57-11.046c3.77,5.8,6.563,10.656,7.865,12.987a4.706,4.706,0,0,0,2.266,2.044c2.607,1.1,7.806,3.791,7.683,7.6-.163,5.078,4.423,9.5,5.242,13.267S2165.642,1564.244,2162.366,1564.516Z" transform="translate(-1964.291 -1272.098)" fill="#c65447"/>
    </g>
    <g id="Group_3422" data-name="Group 3422" transform="translate(1031.886 611.593)">
      <path id="Path_343" data-name="Path 343" d="M2829.1,1319.421a10.962,10.962,0,0,1-6.36,2.037,9.932,9.932,0,0,1-5.221-2.5l-1.844,3.582s4.718,2.569,8.615,1.624a10,10,0,0,0,3.934-2.515A3.415,3.415,0,0,0,2829.1,1319.421Z" transform="translate(-2815.673 -1309.836)" fill="#6bb7bf"/>
      <path id="Path_344" data-name="Path 344" d="M2846.938,1294.128l4.944-2.323s-.2,10.511-8.714,14.115C2843.168,1305.919,2848.3,1298.493,2846.938,1294.128Z" transform="translate(-2833.933 -1291.805)" fill="#86d1cd"/>
    </g>
    <g id="Group_3423" data-name="Group 3423" transform="translate(195.034 651.515)">
      <path id="Path_345" data-name="Path 345" d="M334.552,1428.444s-4.352-3.287-5.475-8.2c-.834-3.644,1.258-8.218,1.428-8.425l-5.832-1.161s-1.727,7.739,1.2,12.884a14.763,14.763,0,0,0,5.168,4.559A5.04,5.04,0,0,0,334.552,1428.444Z" transform="translate(-324.167 -1410.662)" fill="#6bb7bf"/>
      <path id="Path_346" data-name="Path 346" d="M349.144,1451.939l5.305,6.071s-15,3.982-23.569-6.627C330.88,1451.383,343.505,1455.652,349.144,1451.939Z" transform="translate(-328.625 -1437.706)" fill="#86d1cd"/>
    </g>
    <g id="Group_3424" data-name="Group 3424" transform="translate(750.545 363.213)">
      <path id="Path_347" data-name="Path 347" d="M1980.873,570.776s-.653-5.123,1.929-9.132c1.917-2.976,6.4-4.585,6.652-4.606l-3.072-4.719s-6.384,3.95-7.935,9.336a13.975,13.975,0,0,0,.332,6.517A4.77,4.77,0,0,0,1980.873,570.776Z" transform="translate(-1978.148 -552.319)" fill="#6bb7bf"/>
      <path id="Path_348" data-name="Path 348" d="M1989.887,595.527l-.6,7.61s-12.619-7.523-11.1-20.349C1978.18,582.788,1983.642,594.165,1989.887,595.527Z" transform="translate(-1978.054 -572.554)" fill="#86d1cd"/>
    </g>
    <g id="Group_3425" data-name="Group 3425" transform="translate(548.386 663.889)">
      <path id="Path_349" data-name="Path 349" d="M1383.121,1450.422s2.162-4.655,11.782-2.208c4.312,1.1,11.777,7.439,1.907,12.794-10.267,5.57-13.509-.25-13.509-.25s16.534-2.715,14.174-9.394c-2.6-7.371-9.532.61-9.532.61A12.715,12.715,0,0,0,1383.121,1450.422Z" transform="translate(-1380.79 -1447.503)" fill="#f1a34f"/>
      <path id="Path_350" data-name="Path 350" d="M1376.9,1473.13a5.126,5.126,0,0,1,1.108-6.54l4.1,3.269s-3.991,3.147,0,5.98C1382.115,1475.839,1377.479,1474.565,1376.9,1473.13Z" transform="translate(-1376.181 -1460.179)" fill="#db7714"/>
    </g>
    <g id="Group_3426" data-name="Group 3426" transform="translate(697.711 509.062)">
      <path id="Path_351" data-name="Path 351" d="M1836.038,989.045s5.622-3.905,9.841,1.917l4.635-1.994s-2.288-3.613-11.272-2.011C1833.365,988,1836.038,989.045,1836.038,989.045Z" transform="translate(-1830.502 -986.546)" fill="#5685d8"/>
      <path id="Path_352" data-name="Path 352" d="M1820.756,992.863s1.531-6.317,13.06-6.317c0,0-4.32.41-7.7,6.017Z" transform="translate(-1820.756 -986.546)" fill="#739af0"/>
    </g>
    <path id="Path_353" data-name="Path 353" d="M2291.848,1307.528s4.074-2.573,4.5-5.682c0,0,3.967.214,4.824,1.5,0,0-1.822,5.146-3.966,6.111C2297.208,1309.458,2292.384,1309.779,2291.848,1307.528Z" transform="translate(-1435.905 -686.88)" fill="#f1a34f"/>
    <path id="Path_354" data-name="Path 354" d="M1344.515,624.2s-2.642-1.669-2.92-3.685c0,0-2.573.139-3.129.974,0,0,1.182,3.337,2.573,3.963C1341.039,625.453,1344.167,625.661,1344.515,624.2Z" transform="translate(-802.747 -234.396)" fill="#ed7d2b"/>
    <path id="Path_355" data-name="Path 355" d="M2295.01,1479.519s3.61-2.28,3.99-5.035c0,0,3.515.19,4.274,1.33,0,0-1.614,4.56-3.515,5.415C2299.76,1481.229,2295.485,1481.514,2295.01,1479.519Z" transform="translate(-1438.006 -801.532)" fill="#86d1cd"/>
    <g id="Group_3427" data-name="Group 3427" transform="translate(505.117 399.514)">
      <path id="Path_356" data-name="Path 356" d="M1498.014,1386.658s17.158,5.956,22.81,5.206c0,0,.378-2.894-4.6-5.591s-9.257-11.7-11.958-11.014a25.339,25.339,0,0,0-6.271,3.119Z" transform="translate(-1413.813 -1135.125)" fill="#163560"/>
      <path id="Path_357" data-name="Path 357" d="M1563,1303.534s17.922-2.944,22.533-6.3c0,0-1.048-2.724-6.706-2.724s-13.713-5.868-15.763-3.982a25.368,25.368,0,0,0-4.025,5.731Z" transform="translate(-1454.352 -1078.632)" fill="#163560"/>
      <path id="Path_358" data-name="Path 358" d="M1334.255,1239.536q-7.327-.231-13.787-.619c-65.419-3.863-67.331-18.411-67.331-18.411-10.879-33.339,32.839-66.444,32.839-66.444s26.527-3.725,25.474,11.866-37.752,46.217-37.752,46.217c12.218,1.144,32.084,8.015,45.7,13.192,8.688,3.3,14.837,5.919,14.837,5.919a8.138,8.138,0,0,1,.987,4.2A12.675,12.675,0,0,1,1334.255,1239.536Z" transform="translate(-1250.041 -987.99)" fill="#1c468a"/>
      <path id="Path_359" data-name="Path 359" d="M1320.468,1238.917c-65.419-3.863-67.331-18.411-67.331-18.411-10.879-33.339,32.839-66.444,32.839-66.444s26.527-3.725,25.474,11.866-37.752,46.217-37.752,46.217c12.218,1.144,32.084,8.015,45.7,13.192C1321.043,1229.578,1322.118,1234.657,1320.468,1238.917Z" transform="translate(-1250.041 -987.99)" fill="#163560"/>
      <path id="Path_360" data-name="Path 360" d="M1397.128,1208.735l-.064.016c-56.313,15.208-76.184,14.986-81.908,13.842-2.539-.508-4.325-4.213-4.325-4.213-10.875-33.34,35.495-70.918,35.495-70.918s19.978-.9,25.553,8.208a10.109,10.109,0,0,1,1.4,6.116c-.677,10.042-15.874,24.512-26.607,33.541-5.672,4.774-10.1,8.025-10.475,8.3l-.02.014c18.732-11.561,56.926-2.165,56.926-2.165a12.008,12.008,0,0,1,2.919,2.861A10.41,10.41,0,0,1,1397.128,1208.735Z" transform="translate(-1288.414 -983.849)" fill="#1c468a"/>
      <path id="Path_361" data-name="Path 361" d="M1509.606,762.8c-2.075-.109-6.661,6.443-7.535,6.988s-.437-2.4-1.124-4.477-2.261,2.621-2.261,5.569a8.878,8.878,0,0,0,2.261,5.353,3.183,3.183,0,0,1-.495,1.444c-2.68,4.454-8.329,14.556-12.865,22.72-3.752,6.721-6.721,12.123-6.721,12.123a166.68,166.68,0,0,0-17.9,2.062c-6.1.99-11.546,2.1-14.6,2.762-1.609.331-2.557.537-2.557.537s-.371,1.113-.784,2.8c-.288,1.155-.577,2.639-.825,4.206-.742,5.485-.412,12.164,5.649,12.536a14.332,14.332,0,0,0,3.381-.248,62.025,62.025,0,0,0,12-3.3,188.351,188.351,0,0,0,19.38-8.289,55.5,55.5,0,0,0,7.175-4c.907-.783,3.052-6.638,5.4-13.772,3.835-11.67,8.288-26.8,8.989-29.236,0,0,6.152-10.106,6.37-11.526S1511.681,762.911,1509.606,762.8Z" transform="translate(-1377.901 -728.405)" fill="#ffb27d"/>
      <path id="Path_362" data-name="Path 362" d="M1347.758,670.333c-1.8-.491,8.026-10,1.8-9.937-4.989.052-10.489,10.761-10.489,10.761-.825,1.525-1.729,3.05-1.729,3.05-8.37,10.722-13.607,19.3-16.865,26.019-6.35,13.112-5.155,18.926-5.155,18.926a40.153,40.153,0,0,0,.536,7.876c1.691,12.659,7.093,30.885,8.329,35.008l.248.866,14.762-10.6a14.379,14.379,0,0,0-.041-3.5,56.065,56.065,0,0,0-1.9-8.907c-.041-.165-.124-.33-.165-.5-1.4-4.907-3.3-10.144-4.948-14.432-.289-.742-.536-1.443-.825-2.1a1.749,1.749,0,0,1-.165-.412c-1.608-4.042-2.8-6.8-2.8-6.8.495-1.072,1.031-2.144,1.526-3.257l.247-.618c.33-.742.66-1.485.948-2.227a4.322,4.322,0,0,1,.165-.412,2.5,2.5,0,0,0,.206-.494.128.128,0,0,0,.041-.083,265.38,265.38,0,0,0,10.432-31.874,2.93,2.93,0,0,1,.893-1.243c.017-.007,7.405-3.142,9.389-4.282S1349.56,670.824,1347.758,670.333Z" transform="translate(-1292.435 -660.396)" fill="#ffb27d"/>
      <path id="Path_363" data-name="Path 363" d="M1304.291,877.228s-19.964-20.712-37.04-33.309a44.586,44.586,0,0,1-1.8-7.356,8.859,8.859,0,0,0-.495,5.7c-4.638-3.268-8.976-5.812-12.531-7.026-1.2-6.948,5.489-14.25,5.489-14.25-5.742,2.327-8.07,9.987-8.831,13.5a7.009,7.009,0,0,0-1.72.056s-.577-23.461,35.257-23.461c13.943,0,11.945-24.223,31.79-22.484,0,0,21.672,4.235,17.626,23.136s2.6,23.136,4.914,27.372S1329.432,872.991,1304.291,877.228Z" transform="translate(-1247.358 -745.474)" fill="#aa443e"/>
      <path id="Path_364" data-name="Path 364" d="M1423.5,898.829l-20.9,8.276-2.219-9.261a37.721,37.721,0,0,1,.534-8.763,70.143,70.143,0,0,1,2.279-9.537c.028-.091.044-.138.044-.138l.538-.012,1.735-.047,11.747-.3a22.46,22.46,0,0,0-.773,4.885A17.308,17.308,0,0,0,1423.5,898.829Z" transform="translate(-1348.932 -805.605)" fill="#ffb27d"/>
      <path id="Path_365" data-name="Path 365" d="M1344.8,921.261s-28.083,15.539-6.536,78.451l44.9,2.447s-19.182-26.688-14.595-35.862,13.761-37.947,13.761-37.947Z" transform="translate(-1302.327 -833.641)" fill="#e5b0b4"/>
      <path id="Path_366" data-name="Path 366" d="M1410.849,818.678s-3.91,13.146-5.79,14.2-26.505,13.686-33.967,14.7a16.494,16.494,0,0,0-3.533.71l0,0a.58.58,0,0,0-.3.229.322.322,0,0,0-.022.057c-.528,1.389-7.139,23.912-7.293,29.887-.11,4.165,18.247,30.959,18.03,34a2.11,2.11,0,0,1-.185.745c-1.034,2.279-6.089,2.084-10.241-.091a65.84,65.84,0,0,0-10.568-4.309c-4.816-1.484-10.225-2.461-14.635-1.559-8.471,1.739-17.163-.434-20.205-9.776s-2.606-28.46-3.474-32.37-1.631-16.176,3.577-24.323h0a.012.012,0,0,1,0-.009s.651-1.3-.434-4.017-9.015-31.286-7.821-39.867a44.869,44.869,0,0,1,5.581-17.913,15.042,15.042,0,0,1,6.01,3.2c2.769,2.471,4.575,5.038,5.012,5.147,0,0-2.917,6.521-2.754,7.065s10.046,28.57,10.59,30.2c0,0,3.889-.337,4.732.508,0,0-.331,8.039,17.916,1.375,0,0,1.125-.182,1.179.761,0,0,23.533-3.758,31.719-4.344,0,0,.438-.049,2.967-4.781,3.008-5.627,4.245-6.959,4.245-6.959A10.405,10.405,0,0,1,1410.849,818.678Z" transform="translate(-1291.53 -739.143)" fill="#ffb93e"/>
      <path id="Path_367" data-name="Path 367" d="M1446.1,1050.086a2.108,2.108,0,0,1-.186.745c-1.034,2.279-6.089,2.084-10.241-.091a65.837,65.837,0,0,0-10.568-4.309c-2.907-7.23-6.919-18.2-8.449-27.127-2.332-13.6,16.025-30.692,18.706-33.1-.528,1.39-7.138,23.912-7.293,29.887C1427.956,1020.252,1446.313,1047.046,1446.1,1050.086Z" transform="translate(-1359.654 -876.768)" fill="#ffa412"/>
      <path id="Path_368" data-name="Path 368" d="M1417.688,884.417s-9.785,4.976-15.569,5.152a70.135,70.135,0,0,1,2.279-9.537,5.826,5.826,0,0,1,.582-.151,4.545,4.545,0,0,1,1.213-.094c.173.009.346.029.522.047C1411.571,880.4,1417.688,884.417,1417.688,884.417Z" transform="translate(-1350.138 -806.092)" fill="#ed975d"/>
      <path id="Path_369" data-name="Path 369" d="M1392.258,832.975s16.686,8.455,21.792-2.017,10.7-16.434.26-22.275-14.472-2.862-17.026.219S1388.049,830.505,1392.258,832.975Z" transform="translate(-1342.686 -756.658)" fill="#ffb27d"/>
      <path id="Path_370" data-name="Path 370" d="M1408.108,806.745s5.059,5.031,3.572,9.811.917,14.289,7.437,15.375,14.27-20.95,5.691-25.186-22.6-6.331-26.828-1.009-2.605,12.052-2.605,12.052S1401.246,806.42,1408.108,806.745Z" transform="translate(-1345.454 -754.813)" fill="#aa443e"/>
      <path id="Path_371" data-name="Path 371" d="M1402.784,872.63s-.686,1.127-3.662-.052c0,0-2.5-.989-1.983-2.306A8.631,8.631,0,0,1,1402.784,872.63Z" transform="translate(-1346.783 -799.778)" fill="#fff"/>
    </g>
    <g id="Group_3429" data-name="Group 3429" transform="translate(318.185 442.613)">
      <path id="Path_372" data-name="Path 372" d="M913.723,819.562l-2.046-3.266c-8.138-10.879-4.919-16.483-2.418-19.346a19.709,19.709,0,0,1,7.112-5.08c.1-.044.207-.084.31-.126a15.973,15.973,0,0,1,4.247-1.61c17.342-8.636,28.047,24.713,25.864,27.5s-8.854,4.3-8.854,4.3a5.713,5.713,0,0,0,.452-1.358c-1.568,2.167-8.824,3.495-8.824,3.495a11.6,11.6,0,0,0,1.553-7.252l-4.153.793c-.445,3.23-1.471,6.462-2.764,8.112-2.531,3.229-9.026,4.307-9.026,4.307a4.233,4.233,0,0,0,.174-1.457c-.059.7-1.094,1.441-1.094,1.441a8.645,8.645,0,0,1-2.634-.164S915.344,828.857,913.723,819.562Z" transform="translate(-834.037 -788.711)" fill="#233862"/>
      <path id="Path_373" data-name="Path 373" d="M1001.321,935.65l.03.011C1001.4,935.654,1001.391,935.65,1001.321,935.65Z" transform="translate(-897.028 -886.296)" fill="#ffb27d"/>
      <path id="Path_374" data-name="Path 374" d="M939.438,889.536c-.243,2.183-.534,4.141-.664,5.073-.291,2.091,19.545.73,20.81.726-.881-.383-3.573-8.919-4.425-12.175-1.032-3.949-1.843-8.215-1.843-8.215l-14.007.885-.833.051a48.666,48.666,0,0,1,1.139,5.387c.033.225.067.454.1.675A36.375,36.375,0,0,1,939.438,889.536Z" transform="translate(-855.291 -845.981)" fill="#ffb27d"/>
      <path id="Path_375" data-name="Path 375" d="M941.341,890.329c9.8-2.87,13.956-14.188,13.956-14.188-4.144.122-9.543,3-13.779,5.922.033.225.066.454.1.675A36.367,36.367,0,0,1,941.341,890.329Z" transform="translate(-857.194 -846.775)" fill="#ed975d"/>
      <path id="Path_376" data-name="Path 376" d="M916.318,842.527s17.7-4.375,14.808-15.357-2.559-18.943-13.984-16.614-12.507,7.1-12.433,11S911.639,843.382,916.318,842.527Z" transform="translate(-832.864 -802.949)" fill="#ffb27d"/>
      <path id="Path_377" data-name="Path 377" d="M917.62,809.49s8.236,11.6,16.146,11.546,10.6-2.891,10.6-2.891a21.7,21.7,0,0,1-10.14-10.574S919.637,802.4,917.62,809.49Z" transform="translate(-841.441 -800.027)" fill="#233862"/>
      <path id="Path_378" data-name="Path 378" d="M906.907,816.345s-2.842,3.83-2.981,6.858.99,8.888-.739,9.137c0,0-5.954-7.792-3.179-13.826C902.95,812.115,906.907,816.345,906.907,816.345Z" transform="translate(-829.254 -806.153)" fill="#233862"/>
      <path id="Path_379" data-name="Path 379" d="M920.333,813.119s7.009,12.578,17.5,14.424c0,0-11.538-5.813-14.689-14.507S920.333,813.119,920.333,813.119Z" transform="translate(-843.235 -802.313)" fill="#233862"/>
      <path id="Path_380" data-name="Path 380" d="M934.019,885.556s-.221,1.672-1.287,2.067-3.9,1.111-4.185.934a14.193,14.193,0,0,1-1.348-1.481S931.661,885.365,934.019,885.556Z" transform="translate(-847.803 -853.017)" fill="#fff"/>
      <path id="Path_381" data-name="Path 381" d="M955.89,1275.883q.337,1.41.671,2.791c1.334,5.545,2.577,10.689,3.359,14.991,1.017,5.6,1.257,9.767-.078,11.518-5.5,7.208,0,64.409,0,64.409l6.257,6.445s10.877-56.475,13.826-65.324c1.342-4.023,3.3-21.2,5.022-38.744q.133-1.317.258-2.633c.3-3.068.586-6.124.863-9.107,1.549-16.6,2.707-30.805,2.707-30.805s-11.537-8.112-22.019-9.015c-6.176-.538-11.983,1.427-14.852,9.015C947.727,1240.465,951.96,1259.527,955.89,1275.883Z" transform="translate(-863.064 -1075.355)" fill="#ffb27d"/>
      <path id="Path_382" data-name="Path 382" d="M955.89,1275.883c8.572-6.191,20.632-17.208,25.009-35.267.837-8.978-6.242-17.51-14.143-20.2-6.176-.538-11.983,1.427-14.852,9.015C947.727,1240.465,951.96,1259.527,955.89,1275.883Z" transform="translate(-863.064 -1075.355)" fill="#ed975d"/>
      <path id="Path_383" data-name="Path 383" d="M790.815,1060.98l-42.128,10.882v4.919s41.923-.492,44.627-5.162S790.815,1060.98,790.815,1060.98Z" transform="translate(-729.249 -969.53)" fill="#ffb27d"/>
      <path id="Path_384" data-name="Path 384" d="M748.691,1308.983l1.969,8.13s56.987-29.434,64.357-35.086c2.961-2.271,6.873-14.6,10.5-28.556,5.4-20.8,10.154-45.185,10.154-45.185s-7.99-30.724-29.375-11.92c-12.8,11.253-10.807,32.936-9.406,49.8.933,11.316,1.6,20.463-2.64,22.834-8.277,4.62-32.568,25.9-40.255,40.543Z" transform="translate(-729.252 -1055.395)" fill="#ffb27d"/>
      <path id="Path_385" data-name="Path 385" d="M1013.833,1004.592c14.883-3.787,31.243-26.876,31.243-26.876l-4.191-3.635c-4.339,5.115-22.378,13.925-22.378,13.925.1-4.681-.026-8.951-.322-12.837-2-26.411-11.958-35.211-14.676-37.142a6.549,6.549,0,0,0-.69-.444s-.01.192-.026.556c-.039.784-.112,2.366-.185,4.536C1002.056,958.84,1001.4,1007.76,1013.833,1004.592Z" transform="translate(-897.724 -887.579)" fill="#ffb27d"/>
      <path id="Path_386" data-name="Path 386" d="M1000.913,968.706c.771,18.842,3.59,37.5,11.793,36.3,10.055-1.468,12.674-10.853,13.208-17.829a40.1,40.1,0,0,0-.147-7.752s-4.948-.023-5.75-.76c-3.8-3.511-2.672-37.943-4.554-41.518s-14.089-5.87-14.089-5.87S1000.146,950.083,1000.913,968.706Z" transform="translate(-896.59 -883.39)" fill="#f99746"/>
      <path id="Path_387" data-name="Path 387" d="M1001.412,1017.144c.772,18.842,3.59,37.5,11.794,36.3,10.055-1.468,12.674-10.853,13.209-17.829-2.469-.124-6.815-.726-8.542-3.36-2.472-3.771-10.187-28.042-10.187-28.042S1004.652,1009.659,1001.412,1017.144Z" transform="translate(-897.088 -931.828)" fill="#ed7d2b"/>
      <path id="Path_388" data-name="Path 388" d="M809.955,961.7c-2.726,3.871-1.225,11.376,4.491,17.418,3.55,3.752,8.357,5.972,16.182,4.818,3.41-.5,12.941-5.883,13.943-12.443.179-1.19.28-1.885.28-1.885s4.338,4.345,4.5,5.165c.073.369.447,3.651.506,4.1a15.788,15.788,0,0,1-.318,2.536s20.728,9.065,37.863-1.258c0,0,4.886-41.87,1.377-48.837-1.744-3.462-11.525-10.2-14.931-13.18a5.442,5.442,0,0,1-1.332-3.99c.173-1.1-1.091-2.951-2.151-2.614-2.048.656-7.844,3.524-11.922,2.43-2.031-.54-4.607-2.888-6.576-2.35-2.407.657.135,6.449-1.229,6.524-1.879.092-12.031,2.123-12.883,3.76-.3.571-3.213,8.3-6.869,18.519a.094.094,0,0,0-.006.027C824.019,959.622,813.954,956.023,809.955,961.7Z" transform="translate(-769.062 -870.253)" fill="#f99746"/>
      <path id="Path_389" data-name="Path 389" d="M916.457,1053.327s.505-15.972,1.8-15.777,19.91,18.117,15.485,25.287S916.457,1053.327,916.457,1053.327Z" transform="translate(-840.668 -953.968)" fill="#ed7d2b"/>
      <path id="Path_390" data-name="Path 390" d="M874.111,1167.645a123.883,123.883,0,0,0,17.748,3.679c13.09,1.81,31.389,2.462,47.73-3.679,0,0,1.347-24.318-2.526-36.994s-5.682-18.744-5.682-18.744-15.514,3.889-31.27.873a51.138,51.138,0,0,1-6.608-1.708s-9.719,20.634-12.392,29.477S874.111,1167.645,874.111,1167.645Z" transform="translate(-812.545 -1002.797)" fill="#2b478b"/>
      <path id="Path_391" data-name="Path 391" d="M874.111,1167.645a123.883,123.883,0,0,0,17.748,3.679c19.386-10.993,9.933-57.25,9.933-57.25q-.863-.7-1.68-1.294a51.138,51.138,0,0,1-6.608-1.708s-9.719,20.634-12.392,29.477S874.111,1167.645,874.111,1167.645Z" transform="translate(-812.545 -1002.797)" fill="#233862"/>
      <g id="Group_3428" data-name="Group 3428" transform="translate(80.289 104.05)">
        <path id="Path_392" data-name="Path 392" d="M951.928,1108.13c11.493,0,16.229-3.955,16.58-4.224l.744-5.412c-.11.082-15.531,9.341-39.4.473l.506,4.1C939.539,1106.477,945.959,1108.13,951.928,1108.13Z" transform="translate(-929.856 -1098.493)" fill="#b64c41"/>
      </g>
      <path id="Path_393" data-name="Path 393" d="M711.048,1084.48s-7.729-3.807-10.8-4.176-8.234-.492-8.234,0,5.531,3.927,7.005,4.176,4.3,2.338,3.441,2.584-5.408-.8-5.469,0,2.765,1.29,3.257,1.905,2.212,1.352,4.978.983,5.824-.553,5.824-.553Z" transform="translate(-691.61 -982.147)" fill="#ffb27d"/>
      <path id="Path_394" data-name="Path 394" d="M1116.969,1023.318l4.2,3.665s7.463-5.452,7.821-7.687v-.224c0-2.324-4.737-7.151-8.67-7.33a2.118,2.118,0,0,0-1.073.269c-2.1,1.31-2.344,6.771-2.327,9.6C1116.928,1022.637,1116.969,1023.318,1116.969,1023.318Z" transform="translate(-973.8 -936.83)" fill="#ffb27d"/>
      <path id="Path_395" data-name="Path 395" d="M748.691,1419.5l1.969,8.13s56.987-29.434,64.357-35.086c2.961-2.271,6.873-14.6,10.5-28.556-4.863,1-15.368,1.53-28.627-7.3.933,11.316,1.6,20.463-2.64,22.834-8.277,4.62-32.568,25.9-40.255,40.543Z" transform="translate(-729.252 -1165.911)" fill="#2b478b"/>
      <path id="Path_396" data-name="Path 396" d="M698.99,1530.971s.017,0,.051-.011a3.557,3.557,0,0,0,2.2-2.315c.512-1.228.666-2.235,1.135-3.45l1.924-3.321c2.013-2.65,2.719-2.029,2.719-2.029s.526.675,1.3,1.565c1.284,1.468,3.253,3.516,4.646,4.042a4.049,4.049,0,0,1,1.99,1.558,3.838,3.838,0,0,1,.594,1.365s-4.132.72-3.772,2.756c.7,3.941.536,4.658.464,4.787l-.025.027s-7.047,3.689-9.3,4.413c-4.01,1.285-6.1,4.011-7.4,5.256a2.32,2.32,0,0,1-1.973.621c-1.057-.167-2.429-.506-2.73-1.155Z" transform="translate(-690.816 -1274.228)" fill="#f99746"/>
      <path id="Path_397" data-name="Path 397" d="M972.461,1407.294c-5.5,7.208,0,64.409,0,64.409l6.257,6.445s10.876-56.475,13.826-65.323c1.342-4.023,3.3-21.2,5.022-38.744-5.214,2.326-17.934,7.392-28.386,6.7,1.334,5.545,2.577,10.689,3.359,14.991C973.556,1401.376,973.8,1405.543,972.461,1407.294Z" transform="translate(-875.683 -1177.466)" fill="#233862"/>
      <path id="Path_398" data-name="Path 398" d="M955.949,1669.837l3.375,1.827c1.227.434,2.239.558,3.481,1.035a7.2,7.2,0,0,1,3.277,2.4c.952,3.871,2.3,3.626,2.3,3.626l13.561.127c.64-.319-.444-3.057-.964-3.568-1.282-1.264-5.119-.628-6.519-4.6-.789-2.232-4.681-9.169-4.681-9.169l-.028-.024c-.131-.068-.852-.213-4.771.6-2.025.419-2.864-3.691-2.864-3.691a3.842,3.842,0,0,0-1.348.633,4.051,4.051,0,0,0-1.5,2.035c-.485,1.408-2.475,3.435-3.906,4.761-.867.8-1.526,1.348-1.526,1.348S953.242,1667.9,955.949,1669.837Z" transform="translate(-865.459 -1366.288)" fill="#f99746"/>
    </g>
    <rect id="Rectangle_1663" data-name="Rectangle 1663" width="983.092" height="2.516" rx="1.258" transform="translate(129.724 750.777)" fill="#233862"/>
    <g id="Group_3431" data-name="Group 3431" transform="translate(234.294 341.221)">
      <path id="Path_399" data-name="Path 399" d="M505.369,503.428a25.807,25.807,0,0,1,3.559,7.925c5.569,19.94-2.961,53.624-2.961,53.624s-45.8-4.5-57.7-21.436c-8.993-12.8-9.394-28.9-2.237-40.786a32.7,32.7,0,0,1,9.251-9.932C471.05,481.746,493.475,486.5,505.369,503.428Z" transform="translate(-441.053 -486.842)" fill="#86d1cd"/>
      <path id="Path_400" data-name="Path 400" d="M634.319,716.435s2.569,5.04,4.525,4.125,3.4-4.444,2.513-5.417S634.319,716.435,634.319,716.435Z" transform="translate(-569.404 -638.299)" fill="#86d1cd"/>
      <path id="Path_401" data-name="Path 401" d="M633.25,717.519l-.93.654a.445.445,0,0,1-.618-.108h0a.444.444,0,0,1,.108-.617l.93-.653a.444.444,0,0,1,.617.108h0A.444.444,0,0,1,633.25,717.519Z" transform="translate(-567.614 -639.504)" fill="#f99746"/>
      <g id="Group_3430" data-name="Group 3430" transform="translate(64.196 78.308)">
        <path id="Path_402" data-name="Path 402" d="M673.777,765.35a4.863,4.863,0,0,0-1.347-1.672,1.314,1.314,0,0,0-1.183-.253c.076-.179,7.6-17.993,4.634-25.6-1.61-4.125-12.482-.532-21.217,2.354-7.705,2.546-13.813,5.752-15.983,3.1-2.014-2.463,1.111-8.495,3.225-13.334,1.245-2.849,2.656-6.079,2.055-6.718-.732-.779-3.184.593-5.155,1.694-2.465,1.378-4.595,2.568-5.635,1.547-1.865-1.831-.54-6.3-.483-6.486l.217.066c-.013.042-.75,4.371.792,5.885.639.628,2.914-.644,4.743-1.666,2.538-1.419,5.562-3.287,6.7-2.082.9.953-.719,3.889-2.542,8.061-1.93,4.417-4.331,9.914-2.652,12.074,1.2,1.539,7.953-.693,14.487-2.852,9.971-3.295,21.161-7.428,23.03-2.641,1.3,3.328.9,8.935-.539,16.786A93.71,93.71,0,0,1,673.777,765.35Z" transform="translate(-632.181 -719.983)" fill="#f99746"/>
      </g>
      <path id="Path_403" data-name="Path 403" d="M510.447,503.428a25.8,25.8,0,0,1,3.559,7.925c-.058,13.883-11.064,24.686-32.845,26.331-45.1,3.407-30.051-34.927-30.051-34.927v0a32.7,32.7,0,0,1,9.251-9.932C476.127,481.746,498.552,486.5,510.447,503.428Z" transform="translate(-446.13 -486.842)" fill="#abddda"/>
      <path id="Path_404" data-name="Path 404" d="M538.534,503.836c-.263,2.063-6.721,5.293-11.641,4.665s-7.4-4.289-7.406-6.369c-.01-3.984,5.84-4.832,10.76-4.2S538.8,501.772,538.534,503.836Z" transform="translate(-493.142 -494.08)" fill="#c5efeb"/>
    </g>
    <g id="Group_3433" data-name="Group 3433" transform="translate(694.773 267.572)">
      <path id="Path_405" data-name="Path 405" d="M1898.856,308.44a32.242,32.242,0,0,1-.594,10.837c-5.251,25.325-34.033,57.821-34.033,57.821s-48.259-31.262-51.752-56.877c-2.641-19.366,6.147-37.468,20.9-46.552a40.849,40.849,0,0,1,15.962-5.719C1873.2,264.7,1895.363,282.825,1898.856,308.44Z" transform="translate(-1812.01 -267.572)" fill="#ed7d2b"/>
      <path id="Path_406" data-name="Path 406" d="M1967.475,593.659s-.038,7.067,2.657,7.173,6.322-2.983,5.9-4.572S1967.475,593.659,1967.475,593.659Z" transform="translate(-1915.257 -484.132)" fill="#ed7d2b"/>
      <path id="Path_407" data-name="Path 407" d="M1966.042,592.315l-1.407.192a.555.555,0,0,1-.624-.474h0a.555.555,0,0,1,.474-.623l1.407-.192a.556.556,0,0,1,.623.474h0A.555.555,0,0,1,1966.042,592.315Z" transform="translate(-1912.954 -482.507)" fill="#1c468a"/>
      <g id="Group_3432" data-name="Group 3432" transform="translate(45.113 109.599)">
        <path id="Path_408" data-name="Path 408" d="M1972.687,667.786a6.071,6.071,0,0,0-.536-2.628,1.641,1.641,0,0,0-1.167-.959c.187-.155,18.756-15.611,19.82-25.755.578-5.5-13.548-7.748-24.9-9.553-10.012-1.592-18.63-1.536-19.517-5.725-.823-3.889,6.1-8.791,11.225-12.95,3.016-2.449,6.434-5.225,6.134-6.278-.366-1.283-3.874-1.168-6.693-1.075-3.527.116-6.572.216-7.141-1.514-1.02-3.1,3.011-7.3,3.183-7.476l.2.2c-.038.039-3.339,4.422-2.5,6.986.349,1.063,3.6.956,6.219.87,3.631-.119,8.059-.46,8.625,1.529.448,1.572-3.028,3.9-7.443,7.49-4.674,3.8-10.492,8.521-9.865,11.88.446,2.4,9.225,3.791,17.713,5.141,12.957,2.061,27.747,3.889,27.076,10.274-.466,4.439-4.127,10.432-10.223,18.322A117.008,117.008,0,0,1,1972.687,667.786Z" transform="translate(-1946.321 -593.873)" fill="#1c468a"/>
      </g>
      <path id="Path_409" data-name="Path 409" d="M1913.758,308.44a32.248,32.248,0,0,1-.594,10.837c-8.025,15.376-26.435,21.055-51.554,10.392-52.013-22.079-13.328-56-13.328-56v0a40.851,40.851,0,0,1,15.962-5.719C1888.1,264.7,1910.264,282.825,1913.758,308.44Z" transform="translate(-1826.912 -267.572)" fill="#f99746"/>
      <path id="Path_410" data-name="Path 410" d="M1978.82,304.289c-1.476,2.14-10.5,2.021-15.6-1.5s-5.754-9-4.567-11.316c2.273-4.428,9.252-2.015,14.353,1.5S1980.3,302.15,1978.82,304.289Z" transform="translate(-1909.064 -281.854)" fill="#ffb680"/>
    </g>
    <g id="Group_3435" data-name="Group 3435" transform="translate(880.957 324.68)">
      <path id="Path_411" data-name="Path 411" d="M2467.388,480.039a19.293,19.293,0,0,1-4.685,4.5c-12.638,8.929-38.492,11.385-38.492,11.385s-8.335-33.376.6-46c6.753-9.546,17.988-13.873,28.149-11.819a24.438,24.438,0,0,1,9.315,4.018C2474.031,450.434,2476.321,467.412,2467.388,480.039Z" transform="translate(-2402.421 -437.597)" fill="#ffa412"/>
      <path id="Path_412" data-name="Path 412" d="M2427.181,611.236s-2.9,3.074-1.767,4.221,3.982,1.277,4.444.408S2427.181,611.236,2427.181,611.236Z" transform="translate(-2405.391 -552.914)" fill="#ffa412"/>
      <path id="Path_413" data-name="Path 413" d="M2430.341,610.5l-.693-.49a.332.332,0,0,1-.079-.462h0a.332.332,0,0,1,.462-.079l.693.491a.332.332,0,0,1,.079.462h0A.332.332,0,0,1,2430.341,610.5Z" transform="translate(-2408.285 -551.7)" fill="#f99746"/>
      <g id="Group_3434" data-name="Group 3434" transform="translate(0 58.219)">
        <path id="Path_414" data-name="Path 414" d="M2366.322,651.246a3.635,3.635,0,0,0,.839-1.368.984.984,0,0,0-.119-.9c.145.009,14.575.833,19.183-3.167,2.5-2.17-2.76-8.92-6.986-14.345-3.728-4.785-7.519-8.279-6.2-10.473,1.228-2.037,6.259-1.351,10.2-1.079,2.319.161,4.947.343,5.246-.24.364-.71-1.217-2.093-2.488-3.2-1.59-1.389-2.962-2.589-2.5-3.578.821-1.773,4.3-1.962,4.445-1.969l.008.169c-.033,0-3.265.57-3.943,2.036-.281.607,1.186,1.89,2.364,2.92,1.637,1.43,3.712,3.09,3.147,4.19-.446.87-2.918.471-6.313.235-3.594-.249-8.067-.559-9.165,1.166-.783,1.23,2.485,5.424,5.646,9.481,4.824,6.192,10.544,13.031,7.643,15.549-2.016,1.751-6.065,2.877-11.952,3.837A70.01,70.01,0,0,1,2366.322,651.246Z" transform="translate(-2366.322 -610.928)" fill="#f99746"/>
      </g>
      <path id="Path_415" data-name="Path 415" d="M2490.548,481.026a19.3,19.3,0,0,1-4.685,4.5c-9.788,3.446-20.157-1.588-26.786-16.508-13.726-30.893,17.039-29.927,17.039-29.927v0a24.44,24.44,0,0,1,9.315,4.017C2497.19,451.42,2499.48,468.4,2490.548,481.026Z" transform="translate(-2425.58 -438.584)" fill="#ffb93e"/>
      <path id="Path_416" data-name="Path 416" d="M2547.272,491.508c-1.519.333-5.414-3.4-6.208-7.023s1.161-6.287,2.624-6.813c2.8-1.008,4.868,2.9,5.662,6.518S2548.791,491.175,2547.272,491.508Z" transform="translate(-2482.25 -464.105)" fill="#ffd599"/>
    </g>
    <g id="Group_3438" data-name="Group 3438" transform="translate(800.354 461.118)">
      <path id="Path_417" data-name="Path 417" d="M2141.324,1091.194s-2.86-3.471-4.4-3.958-4.515-2.791-4.9-1.841,2,2.413,1.875,3.5-7.6,2.828-7.549,3.976a4.414,4.414,0,0,0,4.606,3.605c2.849-.319,10.073-2.033,11.557-1.293S2141.324,1091.194,2141.324,1091.194Z" transform="translate(-2126.348 -1004.098)" fill="#ffb27d"/>
      <path id="Path_418" data-name="Path 418" d="M2307.862,1672.949h30.865c2.212-1.5-.6-16.162-.6-16.162s-8.424-3.2-9.879,3.3-10.729,8.561-15.635,9.353C2309.259,1669.99,2308.2,1671.834,2307.862,1672.949Z" transform="translate(-2246.895 -1383.199)" fill="#233862"/>
      <path id="Path_419" data-name="Path 419" d="M2332.586,1256.395s1.387,17.308,3.018,38.114c2.216,28.263,8.194,98.337,8.194,98.337s3.918,3.343,12.6,1.514a274.313,274.313,0,0,0,9.6-51.766c.034-.452.069-.908.1-1.363,2.055-28.088,5.251-87.234,5.251-87.234Z" transform="translate(-2263.314 -1116.221)" fill="#6bb7bf"/>
      <path id="Path_420" data-name="Path 420" d="M2331.175,1243.329s1.861,23.29,3.491,44.095l30.39,48.086c.034-.452.069-.908.1-1.364,2.055-28.088,5.251-87.234,5.251-87.234Z" transform="translate(-2262.377 -1109.136)" fill="#599dad"/>
      <path id="Path_421" data-name="Path 421" d="M2384.44,959.913a13.757,13.757,0,0,0,9.5,1.278,19.688,19.688,0,0,0,6.433-2.715,18.961,18.961,0,0,0,2.6-1.955s-.113-.165-.305-.488c-.994-1.7-4.008-7.813-2.667-17.635a6.965,6.965,0,0,0-2.425.4c-4.374,1.036-13.166,3.529-13.555,3.64H2384s-.108,2.065-.47,5.768c-.03.326-.062.667-.1,1.021-.045.434-.09.9-.144,1.368C2382.877,954.446,2384.44,959.913,2384.44,959.913Z" transform="translate(-2296.94 -906.599)" fill="#ffb27d"/>
      <path id="Path_422" data-name="Path 422" d="M2384.139,949.083c6.529,1.5,16.273-8.142,16.273-8.142a10.3,10.3,0,0,0-2.233-1.266c-4.373,1.036-13.166,3.53-13.554,3.64h-.015S2384.5,945.38,2384.139,949.083Z" transform="translate(-2297.552 -907.473)" fill="#ed975d"/>
      <path id="Path_423" data-name="Path 423" d="M2373.958,895.954a33.218,33.218,0,0,0,6.107,1.423c5.005.676,11.587.278,13.655-5.778,3.483-10.193,7.931-16.305-2.317-20.467-5.486-2.228-9-2.346-11.38-1.5a8.243,8.243,0,0,0-4.217,3.65C2373.817,876.406,2369.813,894.17,2373.958,895.954Z" transform="translate(-2289.589 -860.635)" fill="#ffb27d"/>
      <g id="Group_3436" data-name="Group 3436" transform="translate(77.644 128.19)">
        <path id="Path_424" data-name="Path 424" d="M2577.508,1620.956s2.7,5.5,2.514,8.525c-.14,2.273-1.43,4.991-2.458,7.309a5.879,5.879,0,0,1-2.68,2.9c-2.028,1.029-5.147,3.138-5.98,6.644h13.725s5.773-11.573,9.883-13.255c3.565-1.46,3.548-7.308-.572-9.612-2-1.118-5.726-7.4-5.726-7.4Z" transform="translate(-2497.901 -1484.869)" fill="#233862"/>
        <path id="Path_425" data-name="Path 425" d="M2357.512,1231.492s23.836,72.513,36.5,82.568,43.575,50.651,43.575,50.651,8.938-4.1,10.428-8.193c0,0-23.277-53.351-34.45-57.533-9.894-3.7-2.792-61.294-22.947-71.328C2377.309,1221.031,2357.512,1231.492,2357.512,1231.492Z" transform="translate(-2357.512 -1225.458)" fill="#6bb7bf"/>
      </g>
      <path id="Path_426" data-name="Path 426" d="M2359.021,857.261c5.934,4.265,14.143.072,16.695,1.207s3.006,5.408,3.052,6.765.225,2.506,3.686,1.693a1.682,1.682,0,0,1,1.257.075c1.436.852-.4,4.981-.952,5.875,0,0-.8,2.958.971,4.4.214.172,3.686,1.69,12.053-11.115a11.891,11.891,0,0,0,.54-10.9c-2.028-4.36-10.508-8.573-17.7-10.807a9.627,9.627,0,0,0-6.256-.234c-2.607.953-4,3.417-5.376,5.892C2364.678,854.27,2359.021,857.261,2359.021,857.261Z" transform="translate(-2280.87 -843.805)" fill="#a9453d"/>
      <path id="Path_427" data-name="Path 427" d="M2245.423,1008.472c13.093-17.589-4.114-25.021-13.578-21.647-6.543,2.333-10.512,6.307-14.058,11.691-4.2,6.373-10.745,15.316-18.036,21.6l0,0,0-.005-32.445,2.841-.193,6.628c.513,1.469,24.449,3.521,30.469,5.448C2197.576,1035.028,2227.807,1032.138,2245.423,1008.472Z" transform="translate(-2153.417 -938.261)" fill="#f99746"/>
      <path id="Path_428" data-name="Path 428" d="M2326.6,1068.274a97.888,97.888,0,0,0,28.429,4.676,71.024,71.024,0,0,0,10.861-1.158c3.631-.614,6.5-1.237,6.5-1.237,3.11-.719,6.547-2.64,6.086-6.188-1.4-10.777-.494-39.009-1.209-56.641a9.487,9.487,0,0,1,2.152-5.846s.006,0,.006-.006c.359-.392-2.9-18.24-6.477-21.576-2.068-1.929-11.664-2.917-12.394-2.762-.219-.048-.437-.1-.665-.138,0,0-10.153,5.51-17.532,1.363,0,0-10.77,2.482-13.868,5.757a28.789,28.789,0,0,0-5.45,15.657c-.165,10.6.249,22.64.249,22.643C2322.545,1034.361,2318.62,1068.274,2326.6,1068.274Z" transform="translate(-2256.065 -932.528)" fill="#f99746"/>
      <path id="Path_429" data-name="Path 429" d="M2399.732,977.846s-11,11.342-18.859,9.019c0,0-1.047-1.532,2.493-2.023S2390.729,984.552,2399.732,977.846Z" transform="translate(-2295.286 -932.824)" fill="#ed7d2b"/>
      <path id="Path_430" data-name="Path 430" d="M2427.664,1120.2c3.631-.614,6.5-1.237,6.5-1.237,3.11-.718,6.546-2.64,6.086-6.188-1.4-10.776-.494-39.009-1.209-56.64a9.488,9.488,0,0,1,2.152-5.846c-3.43,3.03-12.759,12.625-19.693,19.789C2411.878,1080.017,2411.167,1098.147,2427.664,1120.2Z" transform="translate(-2317.834 -980.933)" fill="#ed7d2b"/>
      <path id="Path_431" data-name="Path 431" d="M2377.3,929.363s-.215,1.32,2.853,2.373c0,0,2.576.885,3.046-.469A8.743,8.743,0,0,0,2377.3,929.363Z" transform="translate(-2293.007 -900.625)" fill="#fff"/>
      <g id="Group_3437" data-name="Group 3437" transform="translate(79.246 92.401)">
        <path id="Path_432" data-name="Path 432" d="M2363.222,1141.366l2.584-.386c.992-.277,1.752-.722,1.781-1.677l.151-5.042a1.867,1.867,0,0,0-1.239-1.835c-2.464-.832-4.667-2.858-4.135-5.931,0,0,1.423-7.371,1.454-7.589l9.512.285c.018.218,1.171,7.668,1.171,7.668.566,2.82-2,5.016-4.528,5.685a1.717,1.717,0,0,0-1.3,1.6l-.153,5.11c-.03,1,.685,1.472,1.752,1.861l2.46.567c.191.006.2.24.011.234l-9.532-.286C2363.023,1141.623,2363.031,1141.453,2363.222,1141.366Z" transform="translate(-2362.284 -1118.906)" fill="#7693ce"/>
        <path id="Path_433" data-name="Path 433" d="M2363.668,1128.061a5.518,5.518,0,0,0,5.483,4.355c2.643.079,5.3-1.757,5.828-4.121a3.915,3.915,0,0,0,.048-1.41,9.825,9.825,0,0,0-.255-1.179c-.042-.147-1.041-6.5-1.041-6.5l-8.637-.26-1.345,6.835c-.025.108-.047.216-.063.325l-.025.118h.006c-.016.109-.034.214-.047.323A5.394,5.394,0,0,0,2363.668,1128.061Z" transform="translate(-2363.15 -1118.93)" fill="#ebf3fa"/>
        <path id="Path_434" data-name="Path 434" d="M2363.827,1145.955a5.518,5.518,0,0,0,5.483,4.355c2.643.079,5.3-1.757,5.828-4.121a23.434,23.434,0,0,0-6.292-.139A18.958,18.958,0,0,1,2363.827,1145.955Z" transform="translate(-2363.308 -1136.823)" fill="#c94c43"/>
        <path id="Path_435" data-name="Path 435" d="M2380.766,1128.62a3.9,3.9,0,0,0,.049-1.41,9.7,9.7,0,0,0-.254-1.179c-.042-.148-1.042-6.505-1.042-6.505l1.089.033s1,6.357,1.042,6.5a9.628,9.628,0,0,1,.254,1.179,3.893,3.893,0,0,1-.048,1.41c-.526,2.364-3.185,4.2-5.828,4.121-.189-.006-.376-.022-.562-.043A5.833,5.833,0,0,0,2380.766,1128.62Z" transform="translate(-2371.039 -1119.318)" fill="#fff" opacity="0.7"/>
      </g>
      <path id="Path_436" data-name="Path 436" d="M2380.153,1162.086s-8.8-3.9-11.033-2.647-5.028,5.586-3.771,7.262,15.363,0,15.363,0Z" transform="translate(-2284.865 -1053.258)" fill="#ffb27d"/>
      <path id="Path_437" data-name="Path 437" d="M2457.477,1047.421c-15.06-53.607-32.075-61.389-32.075-61.389s-8.054,12.6-8.737,19.863c-.552,5.876,16.143,26.744,23.278,34.1h0s-33.717,4.17-35.278,5.008-4.913,4.1-3.8,8.2c0,0,40.576,1.371,46.926.884C2458.129,1053.287,2457.477,1047.421,2457.477,1047.421Z" transform="translate(-2308.513 -938.261)" fill="#f99746"/>
    </g>
    <path id="Path_438" data-name="Path 438" d="M1230.741,652.584l-6.034,38.39a29.5,29.5,0,0,1-7.061-1.386c-12.871-4.111-20.246-15.508-20.246-15.508Z" transform="translate(-709.063 -255.693)" fill="#f99746"/>
    <path id="Path_439" data-name="Path 439" d="M1217.646,689.588c-12.871-4.111-20.246-15.508-20.246-15.508l33.34-21.5S1214.384,670.237,1217.646,689.588Z" transform="translate(-709.063 -255.693)" fill="#ed7d2b"/>
    <g id="Group_3439" data-name="Group 3439" transform="translate(973.107 436.397)">
      <path id="Path_440" data-name="Path 440" d="M2666.6,803.455a47.108,47.108,0,0,1-6.346.582c-13.14.446-19.575-4.648-19.575-4.648l18.815-29.184Z" transform="translate(-2640.676 -770.205)" fill="#f99746"/>
      <path id="Path_441" data-name="Path 441" d="M2660.251,804.037c-13.14.446-19.575-4.648-19.575-4.648l18.815-29.184S2656.81,794.026,2660.251,804.037Z" transform="translate(-2640.676 -770.205)" fill="#ed7d2b"/>
    </g>
    <g id="Group_3440" data-name="Group 3440" transform="translate(444.747 487.916)">
      <path id="Path_442" data-name="Path 442" d="M1116.6,996.205l-1.7.893-19.11-39.264h0Z" transform="translate(-1086.325 -946.332)" fill="#f99746"/>
      <path id="Path_443" data-name="Path 443" d="M1085.812,937.622s-3.882,1.513-5.572-1.637c0,0,2.01,3.675-.637,5.263a4.455,4.455,0,0,1,5.435,2.076S1082.891,939.749,1085.812,937.622Z" transform="translate(-1075.578 -931.821)" fill="#ffb93e"/>
      <path id="Path_444" data-name="Path 444" d="M1093.3,931.513s.341-2.594,1.624-2.713S1093.72,930.345,1093.3,931.513Z" transform="translate(-1084.678 -927.045)" fill="#ffb93e"/>
      <path id="Path_445" data-name="Path 445" d="M1098.981,946.314s2.557-.551,3.1.617S1100.221,946.313,1098.981,946.314Z" transform="translate(-1088.448 -938.595)" fill="#ffb93e"/>
      <path id="Path_446" data-name="Path 446" d="M1071.251,944.638s-3.768-.239-3.625.636S1069.762,944.667,1071.251,944.638Z" transform="translate(-1067.622 -937.548)" fill="#ffb93e"/>
      <path id="Path_447" data-name="Path 447" d="M1081.234,958.86s-2.885,2.436-2.175,2.969S1080.18,959.912,1081.234,958.86Z" transform="translate(-1075.143 -947.013)" fill="#ffb93e"/>
      <path id="Path_448" data-name="Path 448" d="M1084.105,927.28s-.292-4.073.735-3.662S1084.212,926.284,1084.105,927.28Z" transform="translate(-1078.543 -923.588)" fill="#ffb93e"/>
      <path id="Path_449" data-name="Path 449" d="M1074,931.493s-2.125-2.8-2.559-2.16S1074,931.493,1074,931.493Z" transform="translate(-1070.128 -927.339)" fill="#ffb93e"/>
    </g>
    <path id="Path_450" data-name="Path 450" d="M1125.48,1019.3c3.084,1.877,7.821,0,7.821,0v-.224c0-2.324-4.737-7.151-8.67-7.33a2.118,2.118,0,0,0-1.073.269C1123.335,1013.664,1123.022,1017.865,1125.48,1019.3Z" transform="translate(-659.925 -494.217)" fill="#ffb27d"/>
  </g>
</svg>
