<svg xmlns="http://www.w3.org/2000/svg" xmlns:xlink="http://www.w3.org/1999/xlink" width="901.149" height="536.057" viewBox="0 0 901.149 536.057">
  <defs>
    <clipPath id="clip-path">
      <path id="Path_211" data-name="Path 211" d="M548.267,692.7c-229.546-13.36-413.633-256.211-291.486-397.149,94.733-109.308,221.044,49.8,338.853-30.364,181.245-123.321,474.879-145.743,513.745,9.716S1019.5,673.271,923.556,687.846,548.267,692.7,548.267,692.7Z" transform="translate(-217.853 -165.452)" fill="none"/>
    </clipPath>
  </defs>
  <g id="bulk-upload-user" transform="translate(-217.853 -165.452)">
    <path id="Path_205" data-name="Path 205" d="M548.267,692.7c-229.546-13.36-413.633-256.211-291.486-397.149,94.733-109.308,221.044,49.8,338.853-30.364,181.245-123.321,474.879-145.743,513.745,9.716S1019.5,673.271,923.556,687.846,548.267,692.7,548.267,692.7Z" transform="translate(0 0)" fill="#e7f3fe"/>
    <path id="Path_206" data-name="Path 206" d="M605.979,402.627c2.429,58.3,1.822,89.875-19.433,114.166s-80.765,18.217-80.765,18.217-5.87,85.827-89.065,89.471S321.578,517.6,386.757,489.264c62.046-26.976,81.778-34.816,103.234-101.615,19.6-61.024,80.767-49.391,95.341-23.886S605.979,402.627,605.979,402.627Z" transform="translate(-27.955 -39.06)" fill="#303c60"/>
    <path id="Path_207" data-name="Path 207" d="M644.513,798.132s39.269,7.692,41.294,7.287,44.938-19.433,49.391-16.6,30.364,13.764,36.031,16.194-3.239,3.238-7.692,3.238-29.958-10.525-32.792-8.5,22.266,6.072,22.266,7.692-67.2,17-71.252,17-35.221-2.833-35.221-2.833Z" transform="translate(-93.816 -137.006)" fill="#e38540"/>
    <path id="Path_208" data-name="Path 208" d="M602.737,525.923c21.153,4.15,33.6,26.536,37.651,46.143S602.737,525.923,602.737,525.923Z" transform="translate(-84.63 -79.262)" fill="#6791c9"/>
    <g id="Group_3381" data-name="Group 3381" transform="translate(217.853 165.452)">
      <g id="Group_3380" data-name="Group 3380" clip-path="url(#clip-path)">
        <path id="Path_209" data-name="Path 209" d="M537.476,505.131s-40.686,27.327-62.548,40.687,7.894,157.281,15.182,210.72,133.6,4.859,133.6,4.859-8.5-44.938,2.428-117.2c7.83-51.764-20.849-84.208-37.245-106.677C547.509,480.811,537.476,505.131,537.476,505.131Z" transform="translate(-272.646 -239.002)" fill="#75a1de"/>
        <path id="Path_210" data-name="Path 210" d="M495.854,559.525c46.759,57.083,62.565,67.755,51.01,106.271-9.109,30.363-12.146,41.294-13.967,51.618s86.839-6.68,86.839-6.68l-.607,33.4s-69.835,33.4-103.843,40.079S460.026,783,460.026,783Z" transform="translate(-271.103 -252.103)" fill="#6791c9"/>
      </g>
    </g>
    <path id="Path_212" data-name="Path 212" d="M1098.544,848.527H545.3a7.232,7.232,0,1,1,0-14.463h553.242a7.232,7.232,0,1,1,0,14.463Z" transform="translate(-70.411 -147.018)" fill="#2e5b9a"/>
    <path id="Path_213" data-name="Path 213" d="M570.6,432.9l-21.051,62.345s23.076,62.549,42.508,48.582c6.634-4.769-2.429-42.508-2.429-42.508l14.169-50.605Z" transform="translate(-72.934 -58.808)" fill="#f09959"/>
    <path id="Path_214" data-name="Path 214" d="M475.21,556.4c-29.07,3.23-31.577,42.508-44.937,108.093s-9.345,108.874-3.036,117.2c15.181,20.04,185.822-49.8,207.076-49.189,14.669.42,2.429-24.29,2.429-24.29L474,733.113S497.072,657.2,497.072,618.34,486.141,555.185,475.21,556.4Z" transform="translate(-44.751 -85.954)" fill="#f09959"/>
    <path id="Path_215" data-name="Path 215" d="M672.916,749.54c17-4.251,41.9-13.967,46.759-9.716s24.9,34.615,31.578,43.116-3.036,1.822-10.323-4.859a92.8,92.8,0,0,0-13.36-10.323s-9.109,8.5-17.61,13.36-11.538-4.859-26.112-7.288-51.01,10.324-51.01,10.324Z" transform="translate(-91.249 -126.064)" fill="#f09959"/>
    <path id="Path_216" data-name="Path 216" d="M478.882,550.03c-17.813.81-31.577,15.789-36.435,38.865s-19.028,96.353-19.028,96.353-2.834,2.024,26.719,7.287a142.332,142.332,0,0,0,53.844-.81s6.072-41.7,4.453-70.442-8.1-55.869-18.622-65.18S478.882,550.03,478.882,550.03Z" transform="translate(-45.185 -84.443)" fill="#75a1de"/>
    <path id="Path_217" data-name="Path 217" d="M594.11,501.319l14.169-50.605-33.2-17.813-5.071,15.017c-1.1,50.275,11.775,67.09,20.455,73.238,2.711,1.92,5.042.436,7-2.7C596.036,509.342,594.11,501.319,594.11,501.319Z" transform="translate(-77.42 -58.808)" fill="#e38540"/>
    <path id="Path_218" data-name="Path 218" d="M663.992,431.154c0,29.278-3.268,65.176-27.011,64.33-36.833-1.313-60.043-31.929-60.043-61.207s19.258-53.013,43.014-53.013S663.992,401.876,663.992,431.154Z" transform="translate(-79.896 -47.454)" fill="#f09959"/>
    <path id="Path_219" data-name="Path 219" d="M997.382,797.527H860.793l56.182-123.6a10.1,10.1,0,0,1,9.2-5.923h123.958a3.944,3.944,0,0,1,3.591,5.577Z" transform="translate(-141.373 -110.503)" fill="#9bd6e8"/>
    <path id="Path_220" data-name="Path 220" d="M964.48,829.554H712.5a15.9,15.9,0,0,1,15.9-15.9H964.48Z" transform="translate(-108.765 -142.531)" fill="#9bd6e8"/>
    <path id="Path_221" data-name="Path 221" d="M1054.28,668H945.042a10.1,10.1,0,0,0-9.2,5.923l-56.182,123.6h121.87l56.34-123.948A3.944,3.944,0,0,0,1054.28,668Z" transform="translate(-145.522 -110.503)" fill="#7bcee8"/>
    <path id="Path_222" data-name="Path 222" d="M624.6,369.172c25.809-1.822,41.092,21.76,45.545,42.407,3.213,14.9,1.62,17.813,1.62,17.813s-2.834,4.048-23.076,5.263-22.671.81-22.671.81L624.8,411.984l-6.073,22.671s-3.238,4.454-15.789-1.619-18.218-26.315-18.218-26.315-2.833-13.36,6.883-22.267S624.6,369.172,624.6,369.172Z" transform="translate(-80.585 -44.773)" fill="#303c60"/>
    <path id="Path_225" data-name="Path 225" d="M572.717,437.783c-1.26,8.334-5.8,14.559-10.141,13.9s-6.84-7.945-5.58-16.279,5.8-14.559,10.141-13.9S573.976,429.449,572.717,437.783Z" transform="translate(-71.501 -52.292)" fill="#f09959"/>
    <g id="Group_3382" data-name="Group 3382" transform="translate(314.953 343.603)">
      <path id="Path_227" data-name="Path 227" d="M343.258,544.672a.877.877,0,0,1-.09,0,.935.935,0,0,1-.843-1.02c1.063-11.134,6.628-22.578,15.669-32.226,10.222-10.908,24.769-19.5,42.069-24.853,38.549-11.922,72.177-27.082,93.309-92.1a.936.936,0,1,1,1.781.578c-9.712,29.884-22.931,51.641-40.413,66.514-15.419,13.118-32.788,20.2-54.124,26.8-16.989,5.254-31.256,13.672-41.256,24.344-8.759,9.347-14.147,20.4-15.171,31.123A.937.937,0,0,1,343.258,544.672Z" transform="translate(-342.321 -393.817)" fill="#303c60"/>
    </g>
    <g id="Group_3383" data-name="Group 3383" transform="translate(332.36 349.676)">
      <path id="Path_228" data-name="Path 228" d="M365.573,501.446A.936.936,0,0,1,365,499.77a112.4,112.4,0,0,1,40.451-17.988c45.723-10.074,76.421-37.568,88.773-79.508a.936.936,0,0,1,1.8.529c-7.632,25.911-21.987,46.358-42.669,60.774-13.318,9.284-29.3,16.024-47.5,20.034a110.446,110.446,0,0,0-39.707,17.639A.935.935,0,0,1,365.573,501.446Z" transform="translate(-364.636 -401.602)" fill="#303c60"/>
    </g>
    <g id="Group_3389" data-name="Group 3389" transform="translate(674.4 288.266)">
      <path id="Path_229" data-name="Path 229" d="M1082.122,491.8H958.8a1.416,1.416,0,0,1-1.332-2.093l25.015-68.73a3.312,3.312,0,0,1,2.855-2.092h123.325a1.416,1.416,0,0,1,1.332,2.092l-25.015,68.73A3.312,3.312,0,0,1,1082.122,491.8Z" transform="translate(-837 -343.994)" fill="#9ec8ff"/>
      <path id="Path_230" data-name="Path 230" d="M1081.739,489.5H963.729a1.323,1.323,0,0,1-1.244-1.954l22.779-62.583a3.093,3.093,0,0,1,2.666-1.955h118.01a1.323,1.323,0,0,1,1.244,1.955l-22.779,62.583A3.092,3.092,0,0,1,1081.739,489.5Z" transform="translate(-838.106 -344.899)" fill="#fff"/>
      <path id="Path_231" data-name="Path 231" d="M1081,486.572H970.212a1.487,1.487,0,0,1-1.4-2.2l19.635-53.947a3.477,3.477,0,0,1,3-2.2h110.786a1.487,1.487,0,0,1,1.4,2.2L1084,484.374A3.475,3.475,0,0,1,1081,486.572Z" transform="translate(-839.494 -346.048)" fill="#9ec8ff"/>
      <ellipse id="Ellipse_381" data-name="Ellipse 381" cx="24.258" cy="16.891" rx="24.258" ry="16.891" transform="matrix(0.768, -0.641, 0.641, 0.768, 167.281, 113.927)" fill="#fff"/>
      <path id="Path_232" data-name="Path 232" d="M1067.463,460.71c-3.5,9.627-14.147,17.43-23.774,17.43s-14.59-7.8-11.086-17.43,14.148-17.43,23.775-17.43S1070.967,451.084,1067.463,460.71Z" transform="translate(-853.304 -349.357)" fill="#9ec8ff"/>
      <path id="Path_233" data-name="Path 233" d="M1062.363,462.355l-7.71,3.679-7.711,3.679,2.678-7.357L1052.3,455l5.033,3.679Z" transform="translate(-856.705 -351.933)" fill="#fff"/>
      <g id="Group_3384" data-name="Group 3384" transform="translate(43.021 46.101)">
        <path id="Path_234" data-name="Path 234" d="M873.645,406.371h-9.716a5.638,5.638,0,0,1-4.736-2.28,6.15,6.15,0,0,1-.5-5.7l3.536-9.716a10.515,10.515,0,0,1,9.214-6.7h9.716a5.637,5.637,0,0,1,4.736,2.28,6.153,6.153,0,0,1,.5,5.7l-3.536,9.716A10.515,10.515,0,0,1,873.645,406.371Zm-2.2-20.647a6.849,6.849,0,0,0-5.7,4.234l-3.536,9.716a2.522,2.522,0,0,0,.048,2.269,1.981,1.981,0,0,0,1.669.684h9.716a6.749,6.749,0,0,0,5.695-4.234l3.536-9.716a2.521,2.521,0,0,0-.048-2.269,1.98,1.98,0,0,0-1.669-.683Z" transform="translate(-858.231 -381.979)" fill="#9cd499"/>
      </g>
      <g id="Group_3385" data-name="Group 3385" transform="translate(27.992 87.395)">
        <path id="Path_235" data-name="Path 235" d="M854.379,459.3h-9.716a5.639,5.639,0,0,1-4.736-2.28,6.15,6.15,0,0,1-.5-5.7l3.536-9.716a10.515,10.515,0,0,1,9.214-6.7h9.716a5.638,5.638,0,0,1,4.737,2.28,6.151,6.151,0,0,1,.5,5.7l-3.536,9.716A10.514,10.514,0,0,1,854.379,459.3Zm-2.2-20.647a6.849,6.849,0,0,0-5.7,4.234l-3.536,9.716a2.521,2.521,0,0,0,.048,2.269,1.978,1.978,0,0,0,1.669.683h9.716a6.746,6.746,0,0,0,5.695-4.233l3.537-9.716a2.523,2.523,0,0,0-.048-2.269,1.981,1.981,0,0,0-1.669-.683Z" transform="translate(-838.965 -434.912)" fill="#9cd499"/>
      </g>
      <g id="Group_3386" data-name="Group 3386" transform="translate(12.962 128.689)">
        <path id="Path_236" data-name="Path 236" d="M835.113,512.237H825.4a5.639,5.639,0,0,1-4.736-2.28,6.151,6.151,0,0,1-.5-5.7l3.536-9.716a10.515,10.515,0,0,1,9.214-6.7h9.716a5.641,5.641,0,0,1,4.736,2.28,6.155,6.155,0,0,1,.5,5.7l-3.536,9.716A10.515,10.515,0,0,1,835.113,512.237Zm-2.2-20.647a6.748,6.748,0,0,0-5.7,4.234l-3.536,9.716a2.521,2.521,0,0,0,.048,2.269,1.978,1.978,0,0,0,1.669.683h9.716a6.747,6.747,0,0,0,5.7-4.233l3.536-9.716a2.52,2.52,0,0,0-.048-2.27,1.978,1.978,0,0,0-1.668-.683Z" transform="translate(-819.699 -487.845)" fill="#9ec8ff"/>
      </g>
      <path id="Path_237" data-name="Path 237" d="M965.04,402.034H911.6a1.235,1.235,0,0,1-1.159-1.822,2.892,2.892,0,0,1,2.485-1.822h53.439a1.235,1.235,0,0,1,1.158,1.822A2.892,2.892,0,0,1,965.04,402.034Z" transform="translate(-826.665 -339.486)" fill="#9ec8ff"/>
      <path id="Path_238" data-name="Path 238" d="M961.639,411.375H908.2a1.235,1.235,0,0,1-1.158-1.822,2.892,2.892,0,0,1,2.485-1.822h53.439a1.235,1.235,0,0,1,1.159,1.822A2.891,2.891,0,0,1,961.639,411.375Z" transform="translate(-825.917 -341.54)" fill="#9ec8ff"/>
      <path id="Path_239" data-name="Path 239" d="M947.19,451.075H893.751a1.235,1.235,0,0,1-1.158-1.822,2.892,2.892,0,0,1,2.485-1.822h53.439a1.235,1.235,0,0,1,1.159,1.822A2.893,2.893,0,0,1,947.19,451.075Z" transform="translate(-822.74 -350.27)" fill="#9ec8ff"/>
      <path id="Path_240" data-name="Path 240" d="M943.79,460.416H890.351a1.235,1.235,0,0,1-1.158-1.822,2.891,2.891,0,0,1,2.485-1.822h53.439a1.235,1.235,0,0,1,1.158,1.822A2.89,2.89,0,0,1,943.79,460.416Z" transform="translate(-821.992 -352.324)" fill="#9ec8ff"/>
      <path id="Path_241" data-name="Path 241" d="M927.358,505.565H873.919a1.235,1.235,0,0,1-1.159-1.822,2.893,2.893,0,0,1,2.485-1.822h53.439a1.235,1.235,0,0,1,1.159,1.822A2.892,2.892,0,0,1,927.358,505.565Z" transform="translate(-818.379 -362.251)" fill="#9ec8ff"/>
      <path id="Path_242" data-name="Path 242" d="M923.958,514.906H870.519a1.235,1.235,0,0,1-1.158-1.822,2.892,2.892,0,0,1,2.485-1.822h53.439a1.235,1.235,0,0,1,1.158,1.822A2.893,2.893,0,0,1,923.958,514.906Z" transform="translate(-817.631 -364.305)" fill="#9ec8ff"/>
      <g id="Group_3387" data-name="Group 3387" transform="translate(50.633 43.065)">
        <path id="Path_243" data-name="Path 243" d="M873.529,400.05a1.9,1.9,0,0,1-.492-.065,1.874,1.874,0,0,1-1.245-1.108l-3.667-9.109a1.872,1.872,0,1,1,3.473-1.4l2.745,6.817,21.677-16.709a1.873,1.873,0,0,1,2.286,2.966L874.672,399.66A1.874,1.874,0,0,1,873.529,400.05Z" transform="translate(-867.988 -378.087)" fill="#f37168"/>
      </g>
      <g id="Group_3388" data-name="Group 3388" transform="translate(35.603 84.359)">
        <path id="Path_244" data-name="Path 244" d="M854.263,452.983a1.9,1.9,0,0,1-.492-.065,1.871,1.871,0,0,1-1.244-1.108l-3.669-9.109a1.872,1.872,0,1,1,3.474-1.4l2.745,6.817,21.677-16.71a1.872,1.872,0,0,1,2.286,2.966l-23.634,18.218A1.874,1.874,0,0,1,854.263,452.983Z" transform="translate(-848.722 -431.02)" fill="#f37168"/>
      </g>
      <path id="Path_245" data-name="Path 245" d="M1250.913,337.457H1045.658l5.3-14.574h205.254Z" transform="translate(-856.422 -322.883)" fill="#9ec8ff"/>
      <path id="Path_246" data-name="Path 246" d="M1240.713,365.481H1035.458l5.3-14.574h205.255Z" transform="translate(-854.179 -329.045)" fill="#9ec8ff"/>
      <path id="Path_247" data-name="Path 247" d="M963.742,591.6H813.016c-1.97,0-2.994-1.611-2.278-3.581a5.686,5.686,0,0,1,4.884-3.581H966.349c1.97,0,2.994,1.612,2.278,3.581A5.686,5.686,0,0,1,963.742,591.6Z" transform="translate(-804.716 -380.395)" fill="#9ec8ff"/>
      <path id="Path_248" data-name="Path 248" d="M956.317,612H805.59c-1.97,0-2.995-1.611-2.278-3.581a5.686,5.686,0,0,1,4.884-3.581H958.924c1.97,0,2.994,1.612,2.278,3.581A5.685,5.685,0,0,1,956.317,612Z" transform="translate(-803.084 -384.88)" fill="#9ec8ff"/>
    </g>
    <g id="Group_3396" data-name="Group 3396" transform="translate(937.616 422.269)">
      <path id="Path_249" data-name="Path 249" d="M1174.03,723.263c0-2.529,30.46-86.714,9.866-140.908-14.42-37.947-16.7-83.483-16.7-83.483s-28.081,40.223-9.107,101.7c11.678,37.836,16.443,48.319,17.455,59.449s-4.553,66.786-4.553,66.786Z" transform="translate(-1142.914 -495.583)" fill="#9cd499"/>
      <g id="Group_3390" data-name="Group 3390" transform="translate(7.695 2.352)">
        <path id="Path_250" data-name="Path 250" d="M1170.74,727.478a.937.937,0,0,1-.931-1.03c.055-.555,5.545-55.692,4.553-66.609-.66-7.263-2.9-14.127-7.818-29.168-2.517-7.7-5.65-17.292-9.6-30.09-9.866-31.966-6.845-58.111-2.572-74.415,4.637-17.7,11.516-27.678,11.806-28.094a.936.936,0,0,1,1.7.489c.023.454,2.437,45.83,16.637,83.2,7.7,20.267,9.247,46.991,4.6,79.432-3.714,25.9-10.337,48.04-13.164,57.494-.644,2.154-1.2,4.015-1.239,4.357a.825.825,0,0,1-.224.567l-3.035,3.542A.936.936,0,0,1,1170.74,727.478ZM1166.2,501.583a102.635,102.635,0,0,0-10.044,25.145c-4.193,16.051-7.151,41.8,2.574,73.3,3.944,12.783,7.075,22.363,9.59,30.061,4.959,15.179,7.223,22.107,7.9,29.58.885,9.738-3.12,52.236-4.264,64.006l.925-1.079c.109-.557.435-1.667,1.268-4.45,17.591-58.806,20.488-104.47,8.611-135.725C1170.551,550.276,1167,512.283,1166.2,501.583Z" transform="translate(-1150.354 -497.672)" fill="#74b570"/>
      </g>
      <path id="Path_251" data-name="Path 251" d="M1188.645,730.938c-4.553-93.6,17.709-144.7,63.245-185.18s47.56-51.1,47.56-51.1-7.083,78.93-33.393,106.251-64.763,47.56-70.328,61.727-3.542,61.727-3.542,61.727l-3.542,8.6Z" transform="translate(-1150.951 -494.656)" fill="#9cd499"/>
      <path id="Path_252" data-name="Path 252" d="M1181.67,779.249c-.506-1.518,9.613-87.53,46.548-92.589s45.536,3.542,70.834-.506a157.993,157.993,0,0,0,31.875-8.6s-9.582,24.387-42.5,34.405c-23.274,7.083-53.631-4.554-71.34-1.518s-26.816,40.982-26.816,40.982l-3.035,19.732Z" transform="translate(-1149.542 -534.872)" fill="#9cd499"/>
      <g id="Group_3391" data-name="Group 3391" transform="translate(35.779 28.916)">
        <path id="Path_253" data-name="Path 253" d="M1187.762,734.459a.935.935,0,0,1-.931-.85c-.056-.6-5.3-61.031,20.352-107.3,13.247-23.9,27.714-37.748,41.7-51.142,13.033-12.477,25.342-24.263,34.676-42.931a.936.936,0,0,1,1.675.837c-9.48,18.959-21.9,30.854-35.056,43.446-13.89,13.3-28.252,27.047-41.362,50.7-25.362,45.751-20.18,105.617-20.125,106.216a.936.936,0,0,1-.846,1.019C1187.82,734.458,1187.79,734.459,1187.762,734.459Z" transform="translate(-1186.354 -531.722)" fill="#74b570"/>
      </g>
      <g id="Group_3392" data-name="Group 3392" transform="translate(33.721 151.881)">
        <path id="Path_254" data-name="Path 254" d="M1184.654,756.976a.919.919,0,0,1-.261-.038.935.935,0,0,1-.638-1.159c9.685-33.383,20.8-52.859,34.98-61.294,12.677-7.542,25.777-5.228,39.649-2.776,3.4.6,6.906,1.221,10.381,1.676,30.142,3.953,44.841-3.372,44.985-3.447a.936.936,0,0,1,.859,1.664c-.609.316-15.286,7.679-46.088,3.638-3.516-.461-7.048-1.085-10.463-1.689-13.516-2.389-26.286-4.645-38.366,2.542-13.747,8.178-24.594,27.309-34.14,60.206A.936.936,0,0,1,1184.654,756.976Z" transform="translate(-1183.717 -689.347)" fill="#74b570"/>
      </g>
      <g id="Group_3393" data-name="Group 3393" transform="translate(82.04 69.392)">
        <path id="Path_255" data-name="Path 255" d="M1246.592,603.947a.936.936,0,0,1-.572-1.677,113.407,113.407,0,0,1,43.148-18.646.936.936,0,0,1,.353,1.839,111.3,111.3,0,0,0-42.359,18.29A.933.933,0,0,1,1246.592,603.947Z" transform="translate(-1245.656 -583.607)" fill="#74b570"/>
      </g>
      <g id="Group_3394" data-name="Group 3394" transform="translate(53.454 90.642)">
        <path id="Path_256" data-name="Path 256" d="M1209.947,650.666a.936.936,0,0,1-.8-1.414c13.175-22.218,28.606-27.817,62.252-38.362a.936.936,0,1,1,.559,1.786c-33.17,10.4-48.376,15.9-61.2,37.531A.937.937,0,0,1,1209.947,650.666Z" transform="translate(-1209.011 -610.846)" fill="#74b570"/>
      </g>
      <path id="Path_257" data-name="Path 257" d="M1186.7,822.878h-22.6a16.625,16.625,0,0,1-16.329-13.5l-7.285-38.1h69.822l-7.285,38.1A16.625,16.625,0,0,1,1186.7,822.878Z" transform="translate(-1140.491 -555.479)" fill="#f39892"/>
      <g id="Group_3395" data-name="Group 3395" transform="translate(0.404 221.761)">
        <path id="Path_258" data-name="Path 258" d="M1208.656,782.668h-65.775a1.872,1.872,0,1,1,0-3.745h65.775a1.872,1.872,0,1,1,0,3.745Z" transform="translate(-1141.009 -778.923)" fill="#d54a41"/>
      </g>
    </g>
  </g>
</svg>
