<?xml version="1.0" encoding="utf-8"?>
<!-- Generator: Adobe Illustrator 22.0.0, SVG Export Plug-In . SVG Version: 6.00 Build 0)  -->
<svg version="1.1" id="Layer_1" xmlns="http://www.w3.org/2000/svg" xmlns:xlink="http://www.w3.org/1999/xlink" x="0px" y="0px"
	 viewBox="0 0 348 196.3" style="enable-background:new 0 0 348 196.3;" xml:space="preserve">
<style type="text/css">
	.st0{fill:#FDECDB;}
	.st1{fill:#19365E;}
	.st2{fill:#EE985E;}
	.st3{fill:#EE7D2C;}
	.st4{fill:#599DAD;}
	.st5{fill:#6CB7BF;}
	.st6{fill:#5CAAAD;}
	.st7{fill:#F7B17F;}
	.st8{fill:#F49749;}
	.st9{fill:#4D73B7;}
	.st10{fill:#2C488C;}
	.st11{fill:#2E3552;}
	.st12{fill:#82B378;}
	.st13{fill:#A9D2A0;}
	.st14{fill:#F2A450;}
	.st15{fill:#F9B876;}
	.st16{fill:#D76716;}
	.st17{fill:#D39E7A;}
	.st18{fill:#E0B594;}
	.st19{fill:#243862;}
	.st20{clip-path:url(#SVGID_2_);}
	.st21{fill:#2C4F96;}
	.st22{fill:#1E3E70;}
	.st23{fill:#DEEBF9;}
	.st24{fill:#7896CD;}
	.st25{fill:#AAC2E6;}
	.st26{opacity:0.5;fill:#82B378;}
	.st27{fill:#FAB841;}
	.st28{fill:#F6A220;}
	.st29{fill:#E2820E;}
</style>
<g>
	<path class="st0" d="M213.1,125.6c-18.6,17.1-41.8,17.1-65.4,7.6h0c-13.8-5.6-28.4-15.2-36.3-27.6c-10.7-16.6-7-30.9,1.3-48.7
		c11-23.7,28.8-37.8,55-34.9c33.6,3.7,54.8,28.1,60.6,60.6C231.1,98.9,224.9,114.7,213.1,125.6z"/>
	<path class="st0" d="M16.5,175c0,0-20.5-69.3,17.1-90.3c37.7-21,60.4,12.5,73.6,30s70.5,52.1,105.2,19.5
		c36.6-34.3,54.7-44,80.8-44.9c26.1-0.8,15.3,27.2,37.3,38c21.9,10.8,11.3,45.6-9.1,48.1L16.5,175z"/>
	<g>
		<path class="st1" d="M258.5,167.6c0,0-0.4,7.1-1.8,7.2c-0.2,0-7,0-7,0l-8.7-0.1c0,0,0.1-2.1,2.6-2.5c2.5-0.4,6.8-2.2,8.3-5.6
			C253.5,163.1,258.5,167.6,258.5,167.6z"/>
		<path class="st2" d="M263.1,83.2c0,0-4.1,2.3-5.3,2.3c-1.2,0-5.7-0.9-6.9-0.2c-1.3,0.6-3.5,3.2-4,4.1c-0.8,1.5,3.1,0.8,4.9-0.4
			c0.3-0.2,0.6-0.3,0.9-0.2c0.9,0.2,2.9,0.6,3.9,0.2c1.3-0.5,8-1,8-1L263.1,83.2z"/>
		<path class="st3" d="M294.4,51.3c0,0-4.3,30.3-11.3,33c-3.5,1.3-18.9,4.4-23.4,4.7c0,0-1.1-0.9-0.8-4.6c0,0,16.1-5.9,18.4-9.1
			c3.4-4.8-2.1-19.6,2.2-24.1C283.7,46.7,290.9,44.8,294.4,51.3z"/>
		<path class="st4" d="M293,115.2c-1.2,2.1-2.7,4.1-4.2,6c-4.6,5.8-9.6,10.6-10.4,15.1c-0.2,0.9-0.4,1.9-0.8,2.9
			c-0.4,1-0.8,2.1-1.3,3.2c-1.9,4.2-4.9,9-7.8,13.3c-5,7.4-9.1,12.4-9.1,12.4s-1.3,1-5.1,1c-1,0-4.6-0.6-4.6-0.6
			c0.3-0.9,4.5-10.7,9.6-23.3c2-5.1,4.2-10.5,6.3-15.7c0.3-0.7,0.6-1.4,0.8-2.1c0.6-1.6,1.3-3.2,1.9-4.7c4.7-11.8,8.5-21.2,8.5-21.2
			s18.9-7.2,20.9-2.5C299.4,102.8,298.1,106.5,293,115.2z"/>
		<path class="st1" d="M278.5,147.2c0,0,6,3.9,5.4,5.1c-0.1,0.2-3.4,6.1-3.4,6.1l-4.3,7.6c0,0-1.8-1.1-1-3.5c0.9-2.4,1.4-7-0.8-10
			C272.2,149.4,278.5,147.2,278.5,147.2z"/>
		<path class="st5" d="M275.1,154.6c0,0,4.2-3.9,4.9-6.4c0,0-15.5-18.6-18.9-22.7c-0.2-0.2-0.1-0.4,0.1-0.6
			c2.5-2.9,30.7-8.7,34.4-14.4c1.3-2,2-3.9,2.4-5.5c0.8-3.5,0.2-5.9,0.2-5.9l-28.2-0.8c0,0-23.4,14.6-26.1,24.6
			C241.3,132.8,275.1,154.6,275.1,154.6z"/>
		<path class="st6" d="M261.2,124.9c2.5-2.9,30.7-8.7,34.4-14.4c1.3-2,2-3.9,2.4-5.5v-3.6l-12-1.9c0,0-3.4,10.4-13.4,14.4
			C263.2,117.6,261.4,124.1,261.2,124.9z"/>
		<path class="st7" d="M277.8,49.4c5.7,1.5,15.1-3.8,15.1-3.8s-3.7-2.5-5-7.9c-0.1-0.3-0.1-0.6-0.2-0.8c-0.6-0.1-1.7-0.4-2.9-0.6
			l-4.4,3.9c0,0,0.1,1.6,0.6,4.4c0.1,0.5,0.2,1,0.3,1.6C279,47.6,277.8,49.4,277.8,49.4z"/>
		<path class="st8" d="M298.9,73c-0.8,11,0.3,27.7-0.7,30.6c-0.8,2.5-9.9,1-13.5,0.2c-1.3-0.3-3-0.7-4.7-1.3
			c-4.7-1.5-9.8-3.5-10.4-5.1c0-0.1,0-0.1-0.1-0.2c-0.1-0.2,0-0.4,0-0.6c0.2-0.8,0.9-1.6,1-3.6c0.1-2.2,0.1-4.7,0.2-7.5
			c0-0.3,0-0.6,0-1l0-0.1c0-0.1,0-0.1,0-0.2c0.1-3.1,0.2-6.3,0.4-9.5c0.1-2,0.3-4,0.4-5.9c0.4-4.9,1-9.3,1.7-12.1
			c1.2-4.5,3.8-7.4,6.2-9.6l1.7-1.5c1.9,0.4,4.2,0.1,6.3-0.8c2.2-1.1,3-1.8,3.4-1.5C296.2,47.4,299.9,59.6,298.9,73z"/>
		<path class="st3" d="M280.1,102.5c-4.7-1.5-9.8-3.5-10.4-5.1c0-0.1,0-0.1-0.1-0.2c0-0.2,0-0.4,0-0.6c0.2-0.8,0.9-1.6,1-3.6
			c0.1-2.2,0.1-4.7,0.2-7.5c0-0.3,0-0.6,0-1l0-0.1c0-0.1,0-0.1,0-0.2l19-24.2C289.8,60.1,302.6,86.7,280.1,102.5z"/>
		<path class="st2" d="M280.4,40.2c0,0,0.1,1.6,0.6,4.4c4.2-1.4,6.2-5.2,6.8-6.8c-0.1-0.3-0.1-0.6-0.2-0.8c-0.6-0.1-1.7-0.4-2.9-0.6
			L280.4,40.2z"/>
		<path class="st7" d="M279.8,42.6c0,0,9.3-1.5,8.2-7.3c-1.1-5.8-0.6-9.8-6.5-9.1c-6,0.7-6.7,3.1-6.8,5.2
			C274.6,33.4,277.4,42.9,279.8,42.6z"/>
		<polygon class="st9" points="266.1,90.2 243,90.7 236.4,70.5 235.6,70.8 242.5,92.1 266.2,91.6 		"/>
		<path class="st7" d="M265.7,92.8c0,0-7.6,2-10.4,1.8c-2.8-0.2-5.2-1.6-5.6-2.3s-1.1-2,0.8-1.7c1.9,0.2,4.6,0.6,4.7,0.3
			c0.1-0.4-1.6-0.3-1.6-0.3s-0.5-0.7,0.1-0.8c0.6,0,2.5-0.5,3.2-0.2c0.7,0.3,1.3,1.6,1.8,1.6c0.5-0.1,6.3-2.6,6.3-2.6L265.7,92.8z"
			/>
		<path class="st8" d="M292.5,52.6c0,0-0.9,30.6-7.6,34c-3.3,1.7-18.3,6.4-22.8,7.2c0,0-1.2-0.8-1.3-4.5c0,0,15.4-7.7,17.3-11.1
			c2.9-5.1-4.3-19.2-0.5-24.2C281.4,49.2,288.3,46.5,292.5,52.6z"/>
		<path class="st10" d="M287.9,37.7c0,0,0.1-2-1.1-3.1c0,0,0.4-2-0.4-2.3c-0.8-0.3-0.9,1.3-1.3,1.1c-0.4-0.3-2-1.5-2.6-3.3
			c-0.7-1.8-7,0.4-7.7,0.7c-0.7,0.3-3.1-0.9-3.5-1.9c0,0,1.3-1,1.9-1.8c0.6-0.8,4.7-6.1,10.4-4.6c5.7,1.5,6.5,4.2,6.2,6.6
			C289.4,31.5,290.2,37,287.9,37.7z"/>
	</g>
	<path class="st11" d="M346.6,175.8H3.4c-0.2,0-0.4-0.2-0.4-0.4v-0.1c0-0.2,0.2-0.4,0.4-0.4h343.2c0.2,0,0.4,0.2,0.4,0.4v0.1
		C347,175.6,346.8,175.8,346.6,175.8z"/>
	<g>
		<g>
			<path class="st12" d="M112.5,151.8c0,0-3.7-4.3-0.2-7.1c0,0,2.5-1.5,4.6-1.4c0,0-2.9,4.9-2,5.4c0.9,0.5,2.9-5.7,2.9-5.7
				s5.8-0.6,7.6,0.3c0,0-4.9,4-3.9,4.3c1,0.2,6.4-3.7,6.4-3.7s5.4,0.9,5.1,4.2c-0.3,3.3-2.1,4.3-3,4.2c-0.8-0.1-5.6-1.9-5.7-1.2
				c-0.1,0.7,2.8,2.8,4.8,2.9c0,0-3.8,4.2-6.3,3c-2.5-1.2-2.7-3.1-4.3-3.8c-1.6-0.7-2.9-0.7-2.3,0c0.6,0.7,3.5,1.4,4.4,3
				c0.9,1.6,1.7,2.7-0.9,2.3c-2.6-0.4-6.8-2.3-7-4.5C112.5,151.8,112.5,151.8,112.5,151.8z"/>
			<g>
				<path class="st12" d="M130.3,148.2c0,0-14.6-0.6-17.8,3.6c0,0-0.7,2.1-2.9,4.1l-0.3,0.9c0,0,2.5-2.7,3.4-2.8
					C112.7,154,111.2,148.8,130.3,148.2z"/>
				<path class="st12" d="M109.6,155.9c0,0-3.1,2.3-3.4,6.5l0.6,0.1c0,0,1-4.3,2.8-6C111.4,154.7,109.6,155.9,109.6,155.9z"/>
			</g>
		</g>
		<g>
			<path class="st13" d="M99.5,146.3c0,0,5.9-3.3,3.1-7.8c0,0-2.2-2.7-4.6-3.5c0,0,1.3,6.7,0,6.8c-1.3,0.2-0.9-7.5-0.9-7.5
				s-6.2-3-8.6-2.7c0,0,3.8,6.5,2.6,6.4c-1.3-0.2-5.6-6.8-5.6-6.8s-6.4-1.2-7.4,2.6c-1,3.8,0.6,5.7,1.6,5.9c0.9,0.2,7,0.2,6.8,0.9
				c-0.2,0.8-4.2,2-6.5,1.3c0,0,2.5,6.2,5.8,5.9c3.3-0.3,4.3-2.4,6.4-2.5c2-0.2,3.5,0.4,2.5,0.9c-1,0.5-4.5,0.2-6.1,1.6
				c-1.6,1.4-3,2.3,0.1,2.9c3.1,0.6,8.6,0.2,9.7-2.1C99.5,146.3,99.5,146.3,99.5,146.3z"/>
			<g>
				<path class="st12" d="M81.1,135c0,0,16.5,5.3,18.4,11.3c0,0-0.1,2.7,1.6,5.7v1.2c0,0-1.7-4-2.7-4.6
					C98.4,148.7,102.1,143.5,81.1,135z"/>
				<path class="st12" d="M101.1,152.1c0,0,2.5,3.9,1.1,8.6l-0.7-0.2c0,0,0.6-5.2-0.7-7.8C99.5,150.1,101.1,152.1,101.1,152.1z"/>
			</g>
		</g>
		<g>
			<path class="st13" d="M108.9,141.8c0,0-7.8-4.3-4.1-10.3c0,0,2.9-3.6,6-4.6c0,0-1.7,8.8,0,9c1.7,0.2,1.1-9.9,1.1-9.9
				s8.2-3.9,11.4-3.6c0,0-5.1,8.6-3.4,8.4c1.7-0.2,7.4-8.9,7.4-8.9s8.4-1.6,9.7,3.4c1.3,5-0.8,7.5-2.1,7.8c-1.2,0.3-9.2,0.2-9,1.2
				c0.2,1,5.6,2.7,8.6,1.8c0,0-3.3,8.2-7.7,7.8c-4.3-0.4-5.7-3.1-8.4-3.3c-2.7-0.2-4.7,0.5-3.3,1.2c1.3,0.7,5.9,0.2,8.1,2.1
				c2.2,1.8,3.9,3-0.1,3.8c-4,0.8-11.3,0.3-12.7-2.8C108.9,141.8,108.9,141.8,108.9,141.8z"/>
			<g>
				<path class="st12" d="M133.1,126.9c0,0-21.7,7-24.2,14.9c0,0,0.1,3.5-2.1,7.6v1.6c0,0,2.3-5.3,3.5-6
					C110.3,144.9,105.5,138.1,133.1,126.9z"/>
				<path class="st12" d="M106.8,149.4c0,0-3.4,5.1-1.4,11.3l0.9-0.2c0,0-0.8-6.8,0.9-10.3C108.9,146.7,106.8,149.4,106.8,149.4z"/>
			</g>
		</g>
		<path class="st14" d="M108.6,174.1c8.4,0,15.2-6.8,15.2-15.2H93.4C93.4,167.3,100.2,174.1,108.6,174.1z"/>
		<path class="st15" d="M112.4,174c-0.6,0.1-1.2,0.1-1.9,0.1c-8.4,0-15.2-6.8-15.2-15.2h3.8C99.1,166.6,104.9,173,112.4,174z"/>
		<path class="st14" d="M124.1,174.9H93.2l0,0c0-1,0.8-1.9,1.9-1.9h27.1C123.2,173,124.1,173.8,124.1,174.9L124.1,174.9z"/>
		<rect x="92.9" y="158.9" class="st16" width="31.3" height="0.5"/>
	</g>
	<g>
		<path class="st17" d="M315.9,174c-3.6-3.7-10-6.2-17.4-6.5v-12.2h11.4c0.3,0,0.5-0.2,0.7-0.6c0.1-0.3,0.2-0.6,0.2-1v-0.6
			c0-0.9-0.4-1.6-0.9-1.6h-11.4v-29.1c0-0.8-0.7-1.5-1.5-1.5l0,0c-0.8,0-1.5,0.7-1.5,1.5v29.1h-11.4c-0.5,0-0.9,0.7-0.9,1.6v0.6
			c0,0.4,0.1,0.7,0.2,1c0.2,0.4,0.4,0.6,0.7,0.6h11.4v12.2c-7.4,0.3-13.7,2.8-17.4,6.5c-0.3,0.3-0.5,0.5-0.7,0.8h39.1
			C316.4,174.6,316.2,174.3,315.9,174z"/>
		<path class="st18" d="M298.5,167.6c-5.1,0.5-9.6,3-12.1,6.5c-0.2,0.3-0.4,0.5-0.5,0.8h-3.6c0.2-0.3,0.4-0.6,0.5-0.8
			c2.9-3.9,8-6.6,13.9-6.6C297.3,167.5,298,167.5,298.5,167.6z"/>
	</g>
	<path class="st3" d="M315.9,111.2h-38.7c-1,0-1.8,0.8-1.8,1.8v7.3c0,1,0.8,1.8,1.8,1.8h38.7c1,0,1.8-0.8,1.8-1.8V113
		C317.7,112,316.9,111.2,315.9,111.2z"/>
	<g>
		<g id="man_4_">
			<path class="st7" d="M101.5,55.3c-0.6,1.7-1.8,3.8-3,4.3c-1.3,0.6-1.9,1.4-1.9,1.4l-1.1-0.6l-1.3-0.8c0,0,0-0.1,0.1-0.4
				c0.1-0.2,0.2-0.6,0.3-0.9c0,0,0.4-0.5,0.2-1.2c-0.2-0.6-0.2-1.6,0.2-2.2c0.4-0.6,0.8-2.1,1.1-2c0.6,0.1-0.3,2.1,0,2.5
				c0.2,0.3,0.5,0.2,0.6,0.2c0,0,0,0,0,0c1.7-0.7,3.8-4.8,4.7-4.2C101.6,51.6,101.8,54.6,101.5,55.3z"/>
			<g>
				<path class="st10" d="M95.6,57.8l2.1,1.5c0.1,0.1,0.4,0.1,0.5-0.1l5.4-7.7c0.1-0.1,0.1-0.4-0.1-0.5l-2.1-1.5
					c-0.1-0.1-0.4-0.1-0.5,0.1l-5.4,7.7C95.4,57.5,95.5,57.7,95.6,57.8z"/>
				<path class="st19" d="M97.6,59.1l1.2,0.9c0.1,0.1,0.3,0.1,0.4-0.1l5.5-7.9c0.1-0.1,0.1-0.3-0.1-0.4l-1.2-0.9
					c-0.1-0.1-0.3-0.1-0.4,0.1l-5.5,7.9C97.4,58.9,97.4,59.1,97.6,59.1z"/>
			</g>
			<path class="st19" d="M65.1,46.7c0,0,10.8,18.8,14.7,22.3l14.4-10.7c0,0,2.1,0.6,3,2.7c0,0-8.7,17.8-17.3,18.5
				c-8.6,0.8-20.7-21.3-20.7-21.3L65.1,46.7z"/>
			<g>
				<path class="st19" d="M40.7,174.9h-6.2c-0.8-0.4-1.5-1.4-1.7-2.9c-0.3-2-2.6-3.1-3-4.8c-0.5-1.6,2-4,2-4l0.4-0.5l0.4-0.6l4.1,1
					c0,0,0.1,1,0.2,2.2c0,0.9,0.1,2,0,2.9c-0.1,2.2,0.6,4.6,2.6,5C40.9,173.6,40.8,174.4,40.7,174.9z"/>
				<path class="st19" d="M76.9,174.9H62.6c-0.7-0.8-0.4-3.9-0.3-4.9c0-0.2,0-0.3,0-0.3s4.9-3.9,5.5-0.9c0,0.1,0,0.2,0.1,0.3
					c0.8,2.8,4.6,4.1,6.8,4.4C76.2,173.6,76.7,174.3,76.9,174.9z"/>
				<path class="st8" d="M74.2,95.2c0,0-0.7,9.2-1.6,20.3c-1.2,15.1-2.6,33.6-2.7,37.1c-0.2,6.1-1.2,15.8-1.2,15.8s-2.3,2.3-6.9,1.3
					c0,0-4.1-13.9-5.3-28.6c0-0.2,0-0.5-0.1-0.7c-1.1-15-2.8-46.6-2.8-46.6L74.2,95.2z"/>
				<path class="st3" d="M74.2,95.2c0,0-0.7,9.2-1.6,20.3l-16.2,25.7c0-0.2,0-0.5-0.1-0.7c-1.1-15-2.8-46.6-2.8-46.6L74.2,95.2z"/>
				<path class="st8" d="M70.8,96.3c0,0-13.3,33.5-22.1,49.2c-8.8,15.7-11.5,20.1-11.5,20.1s-5-2-5.5-3.4c0,0,3.4-30.4,9.2-37.8
					c3.3-4.2,7.2-16.7,7.4-21.1c0.2-4.4,1.2-13.1,1.2-13.1L70.8,96.3z"/>
			</g>
			<path class="st7" d="M67.5,47.5c-5.2,1.6-14.2-2.8-14.2-2.8s4.8-3.6,4.6-11.1l4,3.2l2.7,2.2c0,0,0,1.3-0.3,3.6
				c-0.1,0.6-0.2,1.3-0.3,2C66.2,45.8,67.5,47.5,67.5,47.5z"/>
			<path class="st2" d="M64.6,39c0,0,0,1.3-0.3,3.6c-3-0.5-6.5-5.4-6.5-5.4c1.5-0.4,2.9-0.5,4-0.4L64.6,39z"/>
			<path class="st7" d="M66.2,38.9c0,0-8.6,1.4-9.4-3.9c-0.8-5.4-2.5-8.8,3-10s6.8,0.8,7.6,2.5C68,29.2,68.4,38.4,66.2,38.9z"/>
			<path class="st10" d="M74.8,95.9c-0.2,0.1-0.3,0.2-0.5,0.2c-2,0-7.7,1.1-12.5,0.6c-4.1-0.4-7.7-1.6-11.6-3.3
				c-0.5-0.2-1.7-0.9-1.7-1.4c0-0.6,0.1-1.5,0.2-2.7c0.3-4,0.8-10.9,0.3-18.8c-0.1-1.5-0.1-2.9-0.1-4.4c0-10.7,2.1-20.2,6.4-23.4
				c0.4-0.3,2.6,0.8,4.7,1.9c1.9,0.9,3.8,1,5.6,0.7l1.8,1.6c2.2,2,4.6,4.8,5.6,9c0.9,3.6,1.4,10,1.7,16.7c0.1,3,0.2,6.1,0.3,9v0.1
				c0,0.3,0,0.6,0,0.9C75,89.9,74.9,95.8,74.8,95.9z"/>
			<path class="st19" d="M48.7,89.2c0.3-4,0.8-10.9,0.3-18.8c-0.1-1.5-0.1-2.9-0.1-4.4c1.8-4.3,3.2-7.5,3.2-7.5h4.5
				C56.6,58.6,59.9,81.1,48.7,89.2z"/>
			<g>
				<path class="st19" d="M47.3,100.1l-19.2-2.7c-2.5-0.4-4.8,1.4-5.2,3.9l-1.2,8.3c-0.4,2.5,1.4,4.8,3.9,5.2l19.2,2.7
					c2.5,0.4,4.8-1.4,5.2-3.9l1.2-8.3C51.5,102.8,49.8,100.5,47.3,100.1z"/>
				<path class="st10" d="M48.4,102.6L48.4,102.6c-0.5-1.3-1.7-2.4-3.2-2.8h0c0,0,0,0,0,0c-0.1,0-0.3-0.1-0.4-0.1l-3.8-0.5l0.3-1.8
					c0.1-0.4,0-0.8-0.3-1.1c-0.2-0.3-0.6-0.5-1-0.6l-1-0.1l-4-0.6l-0.7-0.1c-0.8-0.1-1.6,0.5-1.7,1.3l-0.3,1.8L25.6,97
					c-2.5-0.4-4.8,1.4-5.2,3.9l-1.2,8.4c-0.4,2.5,1.4,4.8,3.9,5.2l19.1,2.7c0.3,0,0.7,0.1,1,0h0c0,0,0,0,0,0c0.5,0,1-0.2,1.5-0.4
					c1.4-0.6,2.5-1.9,2.7-3.6l1.2-8.4C48.8,104.1,48.7,103.3,48.4,102.6z M33.4,96.3c0-0.3,0.2-0.4,0.5-0.5c0.1,0,0.1,0,0.2,0
					l0.9,0.1l3.2,0.5l1.7,0.2c0.3,0,0.5,0.3,0.5,0.6L40,99l-6.9-1L33.4,96.3z"/>
			</g>
			<path class="st7" d="M39.2,92.2c0-0.1,0-0.2,0-0.3c0-0.5,1-1.9,1-1.9l-2.5-1.3l-1,1.7c-1.5,1.2-1.5,1.2-1.3,3.5
				c0.2,2-1.1,2-1,3.4c0,1.4,1.9,0.7,1.9,0.7c2.8-1.3,3.1-2,3-3.4c0.3,0.4,0.6,0.6,0.8,0.4c0.2-0.1-0.2-0.7-0.4-2.1
				C39.6,92.8,39.4,92.5,39.2,92.2z"/>
			<path class="st10" d="M37.7,91c1.6,0.3,3.4,0.2,3.4,0.2s4.8-14.9,5.4-16.2c0.6-1.4,14.3-17.4,14.3-17.4L55,43.4
				c0,0-14.8,24.7-16.3,28.1c-2.5,5.7-3.3,18.6-3.3,18.6S36.4,90.8,37.7,91z"/>
			<path class="st10" d="M56.8,34.4c0,0,0.9-0.1,0.7-1.4c-0.1-1.2-0.1-2.8,0.8-2.5c1,0.3,1,1.1,1.4,0.6c0.4-0.5,0.4-2.4,3.4-2.5
				c2.9-0.1,4.1,0.9,5.5,0.3c1.4-0.6,1.4-2.7,1.4-2.7s-0.4,0.7-1,1c0,0,2.3-3.1-0.4-5.3c-2.6-2.1-5.3-0.7-6.9-0.6
				c-3.4,0.2-5.6,0.4-6.7,2.6C54.1,26.2,54.6,32.3,56.8,34.4z"/>
		</g>
	</g>
	<g>
		<defs>
			<path id="SVGID_1_" d="M213.1,125.6c-18.6,17.1-41.8,17.1-65.4,7.6h0c-13.8-5.6-28.4-15.2-36.3-27.6c-10.7-16.6-7-30.9,1.3-48.7
				c11-23.7,28.8-37.8,55-34.9c33.6,3.7,54.8,28.1,60.6,60.6C231.1,98.9,224.9,114.7,213.1,125.6z"/>
		</defs>
		<clipPath id="SVGID_2_">
			<use xlink:href="#SVGID_1_"  style="overflow:visible;"/>
		</clipPath>
		<g class="st20">
			<g>
				<g>
					<path class="st2" d="M178.7,92.9c0,0-8.7-1.8-10.2-1.6c-1.5,0.1-6.5,2.4-6.6,2.8c-0.1,0.4,0.2,0.7,1.1,0.8
						c0.9,0,3.8-0.4,3.6-0.1c-0.2,0.4-8.5,2.2-8.5,3.9c0,1.7,4.6,4.7,8.5,4.8c3.9,0.1,11.4-4.6,12-4.7
						C184.2,98.2,178.7,92.9,178.7,92.9z"/>
					<g>
						<path class="st3" d="M226.4,73.5c-3.4,4.2-6.2,7.5-7.7,8.7c-1.2,1-2.7,1.9-4.4,2.9c-12.4,7-36.3,14.1-36.3,14.1s0,0,0,0
							c-0.3-0.2-1.9-1.5-3-3.6c-0.9-1.8-0.7-3-0.5-3.6c0.2-0.4,0.4-0.5,0.4-0.5s28.6-18.3,30.9-20.2c1.3-1.1,6-12,9.8-21.3
							c0.5,0.8,1.1,1.6,1.6,2.4C221.1,58.7,224.2,65.9,226.4,73.5z"/>
					</g>
					<g>
						<path class="st5" d="M226.6,105.9c-0.2,0.5-0.4,1-0.6,1.5c-0.9,2.4-2,4.7-3.3,6.9v0c-0.8,1.3-1.6,2.6-2.5,3.8
							c-2,2.8-4.3,5.3-6.8,7.7c0-0.2,0-0.4,0-0.6c0-0.3,0-0.6,0.1-0.9c0-0.6,0.1-1.3,0.1-1.9c0-0.2,0-0.5,0.1-0.7
							c0.1-1.5,0.2-3,0.3-4.4c0-0.4,0.1-0.8,0.1-1.2c0-0.1,0-0.2,0-0.3c0-0.2,0-0.4,0-0.7c0-0.2,0-0.4,0-0.6c0,0,0,0,0-0.1
							c0-0.2,0-0.4,0-0.6c0-0.3,0-0.6,0.1-0.9c0-0.2,0-0.4,0-0.6c0-0.3,0-0.6,0.1-0.9c0-0.1,0-0.1,0-0.2c0-0.1,0-0.3,0-0.4
							c0-0.1,0-0.1,0-0.2c0,0,0,0,0,0c0-0.2,0-0.5,0.1-0.7c0,0,0,0,0,0c0-0.2,0-0.3,0-0.5c0-0.1,0-0.1,0-0.2c0-0.1,0-0.2,0-0.3
							c0-0.1,0-0.1,0-0.2c0-0.5,0.1-1,0.1-1.4c0-0.1,0-0.1,0-0.2c0-0.1,0-0.1,0-0.2c0-0.1,0-0.2,0-0.3c0.1-0.7,0.1-1.3,0.1-1.6
							c0,0,0-0.1,0-0.1c0,0,0,0,0,0c0,0,0-0.1,0-0.1c0-0.1,0-0.1,0-0.1L226.6,105.9z"/>
						<path class="st4" d="M226.6,105.9c-0.2,0.5-0.4,1-0.6,1.5c-0.9,2.4-2,4.7-3.3,6.9v0c-0.8,1.3-1.6,2.6-2.5,3.8
							c-2,2.8-4.3,5.3-6.8,7.7c0-0.2,0-0.4,0-0.6c0-0.3,0-0.6,0.1-0.9c0-0.6,0.1-1.3,0.1-1.9c0-0.2,0-0.5,0.1-0.7
							c0.1-1.5,0.2-3,0.3-4.4c0-0.4,0.1-0.8,0.1-1.2c0-0.1,0-0.2,0-0.3c0-0.2,0-0.4,0-0.7c0-0.2,0-0.4,0-0.6c0,0,0,0,0-0.1
							c0-0.2,0-0.4,0-0.6c0-0.3,0-0.6,0.1-0.9c0-0.2,0-0.4,0-0.6c0-0.3,0-0.6,0.1-0.9c0-0.1,0-0.1,0-0.2c0-0.1,0-0.3,0-0.4
							c0-0.1,0-0.1,0-0.2c0,0,0,0,0,0c0-0.2,0-0.5,0.1-0.7c0,0,0,0,0,0c0-0.2,0-0.3,0-0.5c0-0.1,0-0.1,0-0.2c0-0.1,0-0.2,0-0.3
							c0-0.1,0-0.1,0-0.2c0-0.5,0.1-1,0.1-1.4c0-0.1,0-0.1,0-0.2c0-0.1,0-0.1,0-0.2c0-0.1,0-0.2,0-0.3c0.1-0.7,0.1-1.3,0.1-1.6
							c0,0,0-0.1,0-0.1c0,0,0,0,0,0c0,0,0-0.1,0-0.1c0-0.1,0-0.1,0-0.1L226.6,105.9z"/>
					</g>
					<path class="st8" d="M228.4,82.6c1.5,8.1,0.7,16.1-1.9,23.3c-0.2,0.5-0.4,1-0.6,1.5c-0.9,2.4-2,4.7-3.3,6.9v0
						c-0.8,1.3-1.6,2.6-2.5,3.8c-2.6-0.4-4.6-0.7-5.9-0.7c-0.1,0-0.2,0-0.3,0c-0.3-0.1-0.5-0.2-0.8-0.4c-0.3-0.2,0-12,0.8-26.9
						c0-0.6,0-1.2,0.1-1.8l0-0.2c0-1,0.1-2,0.2-3c0-0.6,0.1-1.2,0.1-1.7c0.2-4,0.5-8,0.9-12.1c0-0.4,0.1-0.8,0.1-1.2
						c0.5-6.2,1.1-12.3,1.8-17.8c4,6.4,7.1,13.5,9.3,21.1C227.2,76.5,227.9,79.5,228.4,82.6z"/>
				</g>
				<g>
					<path class="st21" d="M121.5,104.5c-0.1-4.2-0.4-9.1-0.6-14.5c0-0.6,0-1.2-0.1-1.8l0-0.2c0-0.5,0-1-0.1-1.4c0-0.3,0-0.5,0-0.8
						c0-0.8-0.1-1.6-0.1-2.5c-0.2-4-0.5-8-0.9-12.1c0-0.4-0.1-0.8-0.1-1.2c-0.5-5.8-1-11.4-1.7-16.6v0c0,0,0-0.1,0-0.1
						c-0.1-0.6-0.2-1.3-0.2-1.9c-0.2-1.3-0.3-2.5-0.5-3.7c-0.2,0.4-0.5,0.8-0.7,1.2c-1.4,2.4-2.7,5-4,7.6
						c-2.5,5.4-4.6,11.3-6.4,17.4c0,0,0,0.1,0,0.1c-0.6,2-1,4-1.2,6v0c0,0.3-0.1,0.6-0.1,0.8v0c-0.9,8.9,1.7,17.2,6.5,24.6
						c0.2,0.3,0.3,0.5,0.5,0.8c0.3,0.5,0.7,1,1,1.5c0.3,0.4,0.5,0.7,0.8,1c0.1,0.1,0.1,0.1,0.2,0.2c1.8,2.4,3.9,4.6,6.2,6.8
						c0.4,0.3,0.7,0.7,1.1,1c0.1,0.1,0.2,0.2,0.3,0.3c0.2-0.1,0.4-0.2,0.5-0.3C121.8,116.8,121.8,111.9,121.5,104.5z"/>
					<path class="st22" d="M121.5,104.5c-6.7-7-12.3-15.6-16.8-24.3v0c0.2-2,0.6-3.9,1.2-6c0,0,0-0.1,0-0.1c1.8-6.2,3.9-12,6.4-17.4
						c4.1,5.9,7,11.3,7.2,13.4c0,0.4,0.1,0.8,0.1,1.2c0.3,4,0.6,8.1,0.9,12.1c0.1,0.8,0.1,1.6,0.1,2.5c0,0.3,0,0.5,0,0.8
						c0,0.5,0,1,0.1,1.4l0,0.2c0.1,0.6,0.1,1.2,0.1,1.8C121.1,95.4,121.4,100.4,121.5,104.5z"/>
					<g>
						<path class="st7" d="M151.8,93.4c0,0,8.9,0,10.3,0.4s5.9,3.6,5.9,4.1c0,0.4-0.3,0.7-1.2,0.6c-0.9-0.1-3.6-1.2-3.5-0.8
							c0.1,0.4,7.9,3.9,7.6,5.5c-0.3,1.7-5.5,3.7-9.3,3c-3.8-0.7-10.2-6.7-10.8-6.9C145.5,97.6,151.8,93.4,151.8,93.4z"/>
						<g>
							<path class="st21" d="M153.5,96.4c-0.8,1.4-1.9,2.4-2.6,2.9c-0.4,0.3-0.7,0.5-0.7,0.5s-17.1-6.4-29.5-13.2
								c-4.1-2.2-7.7-4.5-10-6.6c-1-0.9-2.7-3.1-4.7-5.9c1.8-6.2,3.9-12,6.4-17.4c1.2-2.7,2.6-5.2,4-7.6c0.5,1.5,1,3,1.5,4.5v0
								c2.7,7.9,5.5,15.5,6.5,16.5c2.2,2.1,29.5,22.3,29.5,22.3s0.4,0.3,0.4,1.1C154.4,94.1,154.2,95.1,153.5,96.4z"/>
						</g>
					</g>
				</g>
			</g>
			<rect x="140.4" y="33.6" class="st23" width="46.6" height="42.3"/>
			<rect x="140.4" y="31" class="st24" width="46.6" height="2.5"/>
			<g>
				<path class="st23" d="M142,31.8c-0.3,0-0.5,0.2-0.5,0.5c0,0.3,0.2,0.5,0.5,0.5c0.3,0,0.5-0.2,0.5-0.5
					C142.5,32,142.3,31.8,142,31.8z"/>
				<path class="st23" d="M144,31.8c-0.3,0-0.5,0.2-0.5,0.5c0,0.3,0.2,0.5,0.5,0.5c0.3,0,0.5-0.2,0.5-0.5
					C144.5,32,144.3,31.8,144,31.8z"/>
				<path class="st23" d="M146,31.8c-0.3,0-0.5,0.2-0.5,0.5c0,0.3,0.2,0.5,0.5,0.5c0.3,0,0.5-0.2,0.5-0.5
					C146.5,32,146.3,31.8,146,31.8z"/>
			</g>
			<g>
				<path class="st25" d="M154.5,39.1h17.8c0.5,0,0.8-0.4,0.8-0.8l0,0c0-0.5-0.4-0.8-0.8-0.8h-17.8c-0.5,0-0.8,0.4-0.8,0.8l0,0
					C153.6,38.7,154,39.1,154.5,39.1z"/>
				<path class="st25" d="M150.4,42h25.9c0.5,0,0.8-0.4,0.8-0.8c0-0.5-0.4-0.8-0.8-0.8h-25.9c-0.5,0-0.8,0.4-0.8,0.8
					C149.6,41.6,149.9,42,150.4,42z"/>
				<path class="st25" d="M148.2,49.6h31.3c0.3,0,0.6-0.3,0.6-0.6c0-0.3-0.3-0.6-0.6-0.6h-31.3c-0.3,0-0.6,0.3-0.6,0.6
					C147.6,49.4,147.9,49.6,148.2,49.6z"/>
				<path class="st25" d="M179.5,51.3h-31.3c-0.3,0-0.6,0.3-0.6,0.6v0c0,0.3,0.3,0.6,0.6,0.6h31.3c0.3,0,0.6-0.3,0.6-0.6v0
					C180.1,51.5,179.8,51.3,179.5,51.3z"/>
				<path class="st25" d="M179.5,54.1h-31.3c-0.3,0-0.6,0.3-0.6,0.6c0,0.3,0.3,0.6,0.6,0.6h31.3c0.3,0,0.6-0.3,0.6-0.6
					C180.1,54.4,179.8,54.1,179.5,54.1z"/>
			</g>
			<g>
				<path class="st25" d="M151.3,64.5h-3.1c-0.3,0-0.6,0.3-0.6,0.6c0,0.3,0.3,0.6,0.6,0.6h3.1c0.3,0,0.6-0.3,0.6-0.6
					C152,64.8,151.7,64.5,151.3,64.5z"/>
				<path class="st25" d="M156.6,64.5h-3.1c-0.3,0-0.6,0.3-0.6,0.6c0,0.3,0.3,0.6,0.6,0.6h3.1c0.3,0,0.6-0.3,0.6-0.6
					C157.2,64.8,156.9,64.5,156.6,64.5z"/>
			</g>
			<g>
				<path class="st25" d="M174.2,64.5h-3.1c-0.3,0-0.6,0.3-0.6,0.6c0,0.3,0.3,0.6,0.6,0.6h3.1c0.3,0,0.6-0.3,0.6-0.6
					C174.8,64.8,174.6,64.5,174.2,64.5z"/>
				<path class="st25" d="M179.5,64.5h-3.1c-0.3,0-0.6,0.3-0.6,0.6c0,0.3,0.3,0.6,0.6,0.6h3.1c0.3,0,0.6-0.3,0.6-0.6
					C180.1,64.8,179.8,64.5,179.5,64.5z"/>
			</g>
			<g>
				<path class="st25" d="M152.2,66.5c-1.8,0-3.3,1.5-3.3,3.3c0,1.8,1.5,3.3,3.3,3.3c1.8,0,3.3-1.5,3.3-3.3
					C155.5,68,154,66.5,152.2,66.5z M152.2,73c-1.7,0-3.1-1.4-3.1-3.1s1.4-3.1,3.1-3.1c1.7,0,3.1,1.4,3.1,3.1S153.9,73,152.2,73z"/>
				<path class="st25" d="M152.2,67.2c-1.5,0-2.7,1.2-2.7,2.7c0,1.5,1.2,2.7,2.7,2.7s2.7-1.2,2.7-2.7
					C154.9,68.4,153.7,67.2,152.2,67.2z M152.2,72.3c-1.4,0-2.5-1.1-2.5-2.5c0-1.4,1.1-2.5,2.5-2.5c1.4,0,2.5,1.1,2.5,2.5
					C154.7,71.2,153.6,72.3,152.2,72.3z"/>
				<path class="st25" d="M151.3,70.9c-0.4,0-0.5-0.2-0.5-0.5c0-0.2,0.1-0.4,0.3-0.6c0.1,0.3,0.3,0.6,0.5,0.7c0.1,0,0.2,0,0.3-0.1
					c0.1-0.1,0.2-0.2,0.2-0.4c0,0,0.1,0.1,0.1,0.1c0.1,0,0.2-0.1,0.4-0.3c0-0.1,0.1-0.1,0.1-0.2c0,0,0,0,0,0c0,0,0.1,0,0.1,0
					c0.1,0,0.1-0.2,0.2-0.3c0,0,0,0.1,0.1,0.1c0,0,0.1,0,0.2,0c0,0,0-0.1,0-0.1c0,0-0.1-0.1-0.2-0.1c0,0,0,0,0,0
					c0.1-0.2,0.2-0.4,0.1-0.5c0,0,0-0.1-0.1-0.1c-0.1,0-0.1,0.1-0.1,0.2c0,0.1,0,0.2,0,0.4c0,0,0,0,0,0c-0.1,0-0.1,0-0.2,0
					c0-0.1,0-0.1,0-0.1c0,0-0.1,0-0.1,0c0,0-0.1,0.1-0.1,0.1c0,0,0,0,0,0.1c-0.2,0-0.5,0.1-0.7,0.1c-0.3,0.1-0.5,0.2-0.7,0.3
					c0-0.1,0-0.2,0.1-0.3c0.1-0.1,0.2,0,0.3,0l0.1-0.1c0,0-0.2-0.1-0.4,0c-0.1,0.1-0.1,0.2-0.1,0.4c0,0,0,0,0,0.1
					c-0.2,0.2-0.3,0.4-0.3,0.7c0,0.4,0.2,0.6,0.6,0.6c0.3,0,0.6,0,0.9-0.1c0.8-0.2,1.5-0.8,1.6-1.3C153.7,70.2,152.2,71,151.3,70.9z
					 M153,68.8c0,0,0,0.1,0,0.1C153,68.8,153,68.8,153,68.8z M152.7,69.3c0.1,0,0.1,0,0.2,0c-0.1,0.1-0.1,0.2-0.2,0.3c0,0,0,0,0-0.1
					C152.6,69.4,152.7,69.4,152.7,69.3z M152.1,69.3c0.1,0,0.3,0,0.4,0c0,0.1,0,0.1,0,0.2c0,0.1-0.1,0.2-0.1,0.2
					c-0.1,0.2-0.2,0.2-0.3,0.2c0,0-0.1,0-0.1-0.1C152.1,69.7,152.2,69.5,152.1,69.3z M152,69.4c0,0.1,0,0.2,0,0.4
					C152,69.6,152,69.4,152,69.4z M151.4,69.6c0.2-0.1,0.3-0.1,0.5-0.2c0,0.1,0,0.3,0,0.4c0,0.1,0,0.1,0,0.1
					c-0.1,0.1-0.1,0.3-0.3,0.4c-0.1,0.1-0.1,0.1-0.2,0.1c-0.2,0-0.3-0.3-0.4-0.7C151.2,69.7,151.3,69.6,151.4,69.6z"/>
				<path class="st25" d="M153.9,69.6C153.9,69.6,153.9,69.6,153.9,69.6C153.9,69.6,153.9,69.6,153.9,69.6z"/>
			</g>
			<g>
				<path class="st25" d="M175.2,66.6c-1.9,0-3.4,1.5-3.4,3.4c0,1.9,1.5,3.4,3.4,3.4c1.9,0,3.4-1.5,3.4-3.4
					C178.6,68.1,177.1,66.6,175.2,66.6z M175.2,73.2c-1.8,0-3.2-1.4-3.2-3.2c0-1.8,1.4-3.2,3.2-3.2c1.8,0,3.2,1.4,3.2,3.2
					C178.4,71.8,177,73.2,175.2,73.2z"/>
				<path class="st25" d="M175.2,67.3c-1.5,0-2.7,1.2-2.7,2.7s1.2,2.7,2.7,2.7c1.5,0,2.7-1.2,2.7-2.7S176.7,67.3,175.2,67.3z
					 M175.2,72.6c-1.4,0-2.6-1.1-2.6-2.6c0-1.4,1.1-2.6,2.6-2.6s2.6,1.1,2.6,2.6C177.7,71.4,176.6,72.6,175.2,72.6z"/>
				<path class="st25" d="M176.9,69.8C176.9,69.7,176.9,69.7,176.9,69.8C176.9,69.7,176.9,69.7,176.9,69.8z"/>
				<path class="st25" d="M174.3,71.1c-0.4,0-0.6-0.2-0.6-0.5c0-0.2,0.1-0.4,0.3-0.6c0.1,0.4,0.3,0.7,0.5,0.7c0.1,0,0.2,0,0.3-0.1
					c0.1-0.1,0.2-0.3,0.2-0.4c0,0,0.1,0.1,0.1,0.1c0.1,0,0.3-0.1,0.4-0.3c0-0.1,0.1-0.1,0.1-0.2c0,0,0,0,0,0c0,0,0.1,0,0.1,0
					c0.1-0.1,0.1-0.2,0.2-0.3c0,0,0,0.1,0.1,0.1c0,0,0.1,0,0.2,0c0,0,0-0.1,0-0.1c0,0-0.1-0.1-0.2-0.1c0,0,0,0,0,0
					c0.1-0.2,0.2-0.4,0.1-0.5c0,0,0-0.1-0.1-0.1c-0.1,0-0.1,0.1-0.1,0.2c0,0.1,0,0.2,0,0.4c0,0,0,0,0,0c-0.1,0-0.1,0-0.2,0
					c0-0.1,0-0.1,0-0.1c0,0-0.1,0-0.1,0c0,0-0.1,0.1-0.1,0.1c0,0,0,0,0,0.1c-0.2,0-0.5,0.1-0.7,0.1c-0.3,0.1-0.5,0.2-0.7,0.3
					c0-0.1,0-0.2,0.1-0.3c0.1-0.1,0.2,0,0.3,0l0.1-0.1c0,0-0.3-0.1-0.4,0c-0.1,0.1-0.1,0.2-0.1,0.4c0,0,0,0,0,0.1
					c-0.2,0.2-0.4,0.5-0.3,0.7c0,0.4,0.2,0.6,0.7,0.6c0.3,0,0.6,0,1-0.2c0.8-0.3,1.5-0.8,1.7-1.3C176.7,70.4,175.1,71.2,174.3,71.1z
					 M176,68.9c0,0,0,0.1,0,0.1C176,69,176,68.9,176,68.9z M175.7,69.4c0.1,0,0.1,0,0.2,0c-0.1,0.1-0.1,0.2-0.2,0.3c0,0,0,0,0-0.1
					C175.6,69.6,175.7,69.5,175.7,69.4z M175.1,69.5c0.1,0,0.3,0,0.4,0c0,0.1,0,0.1,0,0.2c0,0.1-0.1,0.2-0.1,0.2
					c-0.1,0.2-0.2,0.2-0.3,0.2c0,0-0.1,0-0.1-0.1C175.1,69.9,175.2,69.6,175.1,69.5z M175,69.5c0.1,0.1,0,0.2,0,0.4
					C174.9,69.8,175,69.6,175,69.5z M174.4,69.7c0.2-0.1,0.3-0.1,0.5-0.2c0,0.1,0,0.3,0,0.4c0,0.1,0,0.1,0,0.1
					c-0.1,0.2-0.2,0.3-0.3,0.4c-0.1,0.1-0.1,0.1-0.2,0.1c-0.2,0-0.3-0.3-0.4-0.7C174.1,69.8,174.2,69.8,174.4,69.7z"/>
			</g>
			<g>
				<g>
					<path class="st13" d="M191.2,108.9l-4.1,5.5l-0.4,0.5l-0.2,0.3l-0.5,0.7l-0.3,0.4l-0.5,0.7l-0.5,0.7l-0.5,0.7l0,0v0l-0.5,0.6
						l0,0l-0.1,0.1l0,0c0,0,0,0,0,0l-0.1,0.1v0l-0.5,0.6v0.1l-0.5,0.6c0,0,0,0,0,0l-0.6,0.8c0,0,0,0,0,0l-0.5,0.6v0l-0.5,0.7v0
						l-0.8,1.1v0h0l-0.1,0.1l-0.3,0.4v0l-0.7,0.9l-0.9,1.1v0.1l-0.5,0.6l0,0.1v0l-0.6,0.8h0l-0.6,0.8l0,0h0l-1.4,2c0,0,0,0,0,0
						l-2.2,2.9l-3.6,4.9l-0.4,0.6l-0.3,0.4c0.1,0,0.3,0,0.4,0.1c0,0,0,0,0,0c0.5,0.1,1,0.1,1.4,0.2c0.1,0,0.3,0,0.4,0
						c0.1,0,0.2,0,0.3,0c0.2,0,0.4,0,0.6,0.1c0.1,0,0.2,0,0.3,0c0,0,0.1,0,0.1,0c0.1,0,0.3,0,0.4,0c0,0,0.1,0,0.1,0
						c0.3,0,0.6,0,0.9,0.1c0.1,0,0.3,0,0.4,0c0.1,0,0.2,0,0.3,0c0,0,0,0,0.1,0c0.2,0,0.3,0,0.5,0c0.1,0,0.3,0,0.4,0
						c0.2,0,0.3,0,0.5,0c0.1,0,0.3,0,0.4,0c0.1,0,0.3,0,0.4,0c0.1,0,0.3,0,0.4,0c0.1,0,0.1,0,0.2,0c0.1,0,0.2,0,0.2,0
						c0.1,0,0.1,0,0.2,0c0.1,0,0.1,0,0.2,0c0.1,0,0.1,0,0.2,0c0,0,0,0,0.1,0c0,0,0.1,0,0.1,0c0.1,0,0.1,0,0.2,0c1,0,2.1-0.1,3.1-0.2
						h0c1.2-0.1,2.4-0.2,3.5-0.4c1.3-0.2,2.5-0.4,3.7-0.7c0,0,0,0,0.1,0c0,0,0,0,0,0l1.2-0.3c0.2,0,0.3-0.1,0.5-0.1
						c1.5-0.4,3-0.8,4.4-1.3c0.2-0.1,0.5-0.2,0.7-0.3c0.1,0,0.1,0,0.2-0.1c0.5-0.2,0.9-0.3,1.3-0.5c0.1,0,0.2-0.1,0.4-0.1v0
						c0,0,0,0,0.1,0v0c0.1-0.1,0.3-0.1,0.4-0.2c0.1,0,0.2-0.1,0.3-0.1c0.1-0.1,0.2-0.1,0.4-0.2c0.1,0,0.2-0.1,0.2-0.1l0,0
						c0.1-0.1,0.3-0.1,0.4-0.2l0,0c1.3-0.6,2.7-1.3,3.9-2c0.1-0.1,0.3-0.1,0.4-0.2l0,0l7.1-9.5L191.2,108.9z"/>
					<g>
						<path class="st12" d="M180.5,128.6v0.6l0.4-0.6l0,0v0H180.5z M179.7,129.3c-0.2,0.1-0.3,0.1-0.4,0.2l-0.9,1.2l-0.7,0.9l0,1.2
							l0.8-1.1l2-2.7C180.3,129.2,180,129.2,179.7,129.3z M176.4,133.5l-0.1,0.1l-0.4,0.5l-1.8,2.4l0,1.2l1.3-1.7l1-1.4l0.5-0.7
							l0.4-0.5h0v0H176.4z M191.4,113.2l-4.2,5.7l0,0.1l-0.3,0.3l-0.3,0.4l-0.2,0.2v0l-0.8,1.1l-0.3,0.4v0.1l-0.2,0.3l-0.3,0.4
							l-1.2,1.6v0l0,0l-0.1,0.1v0l-0.4,0.5v0.1l-1.1,1.4l-0.4,0.6l-0.1,0.1l-1.2,1.6l-0.4,0.5l0,0l-0.7,0.9l-0.9,1.2l-0.7,0.9
							l-0.5,0.7l-0.8,1.1l-0.1,0.1l-0.4,0.5l-1.8,2.4l-0.5,0.7l-0.8,1.1l-1,1.3c0.1,0,0.2,0,0.3,0c0,0,0.1,0,0.1,0
							c0.1,0,0.3,0,0.4,0c0,0,0.1,0,0.1,0l1-1.4h0l0.4-0.6l1.3-1.7l1-1.4l0.5-0.7l0.4-0.5h0v0l0.4-0.6l0.8-1.1l2-2.7l0,0l0.4-0.6
							l0,0v0l0.6-0.8v-0.1l0.5-0.7l0.4-0.5l0.7-1l0.5-0.7l0.6-0.8l0.2-0.3l0.1-0.1v0l0.3-0.4l0.5-0.7l0.5-0.7l0.5-0.7l0.1-0.1v0
							l0.5-0.7l0.4-0.5l0.2-0.2l0,0l0.5-0.6l0-0.1l0.1-0.1l1.9-2.6c0.9-1.2,2.5-1.4,3.7-0.6l9.8,7.3c1.3,1,1.6,2.8,0.6,4.1l-5.9,8
							l-0.3,0.5c0.1,0,0.2-0.1,0.3-0.1c0.1-0.1,0.2-0.1,0.4-0.2c0.1,0,0.2-0.1,0.2-0.1l0,0c0.1-0.1,0.3-0.1,0.4-0.2l0,0l7.7-10.4
							L191.4,113.2z M176.4,133.5l-0.1,0.1l-0.4,0.5l-1.8,2.4l0,1.2l1.3-1.7l1-1.4l0.5-0.7l0.4-0.5h0v0H176.4z M179.7,129.3
							c-0.2,0.1-0.3,0.1-0.4,0.2l-0.9,1.2l-0.7,0.9l0,1.2l0.8-1.1l2-2.7C180.3,129.2,180,129.2,179.7,129.3z M180.5,128.6v0.6
							l0.4-0.6l0,0v0H180.5z"/>
					</g>
					<path class="st12" d="M188.7,138.6C188.7,138.6,188.7,138.6,188.7,138.6C188.7,138.6,188.7,138.6,188.7,138.6
						c-1.3,0.3-2.5,0.5-3.8,0.7c-1.2,0.2-2.3,0.3-3.5,0.4h0c-1,0.1-2.1,0.1-3.1,0.2c-0.1,0-0.1,0-0.2,0c0,0-0.1,0-0.1,0
						c0,0,0,0-0.1,0c0-0.2,0-0.3,0-0.5c0-0.4,0-0.7,0.1-1.1c0.2-0.9,0.5-1.7,1.1-2.4c0,0,0,0,0,0c0.3-0.4,0.6-0.7,0.9-1
						c0.2-0.1,0.3-0.3,0.5-0.4c0.5-0.3,1-0.6,1.5-0.8c0.2-0.1,0.3-0.1,0.5-0.1c0.4-0.1,0.8-0.1,1.2-0.2c0.2,0,0.3,0,0.5,0
						c0.4,0,0.7,0.1,1.1,0.2c0.2,0,0.3,0.1,0.5,0.1c0.2,0.1,0.4,0.1,0.6,0.2c0.2,0.1,0.3,0.2,0.5,0.3c0.2,0.1,0.4,0.2,0.5,0.3
						c0,0,0.1,0,0.1,0.1c0.1,0.1,0.3,0.2,0.4,0.3v0c0,0,0,0,0,0c0.1,0.1,0.2,0.2,0.3,0.3c0.2,0.2,0.3,0.4,0.5,0.6v0
						c0.1,0.1,0.1,0.2,0.2,0.3v0c0.2,0.3,0.4,0.6,0.5,0.9v0c0.1,0.1,0.1,0.3,0.2,0.4v0c0.1,0.3,0.2,0.6,0.3,0.9L188.7,138.6z"/>
				</g>
				<path class="st26" d="M183.6,119.2L183.6,119.2l-0.5,0.6v0l-0.5,0.6l-0.6,0.8c0,0,0,0,0,0l-0.5,0.6v0l-0.5,0.7v0l-0.8,1.1v0h0
					l-0.1,0.1l-0.3,0.4v0l-0.7,0.9l-0.9,1.1v0l-0.5,0.6l0,0.1v0l-0.6,0.8l-0.6,0.8l0,0h0l-1.4,2c0,0,0,0,0,0l-2.2,2.9l-3.6,4.9
					l-0.4,0.6l-0.3,0.4c0.1,0,0.3,0,0.4,0.1c0,0,0,0,0,0c0.5,0.1,1,0.1,1.4,0.2c0.1,0,0.3,0,0.4,0c0.1,0,0.2,0,0.3,0
					c0.2,0,0.4,0,0.6,0.1c0.1,0,0.2,0,0.3,0c0,0,0.1,0,0.1,0c0.1,0,0.3,0,0.4,0c0,0,0.1,0,0.1,0c0.3,0,0.6,0,0.9,0.1
					c0.1,0,0.3,0,0.4,0c0.1,0,0.2,0,0.3,0c0,0,0,0,0.1,0c0.1-0.5,0.2-1,0.4-1.5c0.2-0.8,0.4-1.5,0.7-2.3c0.2-0.6,0.4-1.2,0.6-1.8
					c0.1-0.2,0.2-0.5,0.3-0.7c0,0,0-0.1,0.1-0.1h0c0.3-0.7,0.6-1.4,0.9-2v0c0.2-0.4,0.3-0.7,0.5-1c0.3-0.6,0.6-1.2,0.8-1.8
					c0,0,0,0,0,0c0.4-0.8,0.8-1.5,1.2-2.2c0.1-0.1,0.1-0.2,0.2-0.2v0c0.2-0.3,0.3-0.6,0.5-0.9c0.2-0.5,0.5-0.9,0.7-1.3
					c0,0,0-0.1,0.1-0.1c0.1-0.3,0.3-0.5,0.4-0.7v0c0.3-0.6,0.6-1.1,0.9-1.6c0.2-0.3,0.3-0.6,0.5-0.8c0.1-0.1,0.1-0.2,0.2-0.3
					C183.3,119.8,183.5,119.5,183.6,119.2c0,0,0.1-0.1,0.1-0.1L183.6,119.2z"/>
			</g>
			<g>
				<g>
					<path class="st27" d="M189.6,134.5l0,2.8c0,0,0,0.1,0,0.1v0c0,0.2-0.1,0.4-0.2,0.5c-0.1,0.2-0.3,0.3-0.5,0.4c0,0-0.1,0-0.1,0
						c0,0,0,0,0,0c0,0-0.1,0-0.1,0c0,0-0.1,0-0.1,0l-0.3,0h-1.3l-1.1,0h-0.5l-1.1,0h-0.5l-1.2,0H182l-1.5,0H180l-2,0l-0.6,0h-0.5
						l-2.2,0h-1.1l-0.8,0l-3.4,0h-0.8l-0.6,0h-0.2l-1.4,0l-2,0h-1v0h0c-0.6-0.1-1.1-0.3-1.7-0.4c-0.1,0-0.3-0.1-0.4-0.1
						c-0.4-0.1-0.8-0.2-1.1-0.3c-0.2,0-0.3-0.1-0.5-0.1c-0.3-0.1-0.6-0.1-0.9-0.2c-0.3-0.1-0.6-0.2-0.9-0.3c-0.1,0-0.3-0.1-0.4-0.1
						c-0.8-0.2-1.5-0.4-2.3-0.7h0c0,0-0.1,0-0.1,0c-0.2-0.1-0.5-0.1-0.7-0.2c-0.1,0-0.3-0.1-0.4-0.1c-2.2-0.7-4.3-1.5-6.4-2.3h0.6
						l11.5,0h0.5l3.1,0h0.7v0h1.5v0h1.9l0,0h1.6l0,0h0.2l2.5,0h0.6l0.5,0h0.3l2.5,0l0.8,0h1l0.4,0l2.3,0h0.5l0.5,0l1,0h2.1l1.5,0
						h0.1c0,0,0,0,0,0l0.4,0h1.2l0.5,0h0.7c0,0,0,0,0,0h0c0,0,0.1,0,0.1,0c0.1,0,0.1,0,0.2,0.1c0.2,0.1,0.4,0.2,0.5,0.4
						C189.5,134.1,189.6,134.3,189.6,134.5z"/>
					<path class="st28" d="M168,138.3h-0.2l-1.4,0l-2,0h-0.5l-0.5,0h0c-0.6-0.1-1.1-0.3-1.7-0.4c-0.1,0-0.3-0.1-0.4-0.1
						c-0.4-0.1-0.8-0.2-1.1-0.3c-0.2,0-0.3-0.1-0.5-0.1c-0.3-0.1-0.6-0.1-0.9-0.2c-0.3-0.1-0.6-0.2-0.9-0.3c-0.1,0-0.3-0.1-0.4-0.1
						c-0.8-0.2-1.5-0.4-2.3-0.7h0c0,0-0.1,0-0.1,0c-0.2-0.1-0.5-0.1-0.7-0.2c-0.1,0-0.3-0.1-0.4-0.1c-2.2-0.7-4.3-1.5-6.4-2.3h0.6
						l11.5,0h0.5l3.1,0h0.7l0,0h1.2c0.2,0.7,0.4,1.5,0.8,2.3c0.4,0.8,1,1.6,1.7,2.3c0,0,0.1,0.1,0.1,0.1c0,0,0,0,0,0
						C167.9,138.3,168,138.3,168,138.3z"/>
					<g>
						<rect x="183.7" y="133.5" class="st28" width="0.5" height="4.9"/>
						<rect x="182.1" y="133.5" class="st28" width="0.5" height="4.9"/>
						
							<rect x="180" y="133.5" transform="matrix(1 1.036765e-03 -1.036765e-03 1 0.141 -0.1868)" class="st28" width="0.5" height="4.9"/>
						<rect x="176.9" y="133.5" class="st28" width="0.5" height="4.9"/>
						<rect x="173.6" y="133.5" class="st28" width="0.5" height="4.9"/>
						<rect x="168.6" y="133.5" class="st28" width="0.5" height="4.9"/>
						<rect x="163.9" y="133.5" class="st28" width="0.5" height="4.9"/>
						<path class="st28" d="M160.2,133.5l0,4.1c-0.2,0-0.3-0.1-0.5-0.1l0-4H160.2z"/>
						<rect x="185.3" y="133.5" class="st28" width="0.5" height="4.9"/>
						<rect x="186.4" y="133.5" class="st28" width="0.5" height="4.9"/>
						
							<rect x="187.4" y="133.5" transform="matrix(1 1.036737e-03 -1.036737e-03 1 0.141 -0.1945)" class="st28" width="0.5" height="4.9"/>
						<path class="st28" d="M188.7,133.5l0,4.8c-0.1,0-0.1,0-0.2,0l-0.3,0l0-4.9l0.3,0C188.6,133.5,188.6,133.5,188.7,133.5z"/>
						<path class="st28" d="M189.4,133.9l0,3.9c-0.1,0.2-0.3,0.3-0.5,0.4l0-4.7C189.1,133.6,189.3,133.8,189.4,133.9z"/>
					</g>
				</g>
				<g>
					<path class="st27" d="M193.2,129.7l0,2.8c0,0.2-0.1,0.4-0.2,0.6c-0.1,0.2-0.3,0.3-0.5,0.4c-0.1,0-0.1,0-0.2,0.1
						c-0.1,0-0.1,0-0.2,0l-43.9,0c-0.6,0-1-0.4-1.1-1c0,0,0,0,0-0.1l0-2.8c0,0,0,0,0-0.1c0-0.5,0.4-0.9,0.9-1c0,0,0.1,0,0.1,0
						l43.9,0c0.1,0,0.1,0,0.2,0c0.1,0,0.1,0,0.2,0.1c0.2,0.1,0.4,0.2,0.5,0.4C193.1,129.2,193.2,129.4,193.2,129.7z"/>
					<path class="st28" d="M171.6,133.5l-23.5,0c-0.5,0-0.9-0.4-0.9-1c0,0,0,0,0-0.1l0-2.8c0,0,0,0,0-0.1c0-0.5,0.4-0.9,0.8-1
						c0,0,0.1,0,0.1,0l20.6,0c0,0,0,0,0,0C169.1,130,169.8,132,171.6,133.5z"/>
					<g>
						<rect x="187.3" y="128.6" class="st28" width="0.5" height="4.9"/>
						<rect x="185.6" y="128.6" class="st28" width="0.5" height="4.9"/>
						<rect x="183.6" y="128.6" class="st28" width="0.5" height="4.9"/>
						<rect x="180.5" y="128.6" class="st28" width="0.5" height="4.9"/>
						<rect x="177.2" y="128.6" class="st28" width="0.5" height="4.9"/>
						<rect x="172.2" y="128.6" class="st28" width="0.5" height="4.9"/>
						<rect x="167.5" y="128.6" class="st28" width="0.5" height="4.9"/>
						<rect x="163.3" y="128.6" class="st28" width="0.5" height="4.9"/>
						<rect x="188.9" y="128.6" class="st28" width="0.5" height="4.9"/>
						<rect x="190" y="128.6" class="st28" width="0.5" height="4.9"/>
						<rect x="191" y="128.6" class="st28" width="0.5" height="4.9"/>
						<path class="st28" d="M192.3,128.6l0,4.8c-0.1,0-0.1,0-0.2,0l-0.3,0l0-4.9l0.3,0C192.2,128.6,192.2,128.6,192.3,128.6z"/>
						<path class="st28" d="M193,129.1l0,3.9c-0.1,0.2-0.3,0.3-0.5,0.4l0-4.7C192.7,128.7,192.9,128.9,193,129.1z"/>
					</g>
				</g>
				<g>
					<path class="st27" d="M187.4,124.8l0,2.8c0,0.2-0.1,0.4-0.2,0.6c-0.1,0.2-0.3,0.3-0.5,0.4c-0.1,0-0.1,0-0.2,0.1c0,0,0,0-0.1,0
						c0,0,0,0,0,0c0,0,0,0,0,0c0,0,0,0-0.1,0l-43.9,0c-0.6,0-1-0.4-1.1-1c0,0,0,0,0-0.1l0-2.8c0,0,0,0,0-0.1c0-0.6,0.5-1,1.1-1
						l43.9,0c0,0,0,0,0.1,0c0,0,0.1,0,0.1,0c0.1,0,0.1,0,0.2,0.1c0,0,0.1,0,0.1,0c0,0,0,0,0.1,0c0,0,0,0,0,0c0,0,0,0,0.1,0
						c0,0,0,0,0,0c0,0,0,0,0,0c0,0,0.1,0.1,0.1,0.1c0,0,0,0,0,0c0,0,0,0,0,0c0,0,0,0,0,0c0,0,0,0,0,0c0,0,0,0,0,0c0,0,0,0,0,0.1
						C187.3,124.4,187.4,124.6,187.4,124.8z"/>
					<path class="st28" d="M165.9,128.6l-23.5,0c-0.5,0-0.9-0.4-0.9-1c0,0,0,0,0-0.1l0-2.8c0,0,0,0,0-0.1c0-0.6,0.4-1,0.9-1l20.6,0
						c0,0,0,0.1,0,0.1C163.3,125.2,164.1,127.2,165.9,128.6C165.8,128.6,165.8,128.6,165.9,128.6z"/>
					<g>
						<rect x="181.6" y="123.7" class="st28" width="0.5" height="4.9"/>
						<rect x="179.9" y="123.7" class="st28" width="0.5" height="4.9"/>
						<rect x="177.9" y="123.7" class="st28" width="0.5" height="4.9"/>
						<rect x="174.8" y="123.7" class="st28" width="0.5" height="4.9"/>
						<rect x="171.5" y="123.7" class="st28" width="0.5" height="4.9"/>
						<rect x="166.4" y="123.7" class="st28" width="0.5" height="4.9"/>
						<rect x="161.7" y="123.7" class="st28" width="0.5" height="4.9"/>
						
							<rect x="157.5" y="123.7" transform="matrix(1 1.036737e-03 -1.036737e-03 1 0.1309 -0.1635)" class="st28" width="0.5" height="4.9"/>
						<rect x="183.2" y="123.7" class="st28" width="0.5" height="4.9"/>
						<rect x="184.2" y="123.7" class="st28" width="0.5" height="4.9"/>
						<rect x="185.3" y="123.7" class="st28" width="0.5" height="4.9"/>
						<path class="st28" d="M186.5,123.7l0,4.8c-0.1,0-0.1,0-0.2,0l-0.3,0l0-4.9l0.3,0C186.4,123.7,186.5,123.7,186.5,123.7z"/>
						<path class="st28" d="M187.2,124.2l0,3.9c-0.1,0.2-0.3,0.3-0.5,0.4l0-4.7C186.9,123.9,187.1,124,187.2,124.2z"/>
					</g>
				</g>
				<g>
					<path class="st27" d="M190.6,120l0,2.8c0,0.2-0.1,0.4-0.2,0.6c-0.1,0.2-0.3,0.3-0.5,0.4c-0.1,0-0.1,0-0.2,0.1
						c-0.1,0-0.1,0-0.2,0l-43.9,0c-0.2,0-0.3,0-0.5-0.1c-0.3-0.2-0.5-0.5-0.6-0.9c0,0,0,0,0,0c0,0,0,0,0-0.1l0-2.8c0,0,0,0,0-0.1
						c0-0.5,0.4-0.9,0.9-1c0,0,0.1,0,0.1,0l43.9,0c0.1,0,0.1,0,0.2,0c0.1,0,0.1,0,0.2,0.1c0.2,0.1,0.4,0.2,0.5,0.4
						C190.6,119.6,190.6,119.8,190.6,120z"/>
					<path class="st28" d="M169.1,123.8l-23.5,0c-0.2,0-0.3,0-0.4-0.1c-0.3-0.2-0.5-0.5-0.5-0.9c0,0,0,0,0,0c0,0,0,0,0-0.1l0-2.8
						c0,0,0,0,0-0.1c0-0.5,0.4-0.9,0.8-1c0,0,0.1,0,0.1,0l20.6,0c0,0,0,0,0,0c0.3,1.4,1.1,3.3,2.7,4.8
						C169,123.7,169,123.8,169.1,123.8z"/>
					<g>
						<rect x="184.8" y="118.9" class="st28" width="0.5" height="4.9"/>
						<rect x="183.1" y="118.9" class="st28" width="0.5" height="4.9"/>
						<rect x="181.1" y="118.9" class="st28" width="0.5" height="4.9"/>
						<rect x="178" y="118.9" class="st28" width="0.5" height="4.9"/>
						<rect x="174.7" y="118.9" class="st28" width="0.5" height="4.9"/>
						<rect x="169.7" y="118.9" class="st28" width="0.5" height="4.9"/>
						<rect x="165" y="118.9" class="st28" width="0.5" height="4.9"/>
						<rect x="160.7" y="118.9" class="st28" width="0.5" height="4.9"/>
						<rect x="186.4" y="118.9" class="st28" width="0.5" height="4.9"/>
						<rect x="187.5" y="118.9" class="st28" width="0.5" height="4.9"/>
						<rect x="188.5" y="118.9" class="st28" width="0.5" height="4.9"/>
						<path class="st28" d="M189.8,119l0,4.8c-0.1,0-0.1,0-0.2,0l-0.3,0l0-4.9l0.3,0C189.6,119,189.7,119,189.8,119z"/>
						<path class="st28" d="M190.5,119.4l0,3.9c-0.1,0.2-0.3,0.3-0.5,0.4l0-4.7C190.2,119.1,190.3,119.2,190.5,119.4z"/>
					</g>
				</g>
				<g>
					<path class="st27" d="M187.4,115.1l0,2.8c0,0.2-0.1,0.4-0.2,0.6c-0.1,0.2-0.3,0.3-0.5,0.4c-0.1,0-0.1,0-0.2,0.1c0,0,0,0-0.1,0
						c0,0,0,0,0,0c0,0,0,0,0,0c0,0,0,0-0.1,0l-43.9,0c-0.6,0-1-0.4-1.1-1c0,0,0,0,0-0.1l0-2.8c0,0,0,0,0-0.1c0-0.6,0.5-1,1.1-1
						l43.9,0c0.1,0,0.1,0,0.2,0c0.1,0,0.1,0,0.2,0.1c0.2,0.1,0.4,0.2,0.5,0.4C187.4,114.7,187.4,114.9,187.4,115.1z"/>
					<path class="st28" d="M165.9,118.9l-23.5,0c-0.5,0-0.9-0.4-0.9-1c0,0,0,0,0-0.1l0-2.8c0,0,0,0,0-0.1c0-0.6,0.4-1,0.9-1l20.6,0
						C163.3,115.5,164.1,117.5,165.9,118.9C165.9,118.9,165.9,118.9,165.9,118.9z"/>
					<g>
						
							<rect x="181.6" y="114.1" transform="matrix(1 1.036765e-03 -1.036765e-03 1 0.1209 -0.1884)" class="st28" width="0.5" height="4.9"/>
						<rect x="179.9" y="114.1" class="st28" width="0.5" height="4.9"/>
						<rect x="177.9" y="114.1" class="st28" width="0.5" height="4.9"/>
						<rect x="174.8" y="114.1" class="st28" width="0.5" height="4.9"/>
						<rect x="171.5" y="114.1" class="st28" width="0.5" height="4.9"/>
						<rect x="166.4" y="114.1" class="st28" width="0.5" height="4.9"/>
						<rect x="161.7" y="114.1" class="st28" width="0.5" height="4.9"/>
						<rect x="157.5" y="114.1" class="st28" width="0.5" height="4.9"/>
						<rect x="183.2" y="114.1" class="st28" width="0.5" height="4.9"/>
						<rect x="184.2" y="114.1" class="st28" width="0.5" height="4.9"/>
						<rect x="185.3" y="114.1" class="st28" width="0.5" height="4.9"/>
						<path class="st28" d="M186.5,114.1l0,4.8c-0.1,0-0.1,0-0.2,0l-0.3,0l0-4.9l0.3,0C186.4,114.1,186.5,114.1,186.5,114.1z"/>
						<path class="st28" d="M187.2,114.5l0,3.9c-0.1,0.2-0.3,0.3-0.5,0.4l0-4.7C186.9,114.2,187.1,114.4,187.2,114.5z"/>
					</g>
				</g>
			</g>
			<path class="st29" d="M193.4,137.3c-1,0.3-2,0.6-3,0.9c-0.2,0-0.3,0.1-0.5,0.1c-0.4,0.1-0.8,0.2-1.1,0.3c0,0,0,0-0.1,0
				c-1.2,0.3-2.5,0.5-3.7,0.7c-1.2,0.2-2.3,0.3-3.5,0.4h0c-1,0.1-2.1,0.1-3.1,0.2c-0.1,0-0.1,0-0.2,0c0,0-0.1,0-0.1,0c0,0,0,0-0.1,0
				c-0.1,0-0.1,0-0.2,0c-0.1,0-0.1,0-0.2,0c-0.1,0-0.1,0-0.2,0c-0.1,0-0.2,0-0.2,0c-0.1,0-0.1,0-0.2,0c-0.1,0-0.3,0-0.4,0
				c-0.1,0-0.3,0-0.4,0c-0.1,0-0.3,0-0.4,0c-0.2,0-0.3,0-0.5,0c-0.1,0-0.3,0-0.4,0c-0.2,0-0.3,0-0.5,0c0,0,0,0-0.1,0
				c-0.1,0-0.2,0-0.3,0c-0.1,0-0.3,0-0.4,0c-0.3,0-0.6,0-0.9-0.1c0,0-0.1,0-0.1,0c-0.1,0-0.3,0-0.4,0c0,0-0.1,0-0.1,0
				c-0.1,0-0.2,0-0.3,0c-0.2,0-0.4,0-0.6-0.1c-0.1,0-0.2,0-0.3,0c-0.1,0-0.3,0-0.4,0c-0.5-0.1-1-0.1-1.4-0.2c0,0,0,0,0,0
				c-0.1,0-0.3,0-0.4-0.1c0,0-0.1,0-0.1,0c0,0-0.1,0-0.1,0c-0.1,0-0.2,0-0.3,0c0,0-0.1,0-0.1,0c0,0,0,0,0,0l0,0c0,0,0,0,0,0
				c-0.4-0.1-0.7-0.1-1.1-0.2c-0.1,0-0.3,0-0.4-0.1c-0.1,0-0.3,0-0.4-0.1c-0.1,0-0.3-0.1-0.4-0.1c-0.1,0-0.3-0.1-0.4-0.1
				c-0.7-0.1-1.3-0.3-2-0.4h0v0h0c-0.6-0.1-1.1-0.3-1.7-0.4c-0.1,0-0.3-0.1-0.4-0.1c-0.1,0-0.1,0-0.2,0c-0.5-6,2.4-11.9,8-15
				c0.2-0.1,0.4-0.2,0.6-0.3c0.2-0.1,0.4-0.2,0.6-0.3c7.5-4.2,17-1.4,21.2,6.1C193.1,131.2,193.7,134.3,193.4,137.3z"/>
			<g>
				<path class="st29" d="M196.4,126.3c-1.4-2.5-3.4-4.5-5.7-5.9c-0.1,0-0.1-0.1-0.2-0.1c-0.2-0.1-0.3-0.2-0.5-0.3
					c-0.1,0-0.1-0.1-0.2-0.1c-0.2-0.1-0.3-0.2-0.5-0.2c-0.1,0-0.2-0.1-0.3-0.1c-0.2-0.1-0.3-0.1-0.5-0.2c-0.2-0.1-0.3-0.1-0.5-0.2
					c0,0,0,0,0,0c-0.2-0.1-0.3-0.1-0.5-0.2c0,0-0.1,0-0.1,0h0c0,0-0.1,0-0.1-0.1c-0.1,0-0.2-0.1-0.3-0.1c-0.1,0-0.1,0-0.2,0
					c-0.1,0-0.1,0-0.2-0.1c-0.2,0-0.3-0.1-0.5-0.1c-0.1,0-0.2,0-0.3-0.1c-0.2,0-0.3-0.1-0.5-0.1c-0.2,0-0.4-0.1-0.5-0.1
					c-0.2,0-0.3,0-0.5-0.1c0,0,0,0,0,0c-0.2,0-0.4,0-0.6,0c-0.2,0-0.3,0-0.5,0c-0.4,0-0.7,0-1.1,0c-0.2,0-0.3,0-0.5,0
					c-0.4,0-0.8,0.1-1.2,0.1c-0.2,0-0.3,0.1-0.5,0.1c-0.5,0.1-1,0.2-1.5,0.4c-0.1,0-0.2,0.1-0.3,0.1c0,0,0,0,0,0c0,0,0,0,0,0
					c0,0,0,0,0,0c-0.9,0.3-1.9,0.7-2.8,1.2c0,0,0,0,0,0c-0.2,0.1-0.3,0.2-0.5,0.3c0,0-0.1,0-0.1,0.1c-1.5,0.9-2.7,2-3.8,3.2
					c0,0-0.1,0.1-0.1,0.1c-1.2,1.4-2.1,3-2.7,4.8c0,0,0,0,0,0c0,0,0,0.1,0,0.1c-0.2,0.6-0.4,1.2-0.5,1.8v0c-0.2,1-0.3,1.9-0.4,2.9v0
					c0,1.5,0.2,3.1,0.6,4.6c0,0.1,0.1,0.2,0.1,0.3c0.1,0.3,0.2,0.6,0.3,0.9c0,0,0.1,0,0.1,0c0.1,0,0.2,0,0.3,0c0,0,0.1,0,0.1,0
					c0,0,0.1,0,0.1,0c0.1,0,0.3,0,0.4,0.1c0,0,0,0,0,0c0.5,0.1,1,0.1,1.4,0.2c0.1,0,0.3,0,0.4,0c0.1,0,0.2,0,0.3,0
					c0.2,0,0.4,0,0.6,0.1c0.1,0,0.2,0,0.3,0c0,0,0.1,0,0.1,0c0.1,0,0.3,0,0.4,0c0,0,0.1,0,0.1,0c0.3,0,0.6,0,0.9,0.1
					c0.1,0,0.3,0,0.4,0c0.1,0,0.2,0,0.3,0c0,0,0,0,0.1,0c0.2,0,0.3,0,0.5,0c0.1,0,0.3,0,0.4,0c0.2,0,0.3,0,0.5,0c0.1,0,0.3,0,0.4,0
					c0.1,0,0.3,0,0.4,0c0.1,0,0.3,0,0.4,0c0.1,0,0.1,0,0.2,0c0.1,0,0.2,0,0.2,0c0.1,0,0.1,0,0.2,0c0.1,0,0.1,0,0.2,0
					c0.1,0,0.1,0,0.2,0c0,0,0,0,0.1,0c0,0,0.1,0,0.1,0c0.1,0,0.1,0,0.2,0c1,0,2.1-0.1,3.1-0.2h0c1.2-0.1,2.4-0.2,3.5-0.4
					c1.3-0.2,2.5-0.4,3.7-0.7c0,0,0,0,0.1,0c0,0,0,0,0,0l1.2-0.3c0.2,0,0.3-0.1,0.5-0.1c1.5-0.4,3-0.8,4.4-1.3
					c0.2-0.1,0.5-0.2,0.7-0.3c0.1,0,0.1,0,0.2-0.1c0.5-0.2,0.9-0.3,1.3-0.5c0.1,0,0.2-0.1,0.4-0.1v0c0,0,0,0,0.1,0v0
					c0.1-0.1,0.3-0.1,0.4-0.2c0.1,0,0.2-0.1,0.3-0.1c0-0.1,0-0.2,0-0.3C198.5,132.2,197.9,129.1,196.4,126.3z"/>
				<path class="st27" d="M195.2,127c-1.2-2.1-2.7-3.8-4.5-5.1c-0.1,0-0.1-0.1-0.2-0.1c-0.2-0.1-0.3-0.2-0.5-0.3
					c-0.1,0-0.1-0.1-0.2-0.1c-0.2-0.1-0.3-0.2-0.5-0.3c-0.1-0.1-0.2-0.1-0.3-0.2c-0.2-0.1-0.3-0.2-0.5-0.3c-0.2-0.1-0.3-0.2-0.5-0.3
					c-0.2-0.1-0.3-0.1-0.5-0.2c-0.1,0-0.1,0-0.2-0.1c-0.1-0.1-0.3-0.1-0.4-0.1c-0.1,0-0.2-0.1-0.3-0.1c-0.1,0-0.1,0-0.2-0.1
					c-0.4-0.1-0.7-0.2-1.1-0.3c-0.2,0-0.3-0.1-0.5-0.1c-0.4-0.1-0.7-0.1-1.1-0.2c0,0-0.1,0-0.1,0c-0.2,0-0.3,0-0.5-0.1
					c-0.1,0-0.1,0-0.2,0h0c0,0,0,0,0,0c0,0,0,0,0,0c0,0,0,0,0,0c0,0,0,0,0,0c0,0,0,0,0,0c0,0,0,0,0,0s0,0,0,0c0,0,0,0,0,0
					c0,0,0,0,0,0c0,0,0,0,0,0c0,0,0,0,0,0s0,0,0,0c0,0,0,0,0,0c0,0,0,0,0,0c0,0,0,0,0,0c0,0,0,0,0,0c0,0,0,0,0,0c0,0,0,0,0,0
					c0,0,0,0,0,0c0,0,0,0,0,0c0,0,0,0,0,0c0,0,0,0,0,0c0,0,0,0,0,0c0,0,0,0,0,0c0,0,0,0,0,0c0,0,0,0,0,0c0,0,0,0,0,0c0,0,0,0,0,0
					c0,0,0,0,0,0c0,0,0,0,0,0c0,0,0,0,0,0c0,0,0,0,0,0c0,0,0,0,0,0c0,0,0,0,0,0c0,0,0,0,0,0c0,0,0,0,0,0c0,0,0,0,0,0c0,0,0,0,0,0
					c0,0,0,0,0,0c0,0,0,0,0,0c0,0,0,0,0,0c0,0,0,0,0,0c0,0,0,0,0,0c0,0,0,0,0,0c-0.2,0-0.5,0-0.7,0c-0.2,0-0.3,0-0.5,0
					c-0.4,0-0.8,0-1.2,0c-0.1,0-0.1,0-0.2,0h0c0,0,0,0,0,0c0,0,0,0,0,0c0,0,0,0,0,0h0c0,0,0,0,0,0c0,0,0,0,0,0c0,0,0,0,0,0
					c0,0,0,0,0,0c0,0,0,0,0,0c0,0,0,0,0,0h0c0,0,0,0,0,0h0c0,0,0,0,0,0h0c0,0,0,0,0,0c0,0,0,0,0,0h0c0,0,0,0,0,0h0c0,0,0,0,0,0
					c0,0,0,0,0,0c0,0,0,0,0,0c0,0,0,0,0,0c0,0,0,0,0,0c0,0,0,0,0,0c0,0,0,0,0,0c0,0,0,0,0,0c0,0,0,0,0,0c0,0,0,0,0,0c0,0,0,0,0,0h0
					c-0.5,0-1,0.1-1.6,0.2c-0.2,0-0.3,0.1-0.5,0.1c-0.9,0.2-1.9,0.5-2.8,0.9c-0.2,0.1-0.3,0.2-0.5,0.2c0,0-0.1,0-0.1,0
					c-0.2,0.1-0.4,0.2-0.6,0.3c-1.4,0.8-2.7,1.8-3.8,2.9c0,0-0.1,0.1-0.1,0.1c0,0,0,0,0,0v0c-1.3,1.4-2.3,3-3,4.8c0,0,0,0,0,0
					c-0.6,1.6-1,3.2-1.1,4.9c-0.1,0.8,0,1.6,0,2.3c0.1,0.9,0.2,1.7,0.4,2.5c0.1,0.2,0.1,0.4,0.2,0.6c0.1,0,0.3,0,0.4,0.1
					c0.4,0.1,0.7,0.1,1.1,0.2c0,0,0,0,0,0l0,0c0,0,0,0,0,0c0,0,0.1,0,0.1,0c0.1,0,0.2,0,0.3,0c0,0,0.1,0,0.1,0c0,0,0.1,0,0.1,0
					c0.1,0,0.3,0,0.4,0.1c0,0,0,0,0,0c0.5,0.1,1,0.1,1.4,0.2c0.1,0,0.3,0,0.4,0c0.1,0,0.2,0,0.3,0c0.2,0,0.4,0,0.6,0.1
					c0.1,0,0.2,0,0.3,0c0,0,0.1,0,0.1,0c0.1,0,0.3,0,0.4,0c0,0,0.1,0,0.1,0c0.3,0,0.6,0,0.9,0.1c0.1,0,0.3,0,0.4,0
					c0.1,0,0.2,0,0.3,0c0,0,0,0,0.1,0c0.2,0,0.3,0,0.5,0c0.1,0,0.3,0,0.4,0c0.2,0,0.3,0,0.5,0c0.1,0,0.3,0,0.4,0c0.1,0,0.3,0,0.4,0
					c0.1,0,0.3,0,0.4,0c0.1,0,0.1,0,0.2,0c0.1,0,0.2,0,0.2,0c0.1,0,0.1,0,0.2,0c0.1,0,0.1,0,0.2,0c0.1,0,0.1,0,0.2,0c0,0,0,0,0.1,0
					c0,0,0.1,0,0.1,0c0.1,0,0.1,0,0.2,0c1,0,2.1-0.1,3.1-0.2h0c1.2-0.1,2.4-0.2,3.5-0.4c1.3-0.2,2.5-0.4,3.7-0.7c0,0,0,0,0.1,0
					c0,0,0,0,0,0l1.2-0.3c0.2,0,0.3-0.1,0.5-0.1c1.5-0.4,3-0.8,4.4-1.3c0.2-0.1,0.5-0.2,0.7-0.3c0.1,0,0.1,0,0.2-0.1
					c0.5-0.2,0.9-0.3,1.3-0.5C197.3,133,196.8,129.8,195.2,127z"/>
				<g>
					<path class="st28" d="M194,127.8c-0.9-1.7-2.2-3.2-3.7-4.3c-0.1-0.1-0.3-0.2-0.4-0.3c-0.1,0-0.1-0.1-0.2-0.1
						c-0.2-0.1-0.3-0.2-0.5-0.3c-0.1-0.1-0.2-0.1-0.3-0.2c-0.2-0.1-0.3-0.2-0.5-0.3c-0.2-0.1-0.3-0.2-0.5-0.3
						c-0.2-0.1-0.3-0.2-0.5-0.2c-0.2-0.1-0.4-0.2-0.6-0.2c-0.2-0.1-0.3-0.1-0.5-0.2c0,0,0,0-0.1,0c-0.2-0.1-0.5-0.2-0.7-0.2
						c-0.1,0-0.2-0.1-0.3-0.1c-0.2,0-0.3-0.1-0.5-0.1c-0.4-0.1-0.8-0.2-1.2-0.2c-0.2,0-0.3,0-0.5-0.1c0,0-0.1,0-0.2,0
						c-0.1,0-0.2,0-0.3,0c0,0,0,0,0,0c-0.4,0-0.7,0-1.1,0c-0.2,0-0.3,0-0.5,0c-0.9,0-1.7,0.1-2.6,0.3c-0.2,0-0.3,0.1-0.5,0.1
						c-0.9,0.2-1.9,0.6-2.8,1.1c-0.1,0.1-0.3,0.2-0.4,0.2c0,0,0,0-0.1,0c-0.8,0.4-1.5,0.9-2.2,1.5c0,0-0.1,0.1-0.1,0.1
						c-0.1,0.1-0.3,0.3-0.4,0.4c-0.2,0.2-0.3,0.3-0.5,0.5c-1.1,1.1-2,2.4-2.7,3.9c0,0,0,0,0,0c0,0,0,0,0,0c-0.3,0.6-0.6,1.3-0.8,2v0
						c0,0,0,0,0,0c-0.2,0.7-0.4,1.6-0.5,2.3c0,0,0,0,0,0c0,0,0,0,0,0c0,0,0,0,0,0c0,0,0,0,0,0c0,0,0,0,0,0c0,0,0,0,0,0c0,0,0,0,0,0
						c0,0,0,0,0,0c0,0,0,0,0,0c0,0,0,0,0,0c0,0,0,0,0,0c0,0,0,0,0,0c0,0,0,0,0,0c0,0,0,0,0,0c0,0,0,0,0,0c0,0,0,0,0,0c0,0,0,0,0,0
						c0,0,0,0,0,0c0,0,0,0,0,0c0,0,0,0,0,0c0,0,0,0,0,0c0,0,0,0,0,0c0,0,0,0,0,0c0,0,0,0,0,0c0,0,0,0,0,0s0,0,0,0c0,0,0,0,0,0
						c0,0,0,0,0,0c0,0,0,0,0,0c0,0,0,0,0,0c0,0,0,0,0,0c0,0,0,0,0,0c0,0,0,0,0,0c0,0,0,0,0,0c0,0,0,0,0,0c0,0,0,0,0,0c0,0,0,0,0,0
						c0,0,0,0,0,0c0,0,0,0,0,0c0,0,0,0,0,0c0,0,0,0,0,0c0,0,0,0,0,0c0,0,0,0,0,0s0,0,0,0c0,0,0,0,0,0c0,0,0,0,0,0c0,0,0,0,0,0
						c0,0.1,0,0.2,0,0.4c0,0.4-0.1,0.8-0.1,1.2c0,1.2,0.2,2.4,0.5,3.5c0,0,0,0.1,0,0.1c0.1,0.3,0.2,0.6,0.3,0.9c0.1,0,0.2,0,0.3,0
						c0,0,0.1,0,0.1,0c0,0,0.1,0,0.1,0c0.1,0,0.3,0,0.4,0.1c-0.1-0.1-0.1-0.3-0.1-0.4c-0.1-0.2-0.1-0.4-0.2-0.6
						c-0.1-0.2-0.1-0.4-0.2-0.6v-0.1c-0.3-1.4-0.4-2.8-0.3-4.3c0.1-0.8,0.2-1.7,0.5-2.5c0.1-0.3,0.2-0.7,0.3-1v0
						c0.2-0.4,0.4-0.9,0.6-1.3c0,0,0,0,0,0c0.5-1,1.1-1.8,1.8-2.6c0.2-0.2,0.3-0.4,0.5-0.5c0.5-0.6,1.2-1.1,1.8-1.6h0
						c0.1,0,0.1-0.1,0.2-0.1h0c0.2-0.2,0.5-0.3,0.8-0.5c0.2-0.1,0.3-0.2,0.5-0.3c0,0,0,0,0,0c0.9-0.5,1.8-0.9,2.8-1.1
						c0.2,0,0.3-0.1,0.5-0.1c0.9-0.2,1.7-0.3,2.6-0.4c0.2,0,0.3,0,0.5,0h0c0.2,0,0.3,0,0.5,0c0,0,0,0,0,0c0.2,0,0.3,0,0.5,0
						c0.2,0,0.4,0,0.6,0.1c0.2,0,0.3,0,0.5,0.1c0.4,0.1,0.8,0.1,1.2,0.2c0.1,0,0.2,0,0.3,0.1c0.1,0,0.1,0,0.2,0.1
						c0.2,0.1,0.4,0.1,0.5,0.2c0.2,0.1,0.4,0.1,0.6,0.2c0.2,0.1,0.3,0.1,0.5,0.2c0.2,0.1,0.4,0.2,0.6,0.3c0.2,0.1,0.3,0.2,0.5,0.3
						c0.2,0.1,0.4,0.2,0.5,0.3c0.2,0.1,0.3,0.2,0.5,0.3c0.1,0.1,0.2,0.1,0.3,0.2c0.1,0,0.1,0.1,0.2,0.1c0,0,0,0,0,0
						c1.5,1.1,2.9,2.6,3.9,4.4c1.5,2.7,2,5.7,1.5,8.7c0.2-0.1,0.5-0.2,0.7-0.3c0.1,0,0.1,0,0.2-0.1
						C196.1,133.5,195.5,130.5,194,127.8z"/>
				</g>
				<g>
					<path class="st28" d="M181.2,139.5c-0.3-0.3-0.5-0.6-0.7-1.1l-2.6,1c0,0.2,0,0.3,0,0.5c0,0,0,0,0.1,0c0,0,0.1,0,0.1,0
						c0.1,0,0.1,0,0.2,0c1,0,2.1-0.1,3.1-0.2C181.3,139.6,181.3,139.6,181.2,139.5z M181.2,139.5c-0.3-0.3-0.5-0.6-0.7-1.1l-2.6,1
						c0,0.2,0,0.3,0,0.5c0,0,0,0,0.1,0c0,0,0.1,0,0.1,0c0.1,0,0.1,0,0.2,0c1,0,2.1-0.1,3.1-0.2C181.3,139.6,181.3,139.6,181.2,139.5
						z M181.2,139.5c-0.3-0.3-0.5-0.6-0.7-1.1l-2.6,1c0,0.2,0,0.3,0,0.5c0,0,0,0,0.1,0c0,0,0.1,0,0.1,0c0.1,0,0.1,0,0.2,0
						c1,0,2.1-0.1,3.1-0.2C181.3,139.6,181.3,139.6,181.2,139.5z M181.2,139.5c-0.3-0.3-0.5-0.6-0.7-1.1l-2.6,1c0,0.2,0,0.3,0,0.5
						c0,0,0,0,0.1,0c0,0,0.1,0,0.1,0c0.1,0,0.1,0,0.2,0c1,0,2.1-0.1,3.1-0.2C181.3,139.6,181.3,139.6,181.2,139.5z M181.2,139.5
						c-0.3-0.3-0.5-0.6-0.7-1.1l-2.6,1c0,0.2,0,0.3,0,0.5c0,0,0,0,0.1,0c0,0,0.1,0,0.1,0c0.1,0,0.1,0,0.2,0c1,0,2.1-0.1,3.1-0.2
						C181.3,139.6,181.3,139.6,181.2,139.5z M181.2,139.5c-0.3-0.3-0.5-0.6-0.7-1.1l-2.6,1c0,0.2,0,0.3,0,0.5c0,0,0,0,0.1,0
						c0,0,0.1,0,0.1,0c0.1,0,0.1,0,0.2,0c1,0,2.1-0.1,3.1-0.2C181.3,139.6,181.3,139.6,181.2,139.5z M188.7,136.7
						c-0.1-0.2-0.1-0.5-0.2-0.7c-0.1-0.2-0.2-0.4-0.3-0.6c-0.1-0.2-0.2-0.3-0.3-0.4c0,0,0,0,0,0v0c-0.1-0.2-0.3-0.4-0.5-0.5
						c0,0,0,0,0,0c-0.2-0.1-0.3-0.3-0.5-0.4c-0.2-0.1-0.3-0.2-0.5-0.3c-0.2-0.1-0.3-0.1-0.5-0.2c0,0-0.1,0-0.1,0c0,0-0.1,0-0.1,0
						c0,0,0,0,0,0s0,0,0,0c0,0,0,0-0.1,0c-0.5-0.1-1-0.2-1.5-0.3c0,0,0,0-0.1,0c-0.1,0-0.3,0-0.4,0c-0.6,0-1.2,0-1.8,0
						c-0.3,0-0.5,0-0.8,0c-0.2,0-0.3,0-0.5,0c0,0,0,0,0,0c-0.4,0-0.7-0.1-0.9-0.2c-0.3-0.1-0.5-0.2-0.6-0.4
						c-0.2-0.2-0.3-0.4-0.4-0.6c0,0,0-0.1,0-0.1c-0.1-0.2-0.1-0.4-0.1-0.7c0-0.1,0-0.3,0-0.4c0-0.1,0-0.2,0.1-0.3
						c0.1-0.2,0.2-0.4,0.4-0.6c0.1-0.1,0.2-0.2,0.4-0.3c0.1-0.1,0.3-0.1,0.4-0.2c0.3-0.1,0.5-0.2,0.8-0.2c0,0,0,0,0,0
						c0.2,0,0.3,0,0.5,0c0.1,0,0.3,0.1,0.4,0.2c0.5,0.3,1,0.8,1.3,1.6l0.9-0.4l0.5-0.2l1.5-0.6l0.3-0.1c-0.1-0.2-0.2-0.4-0.3-0.6
						V129c-0.1-0.2-0.2-0.3-0.3-0.4c0,0,0,0,0,0c0,0-0.1-0.1-0.1-0.1c-0.1-0.2-0.3-0.4-0.4-0.5c0,0-0.1-0.1-0.1-0.1v0
						c-0.2-0.2-0.3-0.3-0.5-0.5c-0.2-0.1-0.4-0.3-0.6-0.4c-0.1,0-0.1-0.1-0.2-0.1c-0.1,0-0.2-0.1-0.3-0.1c-0.2-0.1-0.5-0.2-0.7-0.2
						c-0.1,0-0.3-0.1-0.4-0.1c-0.1,0-0.2,0-0.3,0c0,0-0.1,0-0.1,0c0,0,0,0-0.1,0c-0.4,0-0.8,0-1.2,0.1c-0.2,0-0.3,0.1-0.5,0.1
						c0,0,0,0,0,0l-0.1-0.3l-0.5-1.2l-0.3-0.7l-0.6,0.2l-0.5,0.2l-0.7,0.3l0.7,1.7l0,0.1l0.2,0.4c-0.1,0-0.1,0.1-0.2,0.1
						c-0.2,0.1-0.4,0.3-0.6,0.4h0c-0.3,0.2-0.5,0.4-0.8,0.6c0,0-0.1,0.1-0.1,0.1c0,0,0,0,0,0c-0.4,0.4-0.7,0.8-0.9,1.3
						c-0.1,0.2-0.2,0.5-0.3,0.7c0,0,0,0,0,0c-0.1,0.3-0.1,0.6-0.1,0.9c0,0.6,0.1,1.1,0.3,1.7c0,0.1,0.1,0.2,0.1,0.3c0,0,0,0,0,0
						c0.1,0.2,0.2,0.5,0.4,0.7c0,0.1,0.1,0.1,0.1,0.2c0.1,0.1,0.2,0.3,0.4,0.4l0,0c0.2,0.1,0.3,0.3,0.5,0.4c0.2,0.1,0.3,0.2,0.5,0.3
						c0.2,0.1,0.3,0.1,0.5,0.2c0.4,0.1,0.8,0.2,1.2,0.3c0.2,0,0.4,0.1,0.7,0.1c0.1,0,0.1,0,0.2,0c0.2,0,0.3,0,0.5,0c0.5,0,1,0,1.5,0
						c0,0,0,0,0,0c0.2,0,0.3,0,0.5,0c0.3,0,0.6,0,0.8,0c0.1,0,0.3,0,0.4,0.1c0.2,0,0.3,0.1,0.5,0.1c0,0,0,0,0,0
						c0.3,0.1,0.5,0.2,0.6,0.4c0.2,0.2,0.3,0.4,0.4,0.7c0,0,0,0,0,0.1v0.1c0.1,0.2,0.1,0.4,0.1,0.6c0,0.1,0,0.2,0,0.3
						c0,0.1-0.1,0.3-0.1,0.4c-0.1,0.2-0.2,0.3-0.4,0.5c1.3-0.2,2.5-0.4,3.7-0.7c0,0,0,0,0.1,0c0-0.1,0-0.2,0.1-0.3
						c0-0.2,0.1-0.4,0.1-0.6C188.8,137.4,188.8,137.1,188.7,136.7z M181.2,139.5c-0.3-0.3-0.5-0.6-0.7-1.1l-2.6,1c0,0.2,0,0.3,0,0.5
						c0,0,0,0,0.1,0c0,0,0.1,0,0.1,0c0.1,0,0.1,0,0.2,0c1,0,2.1-0.1,3.1-0.2C181.3,139.6,181.3,139.6,181.2,139.5z M181.2,139.5
						c-0.3-0.3-0.5-0.6-0.7-1.1l-2.6,1c0,0.2,0,0.3,0,0.5c0,0,0,0,0.1,0c0,0,0.1,0,0.1,0c0.1,0,0.1,0,0.2,0c1,0,2.1-0.1,3.1-0.2
						C181.3,139.6,181.3,139.6,181.2,139.5z M181.2,139.5c-0.3-0.3-0.5-0.6-0.7-1.1l-2.6,1c0,0.2,0,0.3,0,0.5c0,0,0,0,0.1,0
						c0,0,0.1,0,0.1,0c0.1,0,0.1,0,0.2,0c1,0,2.1-0.1,3.1-0.2C181.3,139.6,181.3,139.6,181.2,139.5z M181.2,139.5
						c-0.3-0.3-0.5-0.6-0.7-1.1l-2.6,1c0,0.2,0,0.3,0,0.5c0,0,0,0,0.1,0c0,0,0.1,0,0.1,0c0.1,0,0.1,0,0.2,0c1,0,2.1-0.1,3.1-0.2
						C181.3,139.6,181.3,139.6,181.2,139.5z M181.2,139.5c-0.3-0.3-0.5-0.6-0.7-1.1l-2.6,1c0,0.2,0,0.3,0,0.5c0,0,0,0,0.1,0
						c0,0,0.1,0,0.1,0c0.1,0,0.1,0,0.2,0c1,0,2.1-0.1,3.1-0.2C181.3,139.6,181.3,139.6,181.2,139.5z M181.2,139.5
						c-0.3-0.3-0.5-0.6-0.7-1.1l-2.6,1c0,0.2,0,0.3,0,0.5c0,0,0,0,0.1,0c0,0,0.1,0,0.1,0c0.1,0,0.1,0,0.2,0c1,0,2.1-0.1,3.1-0.2
						C181.3,139.6,181.3,139.6,181.2,139.5z M181.2,139.5c-0.3-0.3-0.5-0.6-0.7-1.1l-2.6,1l-0.6,0.3c0,0.1,0.1,0.1,0.1,0.2
						c0.1,0,0.1,0,0.2,0c0.1,0,0.1,0,0.2,0c0.1,0,0.1,0,0.2,0c0,0,0,0,0.1,0c0,0,0.1,0,0.1,0c0.1,0,0.1,0,0.2,0c1,0,2.1-0.1,3.1-0.2
						C181.3,139.6,181.3,139.6,181.2,139.5z"/>
				</g>
			</g>
		</g>
	</g>
</g>
</svg>
