<?xml version="1.0" encoding="utf-8"?>
<!-- Generator: Adobe Illustrator 25.4.1, SVG Export Plug-In . SVG Version: 6.00 Build 0)  -->
<svg version="1.1" id="Layer_1" xmlns="http://www.w3.org/2000/svg" xmlns:xlink="http://www.w3.org/1999/xlink" x="0px" y="0px"
	 viewBox="0 0 200 200" style="enable-background:new 0 0 200 200;" xml:space="preserve">
<style type="text/css">
	.st0{fill:#6B7280;}
</style>
<g>
	<g>
		<path class="st0" d="M115.7,82.4c-5.3-5.3-12.3-8.2-19.9-8.2c-7.5,0-14.6,2.9-19.9,8.2c-5.3,5.3-8.2,12.3-8.2,19.9
			c0,7.5,2.9,14.6,8.2,19.9c5.3,5.3,12.3,8.2,19.9,8.2c7.5,0,14.6-2.9,19.9-8.2C126.7,111.1,126.7,93.3,115.7,82.4z M113,119.4
			c-4.6,4.6-10.7,7.1-17.2,7.1s-12.6-2.5-17.2-7.1c-4.6-4.6-7.1-10.7-7.1-17.2s2.5-12.6,7.1-17.2c4.6-4.6,10.7-7.1,17.2-7.1
			s12.6,2.5,17.2,7.1C122.5,94.5,122.5,109.9,113,119.4z"/>
		<path class="st0" d="M162.1,154.3l-23.4-23.4c-2.2-2.2-5.2-3.2-8.2-2.9l-3.4-3.4c10.8-15.1,9.5-36.2-4-49.7c-15-15-39.5-15-54.5,0
			s-15,39.5,0,54.5c7.5,7.5,17.4,11.3,27.3,11.3c7.9,0,15.8-2.5,22.5-7.3l3.4,3.4c-0.4,3,0.7,6,2.9,8.2l23.4,23.4
			c1.9,1.9,4.5,2.9,7.1,2.9c2.6,0,5.1-1,7.1-2.9c1.9-1.9,2.9-4.4,2.9-7.1C165,158.7,164,156.2,162.1,154.3z M71.3,126.8
			c-13.5-13.5-13.5-35.6,0-49.1c6.8-6.8,15.7-10.2,24.6-10.2s17.8,3.4,24.6,10.2c13.5,13.5,13.5,35.6,0,49.1
			C106.9,140.3,84.8,140.3,71.3,126.8z M159.4,165.8c-2.4,2.4-6.4,2.4-8.8,0l-23.4-23.4c-1.5-1.5-2.1-3.7-1.6-5.8
			c0.2-0.6-0.1-1.3-0.5-1.7l-3.7-3.7c0,0,0.1-0.1,0.1-0.1c0.6-0.5,1.2-1,1.7-1.5c0.6-0.6,1-1.1,1.5-1.7c0,0,0.1,0,0.1-0.1l3.7,3.7
			c0.5,0.5,1.1,0.7,1.7,0.5c2.1-0.5,4.3,0.2,5.8,1.6l23.4,23.4c1.2,1.2,1.8,2.7,1.8,4.4C161.2,163,160.6,164.6,159.4,165.8z"/>
		<path class="st0" d="M106.9,91.2c-0.7-0.7-1.9-0.7-2.7,0l-8.3,8.3l-8.3-8.3c-0.7-0.7-1.9-0.7-2.7,0c-0.7,0.7-0.7,1.9,0,2.7
			l8.3,8.4l-8.3,8.3c-0.7,0.7-0.7,1.9,0,2.7c0.4,0.4,0.9,0.6,1.3,0.6s1-0.2,1.3-0.6l8.3-8.3l8.3,8.3c0.4,0.4,0.9,0.6,1.3,0.6
			c0.5,0,1-0.2,1.3-0.6c0.7-0.7,0.7-1.9,0-2.7l-8.3-8.3l8.3-8.4C107.6,93.1,107.6,92,106.9,91.2z"/>
		<path class="st0" d="M77,25.8H125c1,0,1.9-0.9,1.9-1.9c0-1-0.9-1.9-1.9-1.9H77c-1,0-1.9,0.9-1.9,1.9C75.1,24.9,76,25.8,77,25.8z"
			/>
		<path class="st0" d="M125,32H77c-1,0-1.9,0.9-1.9,1.9s0.9,1.9,1.9,1.9h48c1,0,1.9-0.9,1.9-1.9S126,32,125,32z"/>
		<path class="st0" d="M125,42.2H99.8c-1,0-1.9,0.9-1.9,1.9s0.9,1.9,1.9,1.9H125c1,0,1.9-0.9,1.9-1.9S126,42.2,125,42.2z"/>
		<path class="st0" d="M125,52.3H99.8c-1,0-1.9,0.9-1.9,1.9s0.9,1.9,1.9,1.9H125c1,0,1.9-0.9,1.9-1.9S126,52.3,125,52.3z"/>
		<path class="st0" d="M131,157.7H48.8v-6.3h72.1c1,0,1.9-0.9,1.9-1.9c0-1-0.9-1.9-1.9-1.9H38.8V40.4h24c1,0,1.9-0.9,1.9-1.9v-24
			h72.7v109.8c0,1,0.9,1.9,1.9,1.9c1,0,1.9-0.9,1.9-1.9V24.6h6.3v108.9c0,1,0.9,1.9,1.9,1.9c1,0,1.9-0.9,1.9-1.9V22.7
			c0-1-0.9-1.9-1.9-1.9h-8.2v-8.2c0-1-0.9-1.9-1.9-1.9H62.8c-0.5,0-1,0.2-1.3,0.6l0,0L35.5,37.1l0,0C35.2,37.5,35,38,35,38.5v111
			c0,1,0.9,1.9,1.9,1.9H45v8.2c0,1,0.9,1.9,1.9,1.9H131c1,0,1.9-0.9,1.9-1.9S132,157.7,131,157.7z M41.4,36.6l19.4-19.4v19.4H41.4z"
			/>
	</g>
	<g>
		<path class="st0" d="M49.4,185.1c0,0.2,0,0.5,0,0.8s0,0.6,0,1c0,0.2,0,0.4,0,0.6c-0.1-0.2-0.2-0.4-0.3-0.6
			c-0.2-0.3-0.3-0.6-0.5-0.9c-0.2-0.3-0.3-0.5-0.4-0.6l-4.3-6.8h-1.6v10.5h1.3v-6c0-0.2,0-0.4,0-0.8c0-0.3,0-0.7,0-1.1
			c0-0.3,0-0.6,0-0.9c0.2,0.4,0.4,0.7,0.6,1c0.2,0.4,0.4,0.7,0.6,1s0.3,0.6,0.5,0.8l3.8,6h1.6v-10.5h-1.3V185.1z"/>
		<path class="st0" d="M59.9,179.1c-0.7-0.4-1.5-0.7-2.4-0.7c-0.9,0-1.7,0.2-2.4,0.7c-0.7,0.4-1.3,1.1-1.7,1.9
			c-0.4,0.8-0.6,1.8-0.6,2.9c0,1.1,0.2,2.1,0.6,2.9s1,1.4,1.7,1.9c0.7,0.4,1.5,0.7,2.4,0.7c0.9,0,1.7-0.2,2.4-0.7
			c0.7-0.4,1.3-1.1,1.7-1.9c0.4-0.8,0.6-1.8,0.6-2.9c0-1.1-0.2-2.1-0.6-2.9C61.2,180.2,60.6,179.6,59.9,179.1z M60.4,186.1
			c-0.3,0.6-0.7,1.1-1.2,1.4c-0.5,0.3-1.1,0.5-1.7,0.5c-0.6,0-1.2-0.2-1.7-0.5c-0.5-0.3-0.9-0.8-1.2-1.4c-0.3-0.6-0.5-1.4-0.5-2.3
			c0-0.9,0.2-1.7,0.5-2.3s0.7-1.1,1.2-1.4c0.5-0.3,1.1-0.5,1.7-0.5c0.6,0,1.2,0.2,1.7,0.5c0.5,0.3,0.9,0.8,1.2,1.4
			c0.3,0.6,0.5,1.4,0.5,2.3C60.9,184.8,60.7,185.5,60.4,186.1z"/>
		<path class="st0" d="M74.2,179.2c-0.7-0.4-1.6-0.6-2.6-0.6h-2.1h-0.7h-0.7v10.5h0.7h0.6h2c1.1,0,2-0.2,2.7-0.6
			c0.7-0.4,1.3-1,1.7-1.8s0.6-1.7,0.6-2.8c0-1.1-0.2-2-0.6-2.8C75.5,180.2,75,179.6,74.2,179.2z M74.8,186c-0.3,0.6-0.7,1.1-1.3,1.4
			c-0.6,0.3-1.3,0.5-2.1,0.5h-1.9v-8.2h2c0.8,0,1.5,0.2,2,0.5c0.5,0.3,1,0.8,1.2,1.4c0.3,0.6,0.4,1.3,0.4,2.2
			C75.2,184.7,75.1,185.4,74.8,186z"/>
		<path class="st0" d="M81,178.6l-3.8,10.5h1.4l1-2.9h4.4l1,2.9h1.4l-3.9-10.5H81z M83.5,185H80l0.8-2.2c0.1-0.4,0.3-0.8,0.5-1.4
			c0.2-0.5,0.3-1.1,0.5-1.7c0.2,0.7,0.4,1.3,0.5,1.7c0.2,0.6,0.3,1,0.5,1.4L83.5,185z"/>
		<polygon class="st0" points="94,178.6 86,178.6 86,179.8 89.4,179.8 89.4,189.1 90.7,189.1 90.7,179.8 94,179.8 		"/>
		<path class="st0" d="M97.5,178.6l-3.8,10.5h1.4l1-2.9h4.4l1,2.9h1.4l-3.9-10.5H97.5z M100.1,185h-3.5l0.8-2.2
			c0.1-0.4,0.3-0.8,0.5-1.4c0.2-0.5,0.3-1.1,0.5-1.7c0.2,0.7,0.4,1.3,0.5,1.7c0.2,0.6,0.3,1,0.5,1.4L100.1,185z"/>
		<polygon class="st0" points="108.4,189.1 109.8,189.1 109.8,184.5 114.4,184.5 114.4,183.3 109.8,183.3 109.8,179.8 114.9,179.8 
			114.9,178.6 108.4,178.6 		"/>
		<path class="st0" d="M123.6,179.1c-0.7-0.4-1.5-0.7-2.4-0.7c-0.9,0-1.7,0.2-2.4,0.7s-1.3,1.1-1.7,1.9c-0.4,0.8-0.6,1.8-0.6,2.9
			c0,1.1,0.2,2.1,0.6,2.9c0.4,0.8,1,1.4,1.7,1.9c0.7,0.4,1.5,0.7,2.4,0.7c0.9,0,1.7-0.2,2.4-0.7c0.7-0.4,1.3-1.1,1.7-1.9
			s0.6-1.8,0.6-2.9c0-1.1-0.2-2.1-0.6-2.9C124.8,180.2,124.3,179.6,123.6,179.1z M124.1,186.1c-0.3,0.6-0.7,1.1-1.2,1.4
			s-1.1,0.5-1.7,0.5s-1.2-0.2-1.7-0.5c-0.5-0.3-0.9-0.8-1.2-1.4c-0.3-0.6-0.5-1.4-0.5-2.3c0-0.9,0.2-1.7,0.5-2.3
			c0.3-0.6,0.7-1.1,1.2-1.4c0.5-0.3,1.1-0.5,1.7-0.5s1.2,0.2,1.7,0.5s0.9,0.8,1.2,1.4s0.5,1.4,0.5,2.3
			C124.5,184.8,124.4,185.5,124.1,186.1z"/>
		<path class="st0" d="M134.7,185.4c0,0.5-0.1,1-0.3,1.4c-0.2,0.4-0.5,0.7-1,0.9c-0.4,0.2-0.9,0.3-1.5,0.3c-0.6,0-1.1-0.1-1.5-0.3
			c-0.4-0.2-0.7-0.5-1-0.9c-0.2-0.4-0.3-0.8-0.3-1.4v-6.8h-1.3v6.9c0,0.7,0.2,1.4,0.5,1.9s0.8,1,1.4,1.3c0.6,0.3,1.3,0.5,2.2,0.5
			c0.8,0,1.6-0.2,2.2-0.5c0.6-0.3,1.1-0.8,1.4-1.3c0.3-0.6,0.5-1.2,0.5-1.9v-6.9h-1.3V185.4z"/>
		<path class="st0" d="M145.5,185.1c0,0.2,0,0.5,0,0.8s0,0.6,0,1c0,0.2,0,0.4,0,0.6c-0.1-0.2-0.2-0.4-0.3-0.6
			c-0.2-0.3-0.3-0.6-0.5-0.9c-0.2-0.3-0.3-0.5-0.4-0.6l-4.3-6.8h-1.6v10.5h1.3v-6c0-0.2,0-0.4,0-0.8c0-0.3,0-0.7,0-1.1
			c0-0.3,0-0.6,0-0.9c0.2,0.4,0.4,0.7,0.6,1c0.2,0.4,0.4,0.7,0.6,1c0.2,0.3,0.3,0.6,0.5,0.8l3.8,6h1.6v-10.5h-1.3V185.1z"/>
		<path class="st0" d="M157,181c-0.4-0.8-0.9-1.4-1.7-1.8c-0.7-0.4-1.6-0.6-2.6-0.6h-2.1h-0.7h-0.7v10.5h0.7h0.6h2
			c1.1,0,2-0.2,2.7-0.6c0.7-0.4,1.3-1,1.7-1.8s0.6-1.7,0.6-2.8C157.6,182.7,157.4,181.8,157,181z M155.9,186
			c-0.3,0.6-0.7,1.1-1.3,1.4c-0.6,0.3-1.3,0.5-2.1,0.5h-1.9v-8.2h2c0.8,0,1.5,0.2,2,0.5s1,0.8,1.2,1.4c0.3,0.6,0.4,1.3,0.4,2.2
			C156.3,184.7,156.1,185.4,155.9,186z"/>
	</g>
</g>
</svg>
