<?xml version="1.0" encoding="utf-8"?>
<!-- Generator: Adobe Illustrator 22.0.0, SVG Export Plug-In . SVG Version: 6.00 Build 0)  -->
<svg version="1.1" id="Layer_1" xmlns="http://www.w3.org/2000/svg" xmlns:xlink="http://www.w3.org/1999/xlink" x="0px" y="0px"
	 viewBox="0 0 560 207.3" style="enable-background:new 0 0 560 207.3;" xml:space="preserve">
<style type="text/css">
	.st0{fill:#425FAC;}
	.st1{fill:#FFFFFF;}
	.st2{fill:#4F4F4F;}
	.st3{fill:#F47423;}
	.st4{fill:#020202;}
	.st5{fill:#F26324;}
	.st6{fill:#E92328;}
	.st7{fill:#F59E21;}
	.st8{fill:#1A4993;}
	.st9{fill:#F0AE1E;}
	.st10{fill:#7ABD43;}
	.st11{fill:#323E41;}
	.st12{fill:#A0A2A2;}
	.st13{fill:#33364E;}
</style>
<g id="AMEX">
	<g id="Page-1">
		<g id="amex-2">
			<rect id="Rectangle-1" x="295.2" y="125.5" class="st0" width="112.7" height="70.8"/>
			<path id="Path" class="st1" d="M295.2,158.8h5.4l1.2-2.9h2.7l1.2,2.9h10.7v-2.3l1,2.3h5.5l1-2.3v2.3h26.5v-4.8h0.5
				c0.3,0,0.5,0,0.5,0.6v4.2h13.7v-1.1c1.6,0.8,3.3,1.2,5.1,1.1h5.8l1.2-2.9h2.7l1.2,2.9h11.1V156l1.7,2.8h9v-18.4h-8.8v2.2
				l-1.2-2.2h-9v2.2l-1.1-2.2h-12.4c-1.8-0.1-3.6,0.3-5.3,1.1v-1.1h-8.4v1.1c-1-0.8-2.3-1.2-3.6-1.1h-30.7l-2.1,4.7l-2.1-4.7h-9.7
				v2.2l-1.1-2.2h-8.3l-3.8,8.8L295.2,158.8L295.2,158.8L295.2,158.8z M329.4,156.1h-3.3v-10.4l-4.7,10.3h-2.8l-4.7-10.4v10.4h-6.4
				l-1.2-3h-6.6l-1.2,3h-3.4l5.8-13.2h4.7l5.4,12.5v-12.5h5.2l4.1,9l3.9-9h5.3L329.4,156.1L329.4,156.1z M305.4,150.4l-2.1-5.2
				l-2.2,5.3L305.4,150.4z M342.3,156.1h-10.6v-13.2h10.6v2.8h-7.4v2.3h7.2v2.7h-7.2v2.6h7.4V156.1z M357.3,146.5
				c0,1.5-0.9,2.9-2.3,3.5c0.6,0.2,1.1,0.6,1.6,1.1c0.4,0.7,0.6,1.5,0.5,2.3v2.6h-3v-1.5c0.1-0.9,0-1.8-0.5-2.6
				c-0.7-0.5-1.5-0.7-2.3-0.6h-3.4v4.8h-3.1v-13.3h7.3c1.3-0.1,2.6,0.1,3.8,0.6c1.1,0.6,1.7,1.7,1.6,2.9L357.3,146.5z M353.2,148.4
				c-0.5,0.2-1,0.3-1.6,0.3h-3.8v-3h3.8c0.5,0,1,0,1.5,0.2c0.4,0.2,0.7,0.7,0.7,1.2C353.9,147.6,353.7,148.1,353.2,148.4
				L353.2,148.4z M362.3,156.1h-3.2v-13.2h3.2V156.1z M399.9,156.1h-4.5l-6-9.9v9.9H383l-1.2-3h-6.6l-1.2,3h-3.7
				c-3.1,0.4-5.9-1.7-6.3-4.8c-0.1-0.6-0.1-1.1,0-1.7c-0.2-1.9,0.5-3.7,1.7-5.2c1.3-1.1,3.1-1.7,4.8-1.5h3.1v2.8h-3
				c-0.9-0.1-1.7,0.2-2.3,0.8c-0.7,0.8-1,1.9-0.9,3c-0.1,1.1,0.2,2.2,0.9,3.1c0.6,0.5,1.4,0.7,2.2,0.7h1.4l4.3-10.4h4.7l5.4,12.5
				v-12.5h4.8l5.6,9.3v-9.3h3.2L399.9,156.1z M380.6,150.4l-2.2-5.2l-2.2,5.3L380.6,150.4z"/>
			<path id="path13" class="st1" d="M408,177.2c-1.1,1.2-2.7,1.9-4.3,1.7h-6.1V176h6.1c0.5,0.1,0.9-0.1,1.3-0.3
				c0.2-0.2,0.4-0.5,0.4-0.9c0-0.3-0.1-0.7-0.4-0.9c-0.3-0.2-0.7-0.3-1.1-0.3c-3,0-6.7,0-6.7-4.1c0-1.9,1.2-3.9,4.7-3.9h6.3V163
				h-5.9c-1.4-0.1-2.8,0.3-4,1.1V163h-8.7c-1.3-0.1-2.7,0.3-3.8,1.1V163h-15.5v1.1c-1.3-0.7-2.8-1.1-4.3-1.1h-10.2v1.1
				c-1.3-0.8-2.9-1.2-4.5-1.1h-11.4l-2.6,2.8l-2.4-2.8h-17.1v18.4h16.8l2.7-2.9l2.5,2.9h10.3v-4.3h1c1.5,0.1,3-0.1,4.4-0.7v5h8.5
				v-4.8h0.4c0.5,0,0.6,0,0.6,0.5v4.3h25.9c1.5,0.1,3-0.4,4.3-1.2v1.2h8.2c1.6,0.1,3.2-0.2,4.7-0.8v-3.4L408,177.2z M356.6,170.2
				c0,3.7-2.7,4.4-5.5,4.4h-4v4.4H341l-3.9-4.4l-4.1,4.3h-12.5v-13.2h12.8l3.9,4.3l4-4.3h10.1C353.8,165.7,356.6,166.4,356.6,170.2
				L356.6,170.2z M331.5,176.3h-7.8v-2.6h7v-2.8h-7v-2.3h7.9l3.5,3.8L331.5,176.3z M344,177.8l-4.9-5.4l4.9-5.2V177.8z M351.2,171.9
				h-4.1v-3.4h4.1c1.1,0,1.9,0.5,1.9,1.6C353.2,171.3,352.4,171.8,351.2,171.9L351.2,171.9z M372.7,165.8h10.6v2.6h-7.4v2.3h7.2v2.7
				h-7.2v2.6h7.4v2.7h-10.6L372.7,165.8z M368.6,172.8c0.6,0.2,1.2,0.6,1.6,1.1c0.4,0.7,0.6,1.5,0.5,2.3v2.6h-3.2v-1.7
				c0-0.8,0-2-0.5-2.6c-0.7-0.5-1.5-0.7-2.3-0.6h-3.4v4.8h-3.2v-13.2h7.3c1.3-0.1,2.6,0.1,3.8,0.6c1.1,0.6,1.7,1.7,1.6,2.9
				C370.9,170.8,370,172.2,368.6,172.8L368.6,172.8z M366.8,171.1c-0.5,0.2-1,0.3-1.6,0.3h-3.8v-3h3.9c0.5,0,1,0,1.5,0.2
				c0.4,0.2,0.7,0.7,0.7,1.2C367.5,170.4,367.2,170.9,366.8,171.1L366.8,171.1z M395.4,172c0.7,0.8,1,1.8,1,2.8c0,2.8-1.8,4.2-5,4.2
				h-6.2v-2.8h6.1c0.5,0.1,0.9-0.1,1.3-0.3c0.2-0.2,0.4-0.5,0.4-0.9c0-0.3-0.1-0.7-0.4-0.9c-0.3-0.2-0.7-0.3-1.1-0.3
				c-3,0-6.7,0-6.7-4.1c0-1.9,1.2-3.9,4.5-3.9h6.4v2.8h-5.8c-0.4-0.1-0.9,0-1.3,0.2c-0.5,0.3-0.6,1-0.3,1.5c0.1,0.2,0.3,0.3,0.5,0.4
				c0.4,0.1,0.8,0.2,1.2,0.1h1.7C393.1,170.7,394.4,171.1,395.4,172L395.4,172z M408,168.4h-5.8c-0.4,0-0.9,0-1.3,0.2
				c-0.3,0.2-0.5,0.6-0.5,1c0,0.4,0.3,0.8,0.7,1c0.4,0.1,0.8,0.2,1.2,0.1h1.7c1.3-0.1,2.6,0.3,3.6,1.1c0.1,0.1,0.2,0.2,0.3,0.3
				L408,168.4z"/>
		</g>
	</g>
</g>
<g id="DISCOVER">
	<path class="st2" d="M546.5,125.7H442.4v70.4h104.1c4.3,0,7.8-3.4,7.9-7.7v-62.6H546.5z"/>
	<g id="Page-1-2">
		<g id="discover-2">
			<path id="Shape" class="st1" d="M489.3,148.5c1.3,0,2.5,0.3,3.6,0.9v3.2c-1-1-2.3-1.6-3.7-1.6c-2.7,0-4.9,2.1-4.9,4.8
				c0,0,0,0.1,0,0.1c0,2.8,2.3,5,5.1,4.9c1.3,0,2.6-0.6,3.6-1.6v3.3c-1.2,0.6-2.4,0.8-3.7,0.8c-4.2,0.2-7.8-3.1-8-7.3
				c0-0.1,0-0.1,0-0.2C481.5,151.6,485.1,148.3,489.3,148.5z M475.4,148.5c1.6,0,3.2,0.5,4.4,1.6l-1.5,1.9c-0.6-0.7-1.4-1.1-2.3-1.2
				c-1.3,0-2.2,0.7-2.2,1.6c0,0.9,0.5,1.2,2.3,1.8c3.4,1.2,4.4,2.2,4.4,4.5c0,2.6-2.1,4.7-4.6,4.7c-0.2,0-0.4,0-0.6,0
				c-2.1,0.1-4.1-1-5.2-2.7l1.9-1.7c0.6,1.2,1.9,1.9,3.2,1.9c1.2,0.1,2.2-0.7,2.3-1.9c0,0,0-0.1,0-0.1c0-0.6-0.3-1.2-0.9-1.5
				c-0.7-0.3-1.3-0.6-2-0.8c-2.8-1-3.7-2-3.7-3.9C471,150.2,473,148.4,475.4,148.5L475.4,148.5z M509.1,148.7h3.2l4,9.7l4.1-9.7h3.2
				l-6.5,14.7h-1.6L509.1,148.7z M452,148.7h4.3c4.8,0,8.1,3,8.1,7.2c0,2.2-1,4.2-2.7,5.5c-1.5,1.2-3.5,1.8-5.4,1.7H452L452,148.7z
				 M465.8,148.7h3v14.4h-3V148.7z M524.9,148.7h8.4v2.3h-5.4v3.2h5.2v2.3h-5.2v3.9h5.4v2.3h-8.4V148.7z M535.2,148.7h4.4
				c3.4,0,5.4,1.6,5.4,4.2c0.2,2.1-1.3,4-3.4,4.2l4.7,6.1h-3.6l-4.1-5.8h-0.4v5.8h-3L535.2,148.7z M538.2,151v4.4h1
				c1.9,0,2.9-0.8,2.9-2.3s-1-2.1-2.8-2.1L538.2,151z M454.9,151.2v9.5h0.8c1.5,0.1,2.9-0.3,4.1-1.2c1-0.9,1.6-2.2,1.6-3.6
				c0-1.4-0.6-2.7-1.6-3.6c-1.1-0.9-2.6-1.3-4-1.2L454.9,151.2z"/>
			<path class="st3" d="M554.4,196.1v-29.8c-3.7,2.6-31.8,21-80.2,29.9L554.4,196.1L554.4,196.1z"/>
			<path class="st3" d="M502,163.2c4.3,0.2,7.9-3.1,8.1-7.4l0,0c-0.4-4.4-4.4-7.7-8.8-7.3c-3.9,0.4-6.9,3.4-7.3,7.3l0,0
				C494.1,160,497.7,163.3,502,163.2z"/>
		</g>
	</g>
</g>
<g id="MASTERCARD">
	<g id="Page-1-4">
		<g id="mastercard-2">
			<rect id="Rectangle-1-2" x="5.6" y="125.6" class="st4" width="112.3" height="70.5"/>
			<g id="Group">
				<path id="Shape-2" class="st1" d="M38.7,188.8V185c0.1-1.2-0.8-2.2-2-2.3c-0.1,0-0.2,0-0.3,0c-0.8,0-1.6,0.4-2.1,1
					c-0.4-0.7-1.2-1.1-2-1c-0.7,0-1.4,0.3-1.8,0.9v-0.7h-1.2v6h1.2v-3.4c-0.1-0.8,0.5-1.5,1.2-1.6c0.1,0,0.2,0,0.3,0
					c0.9,0,1.4,0.6,1.4,1.6v3.4h1.2v-3.4c-0.1-0.8,0.5-1.5,1.2-1.6c0.1,0,0.2,0,0.3,0c0.9,0,1.4,0.6,1.4,1.6v3.4L38.7,188.8z
					 M58,182.9h-2.2v-1.8h-1.2v1.8h-1.2v1h1.2v2.8c0,1.4,0.5,2.2,2,2.2c0.6,0,1.1-0.2,1.6-0.4l-0.4-1c-0.3,0.2-0.7,0.3-1.1,0.3
					c-0.5,0-0.9-0.3-0.9-0.8c0-0.1,0-0.2,0-0.2v-2.8H58L58,182.9L58,182.9z M69.1,182.7c-0.6,0-1.3,0.3-1.6,0.9v-0.7h-1.2v6h1.2
					v-3.4c0-1,0.5-1.6,1.3-1.6c0.3,0,0.5,0,0.8,0.1l0.4-1.1C69.7,182.7,69.4,182.7,69.1,182.7z M52.4,183.3
					c-0.7-0.4-1.5-0.6-2.3-0.6c-1.5,0-2.3,0.7-2.3,1.9c0,1.2,0.7,1.6,2,1.7h0.6c0.7,0.1,1.1,0.4,1.1,0.7s-0.5,0.7-1.4,0.7
					c-0.7,0-1.4-0.2-2-0.6l-0.6,0.9c0.8,0.5,1.6,0.8,2.5,0.7c1.7,0,2.7-0.8,2.7-1.9c0-1.1-0.7-1.6-2-1.7H50c-0.6,0-1-0.3-1-0.6
					c0-0.4,0.5-0.7,1.2-0.7c0.6,0,1.3,0.2,1.9,0.5L52.4,183.3z M70.4,185.8c-0.1,1.6,1.1,3,2.8,3.1c0.1,0,0.2,0,0.3,0
					c0.8,0,1.5-0.2,2.1-0.7l-0.6-0.9c-0.4,0.4-1,0.6-1.6,0.6c-1.1,0-2-0.9-2-2c0-1.1,0.9-2,2-2c0.6,0,1.1,0.2,1.6,0.6l0.6-0.9
					c-0.6-0.5-1.4-0.7-2.1-0.7c-1.5-0.2-2.9,0.9-3.1,2.5C70.4,185.5,70.4,185.7,70.4,185.8L70.4,185.8z M62.1,182.7
					c-1.6,0-2.9,1.2-2.9,2.8c0,0.1,0,0.2,0,0.3c-0.1,1.6,1.1,3,2.7,3.1c0.1,0,0.2,0,0.3,0c0.8,0,1.7-0.3,2.3-0.8l-0.6-0.9
					c-0.5,0.4-1.1,0.6-1.7,0.6c-0.9,0-1.7-0.7-1.8-1.6h4.4v-0.5c0.2-1.5-0.9-2.9-2.5-3.1c-0.1,0-0.2,0-0.3,0H62.1z M62.1,183.8
					c0.8,0,1.5,0.6,1.6,1.4c0,0,0,0,0,0.1h-3.2C60.5,184.5,61.2,183.8,62.1,183.8L62.1,183.8z M46,185.8v-3h-1.2v0.7
					c-0.5-0.6-1.2-0.9-1.9-0.9c-1.7,0-3.1,1.4-3.1,3.1s1.4,3.1,3.1,3.1c0.7,0,1.5-0.3,1.9-0.9v0.7H46V185.8z M41.2,185.8
					c0.1-1,1-1.8,2-1.7c1,0.1,1.8,1,1.7,2c-0.1,0.9-0.9,1.7-1.8,1.7c-1,0.1-1.8-0.7-1.9-1.7C41.2,186,41.2,185.9,41.2,185.8
					L41.2,185.8z M87,182.7c-0.6,0-1.3,0.3-1.6,0.9v-0.7h-1.2v6h1.2v-3.4c0-1,0.5-1.6,1.3-1.6c0.3,0,0.5,0,0.8,0.1l0.4-1.1
					C87.7,182.8,87.4,182.7,87,182.7L87,182.7z M82.4,185.8v-3h-1.2v0.7c-0.5-0.6-1.2-0.9-1.9-0.9c-1.7,0-3.1,1.4-3.1,3.1
					s1.4,3.1,3.1,3.1c0.7,0,1.5-0.3,1.9-0.9v0.7h1.2V185.8z M77.6,185.8c0.1-1,1-1.8,2-1.7c1,0.1,1.8,1,1.7,2
					c-0.1,0.9-0.9,1.7-1.8,1.7c-1,0-1.8-0.7-1.8-1.7C77.6,186,77.6,185.9,77.6,185.8L77.6,185.8z M94.4,185.8v-5.3h-1.1v3.1
					c-0.5-0.6-1.2-0.9-1.9-0.9c-1.7,0-3.1,1.4-3.1,3.1s1.4,3.1,3.1,3.1c0.7,0,1.5-0.3,1.9-0.9v0.7h1.2L94.4,185.8z M89.6,185.8
					c0.1-1,1-1.8,2-1.7c1,0.1,1.8,1,1.7,2c-0.1,0.9-0.9,1.7-1.8,1.7c-1,0-1.8-0.7-1.9-1.7C89.6,186,89.6,185.9,89.6,185.8z"/>
				<rect id="Rectangle-path" x="51" y="137.7" class="st5" width="21.5" height="35.1"/>
				<path id="Shape-3" class="st6" d="M53.2,155.2c0-6.8,3.1-13.3,8.5-17.6c-9.7-7.6-23.7-6-31.4,3.7c-7.6,9.7-6,23.7,3.7,31.4
					c8.1,6.4,19.5,6.4,27.6,0C56.3,168.5,53.2,162.1,53.2,155.2z"/>
				<path id="Shape-4" class="st7" d="M97.9,155.2c0,12.3-10,22.3-22.3,22.3c-5,0-9.9-1.7-13.8-4.8c9.7-7.7,11.3-21.7,3.7-31.4
					c-1.1-1.4-2.3-2.6-3.7-3.7c9.7-7.6,23.7-5.9,31.3,3.8C96.2,145.4,97.9,150.2,97.9,155.2z"/>
			</g>
		</g>
	</g>
</g>
<g id="VISA">
	<g id="Page-1-5">
		<g id="visa-2">
			<rect id="Rectangle-1-3" x="150.1" y="125.6" class="st8" width="112.3" height="70.5"/>
			<polygon id="Shape-5" class="st1" points="191.8,175.7 196.8,146.4 204.8,146.4 199.8,175.7 			"/>
			<path id="path13-2" class="st1" d="M228.6,147c-2.3-0.8-4.7-1.3-7.2-1.2c-7.9,0-13.5,4-13.5,9.7c0,4.2,4,6.6,7,8s4.1,2.3,4.1,3.6
				c0,2-2.5,2.9-4.8,2.9c-2.6,0.1-5.2-0.4-7.5-1.5l-1-0.5l-1.1,6.6c2.8,1,5.9,1.6,8.9,1.6c8.4,0,13.9-3.9,14-10c0-3.3-2.1-5.9-6.7-8
				c-2.8-1.4-4.5-2.3-4.5-3.6c0-1.3,1.4-2.5,4.7-2.5c2.1,0,4.1,0.3,6,1.1l0.7,0.3l1.1-6.4"/>
			<path id="Path-3" class="st1" d="M249.2,146.4H243c-1.8-0.2-3.5,0.7-4.2,2.3L227,175.6h8.3l1.7-4.4h10.2c0.2,1,1,4.4,1,4.4h7.4
				L249.2,146.4z M239.4,165.3l3.2-8.2c0,0,0.7-1.7,1-2.8l0.5,2.5l1.8,8.5H239.4L239.4,165.3z"/>
			<path id="path16" class="st1" d="M185,146.4l-7.8,20l-0.8-4.1c-2-5.3-5.9-9.7-10.9-12.3l7.1,25.6h8.5l12.6-29.2h-8.5"/>
			<path id="path18" class="st9" d="M169.9,146.4H157v0.6c10,2.3,16.6,8.3,19.4,15.3l-2.8-13.5C173.2,147.2,171.6,146.2,169.9,146.4
				"/>
		</g>
	</g>
</g>
<g id="SECURE">
	<g id="SECURE-2">
		<path class="st10" d="M355.6,4.8L323.6,19v21.4c0,19.8,13.7,38.2,32.1,42.7c18.4-4.5,32.1-22.9,32.1-42.7V19.1L355.6,4.8z"/>
		<path class="st1" d="M370.8,33.7c-0.8-0.8-1.8-1.2-2.9-1.2h-2v-4.2c0-1.9-0.5-3.7-1.4-5.3c-0.9-1.6-2.2-2.9-3.8-3.8
			c-3.2-1.9-7.2-1.9-10.5,0c-1.6,0.9-2.9,2.2-3.8,3.8c-0.9,1.6-1.4,3.4-1.4,5.3v4.2h-2c-1.1,0-2.2,0.4-2.9,1.2
			c-0.8,0.7-1.3,1.8-1.3,2.9v20.8c0,1.1,0.4,2.1,1.3,2.9c0.8,0.8,1.8,1.2,2.9,1.2h24.9c1.1,0,2.2-0.4,2.9-1.2
			c0.8-0.7,1.3-1.8,1.3-2.9V36.6C372,35.5,371.5,34.5,370.8,33.7z M348.9,28.3c0-1.1,0.3-2.2,0.9-3.2c0.6-1,1.4-1.8,2.4-2.4
			c2-1.2,4.4-1.2,6.4,0c1,0.6,1.8,1.4,2.4,2.4c0.6,1,0.9,2.1,0.9,3.2v4.2h-12.9V28.3z"/>
		<polygon class="st10" points="354.1,55.3 345.8,47.7 348.9,44.3 353.7,48.8 362.2,39.1 365.6,42.1 		"/>
		<g id="SECURE-SSL-ENCRYPTIO">
			<path class="st11" d="M401.3,40.4c1.7,1.6,4,2.5,6.3,2.7c1.3,0,2.8-0.5,2.8-2.1c0-3.1-11.9-3-11.9-11.1c0-4.9,4.1-8.1,9.3-8.1
				c3.1-0.1,6.1,0.9,8.5,3l-2.7,5.3c-1.6-1.4-3.7-2.2-5.8-2.3c-1.3,0-2.8,0.6-2.8,2.1c0,3.3,11.9,2.7,11.9,11c0,4.4-3.3,8.2-9.3,8.2
				c-3.6,0-7-1.3-9.6-3.8L401.3,40.4z"/>
			<path class="st11" d="M421.2,22.3h16.5v5.5h-10.1v4.8h8v5.5h-8v5h10.6v5.5h-17L421.2,22.3z"/>
			<path class="st11" d="M454.9,21.9c3.7-0.1,7.2,1.2,9.9,3.7l-3,4.9c-1.8-1.6-4.1-2.6-6.6-2.7c-3.9-0.2-7.2,2.7-7.4,6.6
				c0,0.3,0,0.6,0,0.9c-0.2,4.1,2.9,7.7,7.1,7.9c0.1,0,0.2,0,0.4,0c2.7-0.2,5.2-1.3,7-3.2l3.3,4.7c-2.8,2.9-6.6,4.5-10.6,4.4
				c-7.3,0.3-13.5-5.3-13.8-12.6c0-0.4,0-0.7,0-1.1c-0.1-7.4,5.9-13.4,13.3-13.5C454.6,21.9,454.8,21.9,454.9,21.9z"/>
			<path class="st11" d="M469.1,22.3h6.4v16.6c0.2,2.5,2.4,4.4,5,4.2c2.2-0.2,4-1.9,4.2-4.2V22.3h6.4v16.6c0,5.9-4.4,10.1-11,10.1
				s-11-4.2-11-10.1V22.3z"/>
			<path class="st11" d="M496.9,22.3h9.2c1.7-0.1,3.5,0.1,5.1,0.6c3.1,1.2,5.1,4.3,4.9,7.7c0.1,2.9-1.4,5.7-3.9,7.2l0,0
				c0.4,0.5,0.7,1,1,1.6l5.1,9.2H511l-4.7-8.8h-3v8.8h-6.4L496.9,22.3z M506.2,34.2c1.7,0.2,3.1-1,3.3-2.6c0-0.2,0-0.4,0-0.6
				c0-2-0.7-3.2-4-3.2h-2.2v6.4H506.2z"/>
			<path class="st11" d="M522,22.3h16.5v5.5h-10.1v4.8h8v5.5h-8v5H539v5.5h-17V22.3z"/>
			<path class="st12" d="M401.5,61.9c0.8,0.7,1.8,1.1,2.8,1.2c0.6,0,1.3-0.2,1.3-1c0-1.4-5.3-1.4-5.3-5c0.1-2.1,1.9-3.7,4-3.7
				c0.1,0,0.2,0,0.2,0c1.4-0.1,2.8,0.4,3.8,1.4l-1.2,2.4c-0.7-0.6-1.7-1-2.6-1.1c-0.6,0-1.3,0.3-1.3,0.9c0,1.5,5.3,1.2,5.3,5
				c0,2.1-1.8,3.8-3.9,3.7c-0.1,0-0.2,0-0.3,0c-1.6,0-3.2-0.6-4.4-1.8L401.5,61.9z"/>
			<path class="st12" d="M411.1,61.9c0.8,0.7,1.8,1.1,2.8,1.2c0.6,0,1.3-0.2,1.3-1c0-1.4-5.3-1.4-5.3-5c0.1-2.1,1.9-3.7,4-3.7
				c0.1,0,0.2,0,0.2,0c1.4-0.1,2.8,0.4,3.8,1.4l-1.2,2.4c-0.7-0.6-1.7-1-2.6-1.1c-0.6,0-1.3,0.3-1.3,0.9c0,1.5,5.3,1.2,5.3,5
				c0,2.1-1.8,3.8-3.9,3.7c-0.1,0-0.2,0-0.3,0c-1.6,0-3.2-0.6-4.4-1.8L411.1,61.9z"/>
			<path class="st12" d="M420.1,53.7h2.9v9.4h4.9v2.5h-7.8V53.7z"/>
			<path class="st12" d="M433.3,53.7h7.5v2.5h-4.5v2.1h3.6v2.5h-3.6v2.2h4.8v2.5h-7.7L433.3,53.7z"/>
			<path class="st12" d="M443,53.7h2.9l3.3,5.5c0.4,0.7,0.7,1.3,1,2l0,0c0,0-0.1-1.3-0.1-2v-5.5h2.9v11.9h-2.9l-3.3-5.5
				c-0.4-0.7-0.7-1.3-1-2l0,0c0,0,0.1,1.3,0.1,2v5.5H443V53.7z"/>
			<path class="st12" d="M461.3,53.5c1.7,0,3.3,0.6,4.5,1.8l-1.4,2.2c-0.8-0.7-1.9-1.2-3-1.2c-1.8-0.1-3.3,1.3-3.4,3
				c0,0.1,0,0.2,0,0.4c-0.1,1.9,1.4,3.4,3.2,3.5c0,0,0.1,0,0.1,0c1.2-0.1,2.3-0.6,3.2-1.5l1.5,2.1c-1.3,1.3-3,2-4.8,2
				c-3.3,0.2-6.1-2.4-6.2-5.7c0-0.2,0-0.3,0-0.5c-0.1-3.3,2.6-6.1,6-6.2C461.1,53.5,461.2,53.5,461.3,53.5z"/>
			<path class="st12" d="M467.9,53.7h4.1c0.8-0.1,1.6,0,2.3,0.3c1.4,0.6,2.3,2,2.2,3.5c0.1,1.3-0.6,2.6-1.8,3.2l0,0
				c0.2,0.2,0.3,0.5,0.5,0.7l2.3,4.2h-3.2l-2.1-4h-1.4v4h-2.9L467.9,53.7z M472,59.1c0.7,0.1,1.4-0.4,1.5-1.2c0-0.1,0-0.2,0-0.3
				c0-0.9-0.3-1.4-1.8-1.4h-1v2.9L472,59.1z"/>
			<path class="st12" d="M481.4,60.7l-3.9-7h3.3l1.3,2.9c0.4,0.8,0.7,1.8,0.7,1.8l0,0c0,0,0.3-0.9,0.7-1.8l1.3-2.9h3.3l-3.9,7v4.9
				h-2.9L481.4,60.7z"/>
			<path class="st12" d="M489.6,53.7h4.9c2.3,0.2,3.9,2.2,3.7,4.5c-0.2,2-1.7,3.5-3.7,3.7h-2v3.7h-2.9V53.7z M493.9,59.4
				c0.8,0,1.5-0.6,1.5-1.4c0-0.1,0-0.2,0-0.3c0.1-0.8-0.4-1.5-1.2-1.6c-0.1,0-0.2,0-0.3,0h-1.5v3.2H493.9z"/>
			<path class="st12" d="M502.4,56.2h-3.5v-2.5H509v2.5h-3.5v9.4h-2.9L502.4,56.2z"/>
			<path class="st12" d="M510.4,53.7h2.9v11.9h-2.9V53.7z"/>
			<path class="st12" d="M521.5,53.5c3.3-0.1,6.1,2.5,6.2,5.8c0,0.1,0,0.2,0,0.3c0,3.4-2.8,6.2-6.2,6.2c-3.4,0-6.2-2.8-6.2-6.2
				c0,0,0,0,0,0c0-3.3,2.6-6,5.9-6.1C521.3,53.5,521.4,53.5,521.5,53.5z M521.5,63.1c1.8-0.1,3.3-1.6,3.2-3.5c0,0,0,0,0,0
				c0.2-1.8-1.1-3.4-2.9-3.5c-1.8-0.2-3.4,1.1-3.5,2.9c0,0.2,0,0.4,0,0.7C518.2,61.4,519.6,63,521.5,63.1
				C521.5,63.1,521.5,63.1,521.5,63.1z"/>
			<path class="st12" d="M529.7,53.7h2.9l3.3,5.5c0.4,0.7,0.7,1.3,1,2l0,0c0,0-0.1-1.3-0.1-2v-5.5h2.9v11.9h-2.9l-3.3-5.5
				c-0.4-0.7-0.7-1.3-1-2l0,0c0,0,0.1,1.3,0.1,2v5.5h-2.9V53.7z"/>
		</g>
	</g>
</g>
<g>
	<path class="st11" d="M17.4,101c0-0.6-0.1-1-0.3-1.5c-0.2-0.4-0.5-0.8-0.8-1c-0.4-0.3-0.8-0.5-1.2-0.6c-0.5-0.1-1-0.2-1.5-0.2
		c-0.4,0-0.8,0-1.2,0.1c-0.4,0.1-0.8,0.2-1.1,0.4c-0.3,0.2-0.6,0.5-0.8,0.8c-0.2,0.3-0.3,0.7-0.3,1.2c0,0.4,0.1,0.7,0.3,1
		c0.2,0.3,0.5,0.5,0.8,0.7c0.3,0.2,0.6,0.4,1,0.5c0.4,0.1,0.7,0.2,1,0.3l2.4,0.5c0.5,0.1,1,0.2,1.5,0.4c0.5,0.2,1,0.5,1.4,0.8
		c0.4,0.3,0.7,0.7,1,1.2c0.2,0.5,0.4,1,0.4,1.7c0,0.8-0.2,1.5-0.5,2.1c-0.4,0.6-0.8,1-1.4,1.4c-0.6,0.4-1.2,0.6-1.9,0.8
		c-0.7,0.2-1.4,0.2-2.1,0.2c-1.7,0-3.2-0.4-4.3-1.3c-1.1-0.8-1.7-2.2-1.9-4h1.8c0.1,1.2,0.5,2.2,1.3,2.8c0.8,0.6,1.8,0.9,3,0.9
		c0.4,0,0.9,0,1.4-0.1c0.5-0.1,0.9-0.3,1.3-0.5c0.4-0.2,0.7-0.5,1-0.9c0.3-0.4,0.4-0.8,0.4-1.3c0-0.4-0.1-0.8-0.3-1.1
		c-0.2-0.3-0.4-0.6-0.7-0.8c-0.3-0.2-0.7-0.4-1.1-0.5c-0.4-0.1-0.8-0.2-1.2-0.3l-2.3-0.5c-0.6-0.2-1.1-0.3-1.6-0.5
		c-0.5-0.2-0.9-0.5-1.3-0.7c-0.4-0.3-0.7-0.7-0.9-1.1c-0.2-0.4-0.3-1-0.3-1.6c0-0.7,0.2-1.4,0.5-1.9c0.3-0.5,0.8-1,1.3-1.3
		c0.5-0.3,1.1-0.6,1.8-0.7c0.7-0.2,1.3-0.2,2-0.2c0.7,0,1.4,0.1,2.1,0.3c0.6,0.2,1.2,0.5,1.7,0.9c0.5,0.4,0.9,0.9,1.2,1.5
		c0.3,0.6,0.5,1.3,0.5,2.1L17.4,101L17.4,101z"/>
	<path class="st11" d="M22.6,104.6c0,0.6,0.1,1.3,0.3,1.9c0.2,0.6,0.5,1.2,0.9,1.7c0.4,0.5,0.9,0.9,1.5,1.3c0.6,0.3,1.4,0.5,2.2,0.5
		c1.3,0,2.4-0.4,3.1-1.1c0.7-0.7,1.3-1.6,1.6-2.8H34c-0.4,1.7-1.1,3-2.1,3.9c-1,0.9-2.5,1.4-4.4,1.4c-1.2,0-2.2-0.2-3.1-0.6
		c-0.8-0.4-1.5-0.9-2.1-1.6c-0.5-0.7-0.9-1.5-1.2-2.4c-0.3-0.9-0.4-1.8-0.4-2.8c0-0.9,0.1-1.8,0.4-2.7c0.3-0.9,0.7-1.7,1.2-2.4
		c0.5-0.7,1.2-1.3,2.1-1.7c0.8-0.4,1.9-0.6,3.1-0.6s2.2,0.2,3.1,0.7c0.8,0.5,1.5,1.1,2.1,1.8c0.5,0.7,0.9,1.6,1.1,2.5
		c0.2,1,0.3,1.9,0.3,2.9L22.6,104.6L22.6,104.6z M32.2,103.1c0-0.6-0.1-1.2-0.4-1.8c-0.2-0.6-0.5-1.1-0.9-1.5
		c-0.4-0.5-0.9-0.8-1.5-1.1c-0.6-0.3-1.2-0.4-2-0.4c-0.7,0-1.4,0.1-2,0.4c-0.6,0.3-1.1,0.6-1.5,1.1c-0.4,0.5-0.7,1-1,1.6
		c-0.2,0.6-0.4,1.2-0.5,1.8C22.6,103.1,32.2,103.1,32.2,103.1z"/>
	<path class="st11" d="M46.1,101.8c-0.2-1.1-0.7-2-1.4-2.6c-0.7-0.6-1.6-1-2.8-1c-0.9,0-1.6,0.2-2.3,0.5C39,99,38.4,99.5,38,100
		c-0.4,0.6-0.8,1.2-1,1.9c-0.2,0.7-0.3,1.4-0.3,2.2c0,0.7,0.1,1.5,0.3,2.2c0.2,0.7,0.5,1.3,1,1.9c0.4,0.6,1,1,1.6,1.3
		c0.7,0.3,1.4,0.5,2.3,0.5c0.6,0,1.1-0.1,1.6-0.3c0.5-0.2,0.9-0.5,1.3-0.9c0.4-0.4,0.7-0.8,1-1.3c0.2-0.5,0.4-1.1,0.5-1.7H48
		c-0.2,1.8-0.9,3.2-2,4.2c-1.1,1-2.5,1.5-4.1,1.5c-1.1,0-2.1-0.2-3-0.6c-0.9-0.4-1.6-0.9-2.2-1.6c-0.6-0.7-1-1.5-1.4-2.4
		c-0.3-0.9-0.5-1.9-0.5-2.9c0-1,0.2-2,0.5-2.9c0.3-0.9,0.8-1.7,1.4-2.4c0.6-0.7,1.3-1.2,2.2-1.6c0.9-0.4,1.9-0.6,3-0.6
		c1.6,0,2.9,0.4,4,1.3c1.1,0.8,1.8,2.1,2,3.8L46.1,101.8L46.1,101.8z"/>
	<path class="st11" d="M61.7,111.5h-1.7v-2.7H60c-0.5,1-1.2,1.7-2.1,2.1c-0.9,0.4-1.9,0.6-3,0.6c-0.9,0-1.7-0.1-2.4-0.4
		c-0.7-0.3-1.2-0.6-1.6-1.1c-0.4-0.5-0.7-1.1-0.9-1.7c-0.2-0.7-0.3-1.4-0.3-2.3v-9.4h1.8v9.4c0,1.3,0.3,2.3,0.9,3c0.6,0.7,1.6,1,3,1
		c0.8,0,1.4-0.2,2-0.5c0.6-0.3,1-0.8,1.4-1.3c0.4-0.5,0.6-1.2,0.8-1.9c0.2-0.7,0.3-1.4,0.3-2.1v-7.6h1.8L61.7,111.5L61.7,111.5z"/>
	<path class="st11" d="M64.3,96.7H66v3.5H66c0.5-1.2,1.2-2.1,2.1-2.7c1-0.6,2.1-0.8,3.5-0.8v1.8c-0.8,0-1.6,0.1-2.2,0.3
		c-0.7,0.3-1.3,0.6-1.7,1.1c-0.5,0.5-0.9,1-1.1,1.7c-0.3,0.7-0.4,1.4-0.4,2.1v7.8h-1.8V96.7z"/>
	<path class="st11" d="M73.1,104.6c0,0.6,0.1,1.3,0.3,1.9c0.2,0.6,0.5,1.2,0.9,1.7c0.4,0.5,0.9,0.9,1.5,1.3c0.6,0.3,1.4,0.5,2.2,0.5
		c1.3,0,2.4-0.4,3.1-1.1c0.7-0.7,1.3-1.6,1.6-2.8h1.8c-0.4,1.7-1.1,3-2.1,3.9c-1,0.9-2.5,1.4-4.4,1.4c-1.2,0-2.2-0.2-3.1-0.6
		c-0.8-0.4-1.5-0.9-2.1-1.6c-0.5-0.7-0.9-1.5-1.2-2.4c-0.3-0.9-0.4-1.8-0.4-2.8c0-0.9,0.1-1.8,0.4-2.7c0.3-0.9,0.7-1.7,1.2-2.4
		c0.5-0.7,1.2-1.3,2.1-1.7c0.8-0.4,1.9-0.6,3.1-0.6c1.2,0,2.2,0.2,3.1,0.7c0.8,0.5,1.5,1.1,2.1,1.8c0.5,0.7,0.9,1.6,1.1,2.5
		c0.2,1,0.3,1.9,0.3,2.9L73.1,104.6L73.1,104.6z M82.7,103.1c0-0.6-0.1-1.2-0.4-1.8c-0.2-0.6-0.5-1.1-0.9-1.5
		c-0.4-0.5-0.9-0.8-1.5-1.1c-0.6-0.3-1.2-0.4-2-0.4c-0.7,0-1.4,0.1-2,0.4c-0.6,0.3-1.1,0.6-1.5,1.1c-0.4,0.5-0.7,1-1,1.6
		c-0.2,0.6-0.4,1.2-0.5,1.8C73.1,103.1,82.7,103.1,82.7,103.1z"/>
	<path class="st11" d="M99.2,111.5h-1.7v-2.8h-0.1c-0.2,0.5-0.5,0.9-0.9,1.3c-0.4,0.4-0.8,0.7-1.3,1c-0.5,0.3-1,0.4-1.5,0.4
		c-0.5,0-1.1,0-1.6,0c-1.1,0-2.1-0.2-3-0.6c-0.8-0.4-1.5-0.9-2.1-1.6c-0.6-0.7-1-1.5-1.2-2.4c-0.3-0.9-0.4-1.8-0.4-2.8
		c0-1,0.1-1.9,0.4-2.8c0.3-0.9,0.7-1.7,1.2-2.4c0.6-0.7,1.3-1.2,2.1-1.6c0.8-0.4,1.8-0.6,3-0.6c0.6,0,1.1,0.1,1.6,0.2
		c0.5,0.1,1,0.3,1.5,0.6c0.5,0.3,0.9,0.6,1.2,1c0.4,0.4,0.6,0.9,0.8,1.4h0.1v-9h1.8C99.2,91,99.2,111.5,99.2,111.5z M87.5,106.2
		c0.2,0.7,0.5,1.3,0.9,1.9c0.4,0.6,0.9,1,1.5,1.4s1.4,0.5,2.2,0.5c1,0,1.8-0.2,2.4-0.5c0.7-0.3,1.2-0.8,1.6-1.4
		c0.4-0.6,0.7-1.2,0.9-1.9c0.2-0.7,0.3-1.4,0.3-2.1c0-0.7-0.1-1.4-0.3-2.1c-0.2-0.7-0.5-1.3-0.9-1.9c-0.4-0.6-1-1-1.6-1.4
		c-0.7-0.3-1.5-0.5-2.4-0.5c-0.9,0-1.6,0.2-2.2,0.5c-0.6,0.3-1.1,0.8-1.5,1.4c-0.4,0.6-0.7,1.2-0.9,1.9c-0.2,0.7-0.3,1.4-0.3,2.1
		C87.3,104.8,87.4,105.5,87.5,106.2z"/>
	<path class="st11" d="M108.9,91h1.8v9h0.1c0.2-0.5,0.5-1,0.8-1.4c0.4-0.4,0.8-0.7,1.2-1c0.5-0.3,1-0.5,1.5-0.6
		c0.5-0.1,1.1-0.2,1.6-0.2c1.1,0,2.1,0.2,3,0.6c0.8,0.4,1.5,0.9,2.1,1.6c0.6,0.7,1,1.5,1.2,2.4c0.3,0.9,0.4,1.8,0.4,2.8
		s-0.1,1.9-0.4,2.8c-0.3,0.9-0.7,1.7-1.2,2.4c-0.6,0.7-1.3,1.2-2.1,1.6c-0.8,0.4-1.8,0.6-3,0.6c-1.2,0-2.3-0.2-3.2-0.6
		c-1-0.4-1.6-1.2-2.1-2.2h-0.1v2.8h-1.7L108.9,91L108.9,91z M120.5,102c-0.2-0.7-0.5-1.3-0.9-1.9c-0.4-0.6-0.9-1-1.5-1.4
		c-0.6-0.3-1.4-0.5-2.2-0.5c-1,0-1.8,0.2-2.4,0.5c-0.7,0.3-1.2,0.8-1.6,1.4c-0.4,0.6-0.7,1.2-0.9,1.9c-0.2,0.7-0.3,1.4-0.3,2.1
		c0,0.7,0.1,1.4,0.3,2.1c0.2,0.7,0.5,1.3,0.9,1.9c0.4,0.6,1,1,1.6,1.4c0.7,0.3,1.5,0.5,2.4,0.5c0.9,0,1.6-0.2,2.2-0.5
		c0.6-0.3,1.1-0.8,1.5-1.4c0.4-0.6,0.7-1.2,0.9-1.9c0.2-0.7,0.3-1.4,0.3-2.1C120.8,103.4,120.7,102.7,120.5,102z"/>
	<path class="st11" d="M122.9,96.7h1.9l4.9,12.7l4.6-12.7h1.8l-6.5,17.1c-0.3,0.6-0.5,1.2-0.7,1.6c-0.2,0.4-0.5,0.7-0.8,1
		c-0.3,0.2-0.6,0.4-1,0.5c-0.4,0.1-0.9,0.2-1.4,0.2c-0.4,0-0.6,0-0.9,0c-0.2,0-0.4,0-0.5-0.1v-1.5c0.2,0,0.4,0.1,0.6,0.1
		s0.4,0,0.6,0c0.4,0,0.7-0.1,1-0.2c0.3-0.1,0.5-0.3,0.7-0.5c0.2-0.2,0.4-0.4,0.5-0.7c0.1-0.3,0.3-0.6,0.4-1l0.6-1.7L122.9,96.7z"/>
</g>
<g>
	<path class="st13" d="M17.1,11.9h214.2c5.2,0,9.4,4.2,9.4,9.4v45.3c0,5.2-4.2,9.4-9.4,9.4H17.1c-5.2,0-9.4-4.2-9.4-9.4V21.3
		C7.7,16.1,11.9,11.9,17.1,11.9z"/>
	<path class="st1" d="M119.3,53.6h-2.3l1.8-4.4l-3.5-8.9h2.4l2.2,6.1l2.2-6.1h2.4L119.3,53.6z M110.6,49.7c-0.8,0-1.6-0.3-2.3-0.9
		v0.6h-2.4V36.3h2.4v4.7c0.7-0.6,1.5-0.8,2.3-0.8c2.5,0,4.2,2,4.2,4.8S113,49.7,110.6,49.7z M110.1,42.1c-0.6,0-1.3,0.3-1.8,0.8v3.9
		c0.6,0.6,1.2,0.8,1.8,0.8c1.3,0,2.3-1.1,2.3-2.8C112.3,43.3,111.4,42.1,110.1,42.1z M96.3,48.9c-0.7,0.6-1.5,0.9-2.3,0.9
		c-2.5,0-4.2-2-4.2-4.8s1.7-4.8,4.2-4.8c0.8,0,1.6,0.3,2.3,0.8v-4.7h2.4v13.3h-2.4V48.9z M96.3,42.9c-0.5-0.6-1.2-0.8-1.8-0.8
		c-1.3,0-2.3,1.1-2.3,2.8c0,1.7,0.9,2.8,2.3,2.8c0.6,0,1.3-0.3,1.8-0.8V42.9z M82.2,45.6c0.1,1.4,1.3,2.4,2.8,2.4
		c0.8,0,1.8-0.3,2.7-0.9v2c-1.1,0.5-2.1,0.7-3.1,0.7c-2.8,0-4.7-2-4.7-4.9c0-2.8,1.9-4.8,4.6-4.8c2.4,0,4.1,1.9,4.1,4.6
		c0,0.3,0,0.6,0,0.9H82.2z M84.4,41.9c-1.1,0-2,0.8-2.1,2.1h4C86.2,42.8,85.4,41.9,84.4,41.9z M76,43.4v6.2h-2.4v-9.2H76v0.9
		c0.7-0.7,1.5-1.1,2.3-1.1c0.3,0,0.5,0,0.8,0.1v2.1c-0.3-0.1-0.6-0.1-0.8-0.1C77.5,42.2,76.6,42.6,76,43.4z M65.5,45.6
		c0.1,1.4,1.3,2.4,2.8,2.4c0.8,0,1.8-0.3,2.7-0.9v2c-1.1,0.5-2.1,0.7-3.1,0.7c-2.8,0-4.7-2-4.7-4.9c0-2.8,1.9-4.8,4.6-4.8
		c2.4,0,4.1,1.9,4.1,4.6c0,0.3,0,0.6,0,0.9H65.5z M67.6,41.9c-1.1,0-2,0.8-2.1,2.1h4C69.4,42.8,68.7,41.9,67.6,41.9z M57.2,49.5
		l-1.9-6.3l-1.9,6.3h-2.1l-3.2-9.2h2.4l1.9,6.3l1.9-6.3h2.1l1.9,6.3l1.9-6.3h2.4l-3.2,9.2H57.2z M42.8,49.7c-2.8,0-4.8-2-4.8-4.8
		c0-2.8,2-4.8,4.8-4.8c2.8,0,4.7,2,4.7,4.8C47.6,47.7,45.6,49.7,42.8,49.7z M42.8,42.1c-1.4,0-2.3,1.2-2.3,2.9s1,2.9,2.3,2.9
		c1.4,0,2.3-1.2,2.3-2.9S44.2,42.1,42.8,42.1z M32.5,45h-2.1v4.6H28V36.8h4.5c2.6,0,4.4,1.7,4.4,4.1C36.9,43.3,35,45,32.5,45z
		 M32.1,38.8h-1.8v4.3h1.8c1.4,0,2.3-0.9,2.3-2.1C34.4,39.6,33.5,38.8,32.1,38.8z"/>
	<path class="st1" d="M221.6,46.1h-11.3c0.3,2.7,2.2,3.5,4.5,3.5c2.3,0,4.1-0.5,5.7-1.3V53c-1.6,0.9-3.7,1.5-6.4,1.5
		c-5.6,0-9.6-3.5-9.6-10.5c0-5.9,3.4-10.6,8.9-10.6c5.5,0,8.4,4.7,8.4,10.6C221.7,44.6,221.7,45.8,221.6,46.1z M213.3,38.2
		c-1.4,0-3.1,1.1-3.1,3.7h6C216.2,39.2,214.7,38.2,213.3,38.2z M195.3,54.5c-2,0-3.3-0.9-4.1-1.5l0,6.6l-5.8,1.2l0-27h5.1l0.3,1.4
		c0.8-0.7,2.3-1.8,4.5-1.8c4.1,0,7.9,3.7,7.9,10.4C203.2,51.2,199.4,54.5,195.3,54.5z M194,38.6c-1.3,0-2.2,0.5-2.8,1.1l0,8.6
		c0.6,0.6,1.4,1.1,2.7,1.1c2.1,0,3.6-2.3,3.6-5.4C197.5,40.9,196.1,38.6,194,38.6z M177.2,33.8h5.8v20.3h-5.8V33.8z M177.2,27.3
		l5.8-1.2v4.7l-5.8,1.2V27.3z M171.2,40.4v13.8h-5.8V33.8h5l0.4,1.7c1.4-2.5,4.1-2,4.8-1.7v5.3C174.9,38.9,172.6,38.6,171.2,40.4z
		 M159,47c0,3.4,3.7,2.4,4.4,2.1v4.7c-0.8,0.4-2.2,0.8-4.1,0.8c-3.4,0-6-2.5-6-6l0-18.6l5.7-1.2l0,5h4.4v4.9H159V47z M152,48
		c0,4.2-3.3,6.5-8.1,6.5c-2,0-4.2-0.4-6.3-1.3v-5.5c1.9,1.1,4.4,1.8,6.3,1.8c1.3,0,2.2-0.3,2.2-1.4c0-2.8-8.8-1.7-8.8-8.1
		c0-4.1,3.1-6.6,7.8-6.6c1.9,0,3.8,0.3,5.8,1.1v5.5c-1.8-1-4-1.5-5.8-1.5c-1.2,0-2,0.4-2,1.3C143.1,42.3,152,41.1,152,48z"/>
</g>
</svg>
